<svg xmlns="http://www.w3.org/2000/svg" viewBox="0 0 229.21 56.66"><defs><style>.cls-1{fill:#f0c827;}.cls-2{fill:#50adc9;}.cls-3{fill:#c73752;}.cls-4{fill:#261f5b;}</style></defs><g id="Logo"><path class="cls-1" d="M25,63a28,28,0,0,1-2.91-12.5A28.34,28.34,0,0,1,50.45,22.16a28,28,0,0,1,12.11,2.72C52,28,28.22,37.67,25,63Z" transform="translate(-22.12 -22.16)"/><path class="cls-2" d="M62.94,75.93a28.31,28.31,0,0,1-32.6-5.49c4.68-2.38,11.67-4.24,18,.78C54.09,75.75,59.3,76.36,62.94,75.93Z" transform="translate(-22.12 -22.16)"/><path class="cls-3" d="M78.79,50.57a28.29,28.29,0,0,1-11,22l.11-44.69A28.24,28.24,0,0,1,78.79,50.57Z" transform="translate(-22.12 -22.16)"/><path class="cls-4" d="M104.66,41.28H98L87.72,69h6.33l2-5.54h10.7L108.61,69h6.33L104.71,41.43Zm.39,17.52H97.61l3.72-10.67Z" transform="translate(-22.12 -22.16)"/><rect class="cls-4" x="95.2" y="17.47" width="5.98" height="29.35"/><rect class="cls-4" x="105.7" y="17.47" width="5.98" height="29.35"/><path class="cls-4" d="M154,48a11.69,11.69,0,0,0-5.72-1.36A12,12,0,0,0,142.54,48a9.6,9.6,0,0,0-3.92,3.94,12.42,12.42,0,0,0-1.39,6,12.32,12.32,0,0,0,1.39,6,9.78,9.78,0,0,0,3.92,3.94,12.66,12.66,0,0,0,10.73.34,9.91,9.91,0,0,0,3.7-2.88,9.61,9.61,0,0,0,1.88-4.16l.05-.29h-6.29l0,.19a4,4,0,0,1-1.53,2.4,5,5,0,0,1-3,.89,4.85,4.85,0,0,1-3.43-1.3,6.1,6.1,0,0,1-1.47-4h15.79l0-.19a7.92,7.92,0,0,0,.19-1.75,10.94,10.94,0,0,0-1.33-5.4A9.63,9.63,0,0,0,154,48Zm-9.3,4.76a5.16,5.16,0,0,1,3.58-1.31,5.1,5.1,0,0,1,3.53,1.3,4.22,4.22,0,0,1,1.32,3.45h-10A4.8,4.8,0,0,1,144.69,52.74Z" transform="translate(-22.12 -22.16)"/><path class="cls-4" d="M190.3,46.58a8.39,8.39,0,0,0-7.52,4.52A7.74,7.74,0,0,0,180,47.87a8.49,8.49,0,0,0-4.68-1.29,8.25,8.25,0,0,0-4.43,1.19,6.76,6.76,0,0,0-2.35,2.43V46.89h-6V69h6V57.28a5.71,5.71,0,0,1,1.3-4.05,4.59,4.59,0,0,1,3.49-1.37,4.36,4.36,0,0,1,3.32,1.27,5.2,5.2,0,0,1,1.21,3.68V69h5.94V57.28a5.67,5.67,0,0,1,1.3-4.05,4.59,4.59,0,0,1,3.49-1.37,4.36,4.36,0,0,1,3.32,1.27,5.19,5.19,0,0,1,1.2,3.68V69H199V56.19c0-3-.79-5.43-2.34-7.09A8.4,8.4,0,0,0,190.3,46.58Z" transform="translate(-22.12 -22.16)"/><path class="cls-4" d="M219.33,50.53a7.32,7.32,0,0,0-2.4-2.58h0a8.62,8.62,0,0,0-4.82-1.33,9.59,9.59,0,0,0-5,1.36,9.19,9.19,0,0,0-3.5,4,13.47,13.47,0,0,0-1.26,6,13.52,13.52,0,0,0,1.26,6,9.16,9.16,0,0,0,3.5,3.94,9.5,9.5,0,0,0,5,1.36,8.54,8.54,0,0,0,4.82-1.34,7.55,7.55,0,0,0,2.4-2.6V69h5.94V46.89h-5.94Zm-1.56,3a6.18,6.18,0,0,1,1.56,4.42,6.11,6.11,0,0,1-1.56,4.38A5.23,5.23,0,0,1,213.83,64a5.16,5.16,0,0,1-4-1.59,6.18,6.18,0,0,1-1.5-4.42,6.26,6.26,0,0,1,1.5-4.44,5.18,5.18,0,0,1,4-1.6A5.25,5.25,0,0,1,217.77,53.52Z" transform="translate(-22.12 -22.16)"/><path class="cls-4" d="M249.05,49.12h0a8,8,0,0,0-6.15-2.54,8.64,8.64,0,0,0-4.67,1.27,7.12,7.12,0,0,0-2.47,2.56V46.89h-6V69h6V57.28a6,6,0,0,1,1.34-4.21,4.66,4.66,0,0,1,3.58-1.44A4.52,4.52,0,0,1,244.13,53a5.47,5.47,0,0,1,1.26,3.84V69h5.94V56.19A10.24,10.24,0,0,0,249.05,49.12Z" transform="translate(-22.12 -22.16)"/><path class="cls-4" d="M152,31.84a.93.93,0,0,1,.49-.14.88.88,0,0,1,.58.21.71.71,0,0,1,.24.56,1.23,1.23,0,0,1-.07.36l-3,8.32a.87.87,0,0,1-.37.43,1.14,1.14,0,0,1-.57.16,1.17,1.17,0,0,1-.57-.16.73.73,0,0,1-.36-.43L146,34.57l-2.36,6.58a.78.78,0,0,1-.37.43,1.08,1.08,0,0,1-1.13,0,.75.75,0,0,1-.35-.43l-3-8.32a1.08,1.08,0,0,1-.07-.36.7.7,0,0,1,.26-.56.92.92,0,0,1,.61-.21,1,1,0,0,1,.5.14.73.73,0,0,1,.32.42l2.38,6.83,2.44-6.79a1,1,0,0,1,.32-.44.89.89,0,0,1,.49-.16.87.87,0,0,1,.83.62l2.37,6.86,2.42-6.92A.8.8,0,0,1,152,31.84Z" transform="translate(-22.12 -22.16)"/><path class="cls-4" d="M155,41.47a.92.92,0,0,1-.24-.66v-8.2A.88.88,0,0,1,155,32a.9.9,0,0,1,.65-.24.93.93,0,0,1,.67.24.88.88,0,0,1,.24.65v8.2a.92.92,0,0,1-.24.66.9.9,0,0,1-.67.25A.87.87,0,0,1,155,41.47Z" transform="translate(-22.12 -22.16)"/><path class="cls-4" d="M166.81,32a.92.92,0,0,1,.23.65v8.2a.92.92,0,0,1-.24.66.79.79,0,0,1-.61.25.82.82,0,0,1-.69-.32l-5.1-6.64v6.05a1,1,0,0,1-.22.66.79.79,0,0,1-.62.25.76.76,0,0,1-.61-.25,1,1,0,0,1-.22-.66v-8.2A.88.88,0,0,1,159,32a.85.85,0,0,1,.63-.24.77.77,0,0,1,.67.32l5.09,6.61v-6a.92.92,0,0,1,.23-.65.91.91,0,0,1,1.23,0Z" transform="translate(-22.12 -22.16)"/><path class="cls-4" d="M169.4,41.41a.78.78,0,0,1-.24-.62V32.64a.82.82,0,0,1,.24-.63.85.85,0,0,1,.63-.22h2.77a5.17,5.17,0,0,1,3.75,1.29,4.81,4.81,0,0,1,1.33,3.63,4.81,4.81,0,0,1-1.33,3.63,5.14,5.14,0,0,1-3.75,1.3H170A.85.85,0,0,1,169.4,41.41Zm6.68-4.7q0-3.47-3.39-3.46H171v6.92h1.72Q176.08,40.17,176.08,36.71Z" transform="translate(-22.12 -22.16)"/><path class="cls-4" d="M181.08,41.48a4.39,4.39,0,0,1-1.56-.78.77.77,0,0,1-.32-.67.85.85,0,0,1,.17-.51.55.55,0,0,1,.41-.22,1.18,1.18,0,0,1,.58.2,4.2,4.2,0,0,0,1.25.63,5.16,5.16,0,0,0,1.46.19,2.82,2.82,0,0,0,1.56-.35,1.16,1.16,0,0,0,.55-1,.89.89,0,0,0-.51-.82,6.57,6.57,0,0,0-1.7-.55,10.39,10.39,0,0,1-2-.62,2.83,2.83,0,0,1-1.16-.89,2.35,2.35,0,0,1-.39-1.39,2.6,2.6,0,0,1,.49-1.55A3.34,3.34,0,0,1,181.27,32a4.94,4.94,0,0,1,2-.38,4.85,4.85,0,0,1,3.25,1.06,1,1,0,0,1,.26.3.81.81,0,0,1,.08.37.76.76,0,0,1-.18.51.49.49,0,0,1-.41.22.75.75,0,0,1-.26,0,1.85,1.85,0,0,1-.31-.16,5,5,0,0,0-1.11-.62,3.9,3.9,0,0,0-1.32-.2,2.66,2.66,0,0,0-1.51.38,1.26,1.26,0,0,0-.55,1.07,1,1,0,0,0,.49.88,5.68,5.68,0,0,0,1.66.58,10.42,10.42,0,0,1,2,.62,3,3,0,0,1,1.19.87,2.09,2.09,0,0,1,.41,1.33,2.53,2.53,0,0,1-.48,1.53,3.09,3.09,0,0,1-1.35,1,5.11,5.11,0,0,1-2,.37A7,7,0,0,1,181.08,41.48Z" transform="translate(-22.12 -22.16)"/><path class="cls-4" d="M189.61,40.72a4.15,4.15,0,0,1-1.05-3.06v-5a.88.88,0,0,1,.24-.65.86.86,0,0,1,.64-.24.84.84,0,0,1,.64.24.88.88,0,0,1,.24.65v5.14a2.73,2.73,0,0,0,.6,1.92,2.26,2.26,0,0,0,1.76.65,2.24,2.24,0,0,0,1.75-.65,2.76,2.76,0,0,0,.6-1.92V32.61a.88.88,0,0,1,.24-.65.86.86,0,0,1,.64-.24.84.84,0,0,1,.64.24.88.88,0,0,1,.24.65v5a3.68,3.68,0,0,1-4.11,4.1A4.19,4.19,0,0,1,189.61,40.72Z" transform="translate(-22.12 -22.16)"/><path class="cls-4" d="M206.91,41a.67.67,0,0,1-.26.53.92.92,0,0,1-.61.21.88.88,0,0,1-.42-.11.94.94,0,0,1-.35-.31l-1.85-2.83a2,2,0,0,0-.6-.63,1.63,1.63,0,0,0-.82-.18h-1.37v3.13a.93.93,0,0,1-.23.67.88.88,0,0,1-.65.24.9.9,0,0,1-.65-.24.93.93,0,0,1-.24-.67V32.64a.85.85,0,0,1,.23-.63.87.87,0,0,1,.64-.22h3.49a3.86,3.86,0,0,1,2.55.74,3.08,3.08,0,0,1,.22,4,3.05,3.05,0,0,1-1.83,1,1.8,1.8,0,0,1,.71.34,3.62,3.62,0,0,1,.6.7l1.27,1.95A.88.88,0,0,1,206.91,41Zm-2.45-5.08a1.43,1.43,0,0,0,.48-1.19,1.4,1.4,0,0,0-.48-1.18,2.45,2.45,0,0,0-1.49-.37h-2.35V36.3H203A2.38,2.38,0,0,0,204.46,35.92Z" transform="translate(-22.12 -22.16)"/><path class="cls-4" d="M208.82,41.47a.89.89,0,0,1-.25-.66V32.64a.85.85,0,0,1,.23-.63.89.89,0,0,1,.64-.22h4.9c.57,0,.86.24.86.72s-.29.72-.86.72h-4v2.68h3.71c.57,0,.86.24.86.72s-.29.72-.86.72h-3.71v3.46a.92.92,0,0,1-.24.66.83.83,0,0,1-.64.25A.85.85,0,0,1,208.82,41.47Z" transform="translate(-22.12 -22.16)"/><path class="cls-4" d="M218.25,41.15a4.11,4.11,0,0,1-1.64-1.76,6.48,6.48,0,0,1,0-5.36,4.11,4.11,0,0,1,1.64-1.76,5,5,0,0,1,2.49-.61,5.47,5.47,0,0,1,1.74.27,4.42,4.42,0,0,1,1.43.79.79.79,0,0,1,.26.3,1,1,0,0,1,.07.37.81.81,0,0,1-.17.52.51.51,0,0,1-.41.21,1.06,1.06,0,0,1-.57-.2A4.39,4.39,0,0,0,222,33.3a3.69,3.69,0,0,0-1.14-.17,2.66,2.66,0,0,0-2.2.91,4.09,4.09,0,0,0-.75,2.67,4.14,4.14,0,0,0,.75,2.68,2.69,2.69,0,0,0,2.2.91,3.08,3.08,0,0,0,1.11-.19,5.21,5.21,0,0,0,1.15-.61,1.83,1.83,0,0,1,.28-.14.72.72,0,0,1,.29-.06.51.51,0,0,1,.41.21.83.83,0,0,1,.17.52,1.06,1.06,0,0,1-.07.37.72.72,0,0,1-.26.3,4.24,4.24,0,0,1-1.43.79,5.47,5.47,0,0,1-1.74.27A4.89,4.89,0,0,1,218.25,41.15Z" transform="translate(-22.12 -22.16)"/><path class="cls-4" d="M226,41.41a.8.8,0,0,1-.22-.61V32.61a.93.93,0,0,1,1.55-.65.85.85,0,0,1,.25.65v7.55h3.93c.55,0,.83.24.83.74s-.28.74-.83.74h-4.88A.85.85,0,0,1,226,41.41Z" transform="translate(-22.12 -22.16)"/><path class="cls-4" d="M234.17,40.72a4.15,4.15,0,0,1-1-3.06v-5a.88.88,0,0,1,.24-.65.86.86,0,0,1,.64-.24.81.81,0,0,1,.88.89v5.14a2.68,2.68,0,0,0,.61,1.92,2.68,2.68,0,0,0,3.5,0,2.76,2.76,0,0,0,.6-1.92V32.61a.88.88,0,0,1,.24-.65.86.86,0,0,1,.64-.24.83.83,0,0,1,.89.89v5a3.68,3.68,0,0,1-4.11,4.1A4.22,4.22,0,0,1,234.17,40.72Z" transform="translate(-22.12 -22.16)"/><path class="cls-4" d="M250.81,37.42a2.52,2.52,0,0,1,.47,1.54,2.36,2.36,0,0,1-.9,2,3.89,3.89,0,0,1-2.48.72h-3.61a.9.9,0,0,1-.64-.23.81.81,0,0,1-.23-.62V32.64a.85.85,0,0,1,.23-.63.89.89,0,0,1,.64-.22h3.47a3.88,3.88,0,0,1,2.41.67,2.48,2.48,0,0,1,.46,3.25,2.44,2.44,0,0,1-1.14.84A2.38,2.38,0,0,1,250.81,37.42Zm-5.63-1.48h2.28c1.24,0,1.86-.47,1.86-1.39a1.18,1.18,0,0,0-.46-1,2.4,2.4,0,0,0-1.4-.34h-2.28Zm3.94,4a1.28,1.28,0,0,0,.45-1.09,1.33,1.33,0,0,0-.45-1.1,2.28,2.28,0,0,0-1.42-.37h-2.52v2.91h2.52A2.31,2.31,0,0,0,249.12,39.89Z" transform="translate(-22.12 -22.16)"/></g></svg>