<svg xmlns="http://www.w3.org/2000/svg" viewBox="0 0 208.32 153.07"><defs><style>.cls-1{fill:#f0c827;}.cls-2{fill:#50adc9;}.cls-3{fill:#c73752;}.cls-4{fill:#261f5b;}</style></defs><g id="Logo"><path class="cls-1" d="M78.79,63.24a28,28,0,0,1-2.91-12.5,28.33,28.33,0,0,1,40.44-25.61C105.77,28.21,82,37.92,78.79,63.24Z"/><path class="cls-2" d="M116.7,76.17a28.33,28.33,0,0,1-32.6-5.48c4.68-2.39,11.67-4.25,18,.78C107.84,76,113.05,76.6,116.7,76.17Z"/><path class="cls-3" d="M132.55,50.79a28.22,28.22,0,0,1-10.87,22l-.09-44.68A28.24,28.24,0,0,1,132.55,50.79Z"/><path class="cls-4" d="M39.35,87.45H32.73L22.41,115.16h6.33l2-5.54h10.7l1.91,5.54h6.33L39.41,87.6ZM39.74,105H32.3L36,94.3Z"/><rect class="cls-4" x="52.02" y="85.81" width="5.98" height="29.35"/><rect class="cls-4" x="62.51" y="85.81" width="5.98" height="29.35"/><path class="cls-4" d="M88.68,94.15A11.69,11.69,0,0,0,83,92.79a12,12,0,0,0-5.73,1.36,9.6,9.6,0,0,0-3.92,3.94,13.71,13.71,0,0,0,0,12,9.78,9.78,0,0,0,3.92,3.94A12.56,12.56,0,0,0,88,114.4a9.91,9.91,0,0,0,3.7-2.88,9.61,9.61,0,0,0,1.88-4.16l0-.29H87.3l0,.19a4,4,0,0,1-1.53,2.4,5,5,0,0,1-3,.89,4.85,4.85,0,0,1-3.43-1.3,6,6,0,0,1-1.46-4H93.58l0-.19a8,8,0,0,0,.2-1.75,10.84,10.84,0,0,0-1.34-5.4A9.63,9.63,0,0,0,88.68,94.15Zm-9.3,4.76A5.16,5.16,0,0,1,83,97.6a5.06,5.06,0,0,1,3.53,1.31,4.15,4.15,0,0,1,1.32,3.44h-10A4.8,4.8,0,0,1,79.38,98.91Z"/><path class="cls-4" d="M125,92.75a8.42,8.42,0,0,0-4.64,1.35,8.29,8.29,0,0,0-2.88,3.17A7.74,7.74,0,0,0,114.68,94,8.48,8.48,0,0,0,110,92.75a8.26,8.26,0,0,0-4.44,1.19,6.76,6.76,0,0,0-2.35,2.43v-3.3h-6v22.09h6V103.45a5.71,5.71,0,0,1,1.3-4A4.61,4.61,0,0,1,108,98a4.35,4.35,0,0,1,3.31,1.27,5.2,5.2,0,0,1,1.21,3.68v12.18h5.94V103.45a5.71,5.71,0,0,1,1.3-4A4.59,4.59,0,0,1,123.27,98a4.36,4.36,0,0,1,3.32,1.27,5.19,5.19,0,0,1,1.2,3.68v12.18h6v-12.8c0-3-.79-5.43-2.35-7.09A8.38,8.38,0,0,0,125,92.75Z"/><path class="cls-4" d="M154,96.7a7.4,7.4,0,0,0-2.4-2.58h0a8.62,8.62,0,0,0-4.82-1.33,9.61,9.61,0,0,0-5,1.36,9.25,9.25,0,0,0-3.5,3.95,15,15,0,0,0,0,12,9.16,9.16,0,0,0,3.5,3.94,9.53,9.53,0,0,0,5,1.37,8.55,8.55,0,0,0,4.82-1.35,7.55,7.55,0,0,0,2.4-2.6v3.67H160V93.07H154Zm-1.56,3a6.18,6.18,0,0,1,1.56,4.42,6.11,6.11,0,0,1-1.56,4.38,5.66,5.66,0,0,1-7.9.05,6.22,6.22,0,0,1-1.5-4.43,6.31,6.31,0,0,1,1.5-4.44,5.18,5.18,0,0,1,4-1.6A5.24,5.24,0,0,1,152.46,99.69Z"/><path class="cls-4" d="M183.74,95.29h0a7.93,7.93,0,0,0-6.15-2.54A8.67,8.67,0,0,0,172.92,94a7.12,7.12,0,0,0-2.47,2.56V93.07h-6v22.09h6V103.45a6,6,0,0,1,1.35-4.21,4.62,4.62,0,0,1,3.57-1.44,4.49,4.49,0,0,1,3.45,1.35,5.43,5.43,0,0,1,1.26,3.83v12.18H186v-12.8A10.2,10.2,0,0,0,183.74,95.29Z"/><path class="cls-4" d="M61.1,120.74a.93.93,0,0,1,.49-.14.88.88,0,0,1,.58.21.71.71,0,0,1,.24.56,1.18,1.18,0,0,1-.07.36l-3,8.32a.87.87,0,0,1-.37.43,1.1,1.1,0,0,1-1.14,0,.78.78,0,0,1-.37-.43l-2.32-6.58-2.36,6.58a.78.78,0,0,1-.37.43,1.08,1.08,0,0,1-1.13,0,.8.8,0,0,1-.36-.43l-3-8.32a1,1,0,0,1-.07-.36.7.7,0,0,1,.26-.56.92.92,0,0,1,.61-.21,1,1,0,0,1,.5.14.76.76,0,0,1,.32.42L51.92,128l2.44-6.8a1,1,0,0,1,.32-.44.89.89,0,0,1,.49-.16.87.87,0,0,1,.83.62l2.37,6.86,2.42-6.92A.85.85,0,0,1,61.1,120.74Z"/><path class="cls-4" d="M64.19,130.37a.92.92,0,0,1-.24-.66v-8.2a.88.88,0,0,1,.24-.65.9.9,0,0,1,.65-.24.93.93,0,0,1,.67.24.88.88,0,0,1,.24.65v8.2a.92.92,0,0,1-.24.66.9.9,0,0,1-.67.25A.87.87,0,0,1,64.19,130.37Z"/><path class="cls-4" d="M76,120.86a.92.92,0,0,1,.23.65v8.2a.92.92,0,0,1-.24.66.79.79,0,0,1-.61.25.82.82,0,0,1-.69-.32l-5.1-6.64v6.05a1,1,0,0,1-.22.66.79.79,0,0,1-.62.25.76.76,0,0,1-.61-.25,1,1,0,0,1-.22-.66v-8.2a.88.88,0,0,1,.23-.65.85.85,0,0,1,.63-.24.77.77,0,0,1,.67.32l5.09,6.61v-6a.92.92,0,0,1,.23-.65.91.91,0,0,1,1.23,0Z"/><path class="cls-4" d="M78.54,130.31a.81.81,0,0,1-.23-.62v-8.15a.85.85,0,0,1,.23-.63.89.89,0,0,1,.64-.22H82A5.17,5.17,0,0,1,85.7,122a5.63,5.63,0,0,1,0,7.27A5.17,5.17,0,0,1,82,130.54H79.18A.9.9,0,0,1,78.54,130.31Zm6.69-4.7q0-3.47-3.39-3.46H80.12v6.92h1.72Q85.23,129.07,85.23,125.61Z"/><path class="cls-4" d="M90.23,130.38a4.39,4.39,0,0,1-1.56-.78.77.77,0,0,1-.32-.67.85.85,0,0,1,.17-.51.55.55,0,0,1,.41-.22,1.18,1.18,0,0,1,.58.2,4.2,4.2,0,0,0,1.25.63,5.16,5.16,0,0,0,1.46.19,2.82,2.82,0,0,0,1.56-.35,1.16,1.16,0,0,0,.55-1,.89.89,0,0,0-.51-.82,7,7,0,0,0-1.7-.55,9.73,9.73,0,0,1-2-.62A2.83,2.83,0,0,1,89,125a2.33,2.33,0,0,1-.39-1.39,2.6,2.6,0,0,1,.49-1.55,3.34,3.34,0,0,1,1.36-1.07,4.94,4.94,0,0,1,2-.38,4.85,4.85,0,0,1,3.25,1.06,1.13,1.13,0,0,1,.26.3.81.81,0,0,1,.08.37.76.76,0,0,1-.18.51.49.49,0,0,1-.41.22.75.75,0,0,1-.26,0,1.85,1.85,0,0,1-.31-.16,5.45,5.45,0,0,0-1.11-.62,3.9,3.9,0,0,0-1.32-.2,2.66,2.66,0,0,0-1.51.38,1.26,1.26,0,0,0-.55,1.07,1,1,0,0,0,.49.88,5.68,5.68,0,0,0,1.66.58,10.42,10.42,0,0,1,2,.62,3,3,0,0,1,1.19.87,2.15,2.15,0,0,1,.41,1.33,2.53,2.53,0,0,1-.48,1.53,3.09,3.09,0,0,1-1.35,1,5.11,5.11,0,0,1-2,.37A7,7,0,0,1,90.23,130.38Z"/><path class="cls-4" d="M98.76,129.62a4.15,4.15,0,0,1-1.05-3.06v-5a.88.88,0,0,1,.24-.65.86.86,0,0,1,.64-.24.84.84,0,0,1,.64.24.88.88,0,0,1,.24.65v5.14a2.73,2.73,0,0,0,.6,1.92,2.26,2.26,0,0,0,1.76.65,2.24,2.24,0,0,0,1.75-.65,2.76,2.76,0,0,0,.6-1.92v-5.14a.88.88,0,0,1,.24-.65,1,1,0,0,1,1.28,0,.88.88,0,0,1,.24.65v5a3.68,3.68,0,0,1-4.11,4.1A4.19,4.19,0,0,1,98.76,129.62Z"/><path class="cls-4" d="M116.06,129.9a.67.67,0,0,1-.26.53.94.94,0,0,1-.61.21.88.88,0,0,1-.42-.11.94.94,0,0,1-.35-.31l-1.85-2.83a2,2,0,0,0-.6-.63,1.63,1.63,0,0,0-.82-.18h-1.37v3.13a.91.91,0,0,1-.23.67.88.88,0,0,1-.65.24.9.9,0,0,1-.65-.24.92.92,0,0,1-.24-.67v-8.17a.85.85,0,0,1,.23-.63.87.87,0,0,1,.64-.22h3.49a3.86,3.86,0,0,1,2.55.74,3.08,3.08,0,0,1,.22,4,3.05,3.05,0,0,1-1.83,1,1.8,1.8,0,0,1,.71.34,3.62,3.62,0,0,1,.6.7l1.27,2A.88.88,0,0,1,116.06,129.9Zm-2.45-5.08a1.7,1.7,0,0,0,0-2.37,2.45,2.45,0,0,0-1.49-.37h-2.35v3.12h2.35A2.38,2.38,0,0,0,113.61,124.82Z"/><path class="cls-4" d="M118,130.37a.89.89,0,0,1-.25-.66v-8.17a.85.85,0,0,1,.23-.63.89.89,0,0,1,.64-.22h4.9c.57,0,.85.24.85.72s-.28.72-.85.72h-4v2.68h3.71c.57,0,.86.24.86.73s-.29.71-.86.71H119.5v3.46a.92.92,0,0,1-.24.66.83.83,0,0,1-.64.25A.85.85,0,0,1,118,130.37Z"/><path class="cls-4" d="M127.4,130.05a4.11,4.11,0,0,1-1.64-1.76,6.48,6.48,0,0,1,0-5.36,4.08,4.08,0,0,1,1.64-1.75,4.89,4.89,0,0,1,2.49-.62,5.47,5.47,0,0,1,1.74.27,4.42,4.42,0,0,1,1.43.79.79.79,0,0,1,.26.3,1,1,0,0,1,.07.37.81.81,0,0,1-.17.52.51.51,0,0,1-.41.21,1,1,0,0,1-.57-.2,4.39,4.39,0,0,0-1.12-.62A3.69,3.69,0,0,0,130,122a2.66,2.66,0,0,0-2.2.91,4.09,4.09,0,0,0-.75,2.67,4.14,4.14,0,0,0,.75,2.68,2.69,2.69,0,0,0,2.2.91,3.08,3.08,0,0,0,1.11-.19,5.21,5.21,0,0,0,1.15-.61,1.83,1.83,0,0,1,.28-.14.72.72,0,0,1,.29-.06.51.51,0,0,1,.41.21.83.83,0,0,1,.17.52,1.06,1.06,0,0,1-.07.37.72.72,0,0,1-.26.3,4.24,4.24,0,0,1-1.43.79,5.47,5.47,0,0,1-1.74.27A4.89,4.89,0,0,1,127.4,130.05Z"/><path class="cls-4" d="M135.19,130.31a.8.8,0,0,1-.22-.61v-8.19a.93.93,0,0,1,1.55-.65.85.85,0,0,1,.25.65v7.55h3.93c.55,0,.83.24.83.74s-.28.74-.83.74h-4.88A.85.85,0,0,1,135.19,130.31Z"/><path class="cls-4" d="M143.32,129.62a4.15,4.15,0,0,1-1-3.06v-5a.88.88,0,0,1,.24-.65.86.86,0,0,1,.64-.24.81.81,0,0,1,.88.89v5.14a2.68,2.68,0,0,0,.61,1.92,2.68,2.68,0,0,0,3.5,0,2.76,2.76,0,0,0,.6-1.92v-5.14a.88.88,0,0,1,.24-.65.86.86,0,0,1,.64-.24.81.81,0,0,1,.88.89v5a3.67,3.67,0,0,1-4.1,4.1A4.2,4.2,0,0,1,143.32,129.62Z"/><path class="cls-4" d="M160,126.32a2.52,2.52,0,0,1,.47,1.54,2.39,2.39,0,0,1-.9,2,4,4,0,0,1-2.49.71h-3.6a.9.9,0,0,1-.64-.23.81.81,0,0,1-.23-.62v-8.15a.85.85,0,0,1,.23-.63.89.89,0,0,1,.64-.22h3.47a3.88,3.88,0,0,1,2.41.67,2.48,2.48,0,0,1,.46,3.25,2.38,2.38,0,0,1-1.14.84A2.38,2.38,0,0,1,160,126.32Zm-5.63-1.48h2.28c1.24,0,1.86-.46,1.86-1.39a1.18,1.18,0,0,0-.46-1,2.4,2.4,0,0,0-1.4-.34h-2.28Zm3.94,3.95a1.28,1.28,0,0,0,.45-1.09,1.33,1.33,0,0,0-.45-1.1,2.3,2.3,0,0,0-1.42-.37h-2.52v2.91h2.52A2.31,2.31,0,0,0,158.27,128.79Z"/></g></svg>