<?xml version="1.0" encoding="utf-8"?>
<!-- Generator: Adobe Illustrator 24.1.0, SVG Export Plug-In . SVG Version: 6.00 Build 0)  -->
<svg version="1.1" xmlns="http://www.w3.org/2000/svg" xmlns:xlink="http://www.w3.org/1999/xlink" x="0px" y="0px"
	 viewBox="0 0 208.32 153.07" style="enable-background:new 0 0 208.32 153.07;" xml:space="preserve">
<style type="text/css">
	.st0{display:none;}
	.st1{display:inline;fill:#FFFFFF;}
	.st2{fill:#FFC800;}
	.st3{fill:#00AFCD;}
	.st4{fill:#E73353;}
	.st5{fill:#292457;}
</style>
<g id="Achtergrond" class="st0">
	<rect class="st1" width="208.32" height="153.07"/>
</g>
<g id="Logo">
	<g>
		<g>
			<path class="st2" d="M78.79,63.24c-1.87-3.77-2.91-8.01-2.91-12.5c0-15.65,12.69-28.33,28.33-28.33c4.33,0,8.44,0.97,12.11,2.72
				C105.77,28.21,81.98,37.92,78.79,63.24z"/>
			<path class="st3" d="M116.7,76.17c-3.77,1.86-8,2.9-12.48,2.9c-7.87,0-14.99-3.21-20.12-8.39c4.68-2.39,11.68-4.24,18.04,0.78
				C107.84,75.99,113.05,76.6,116.7,76.17z"/>
			<path class="st4" d="M132.55,50.79c-0.08,8.97-4.32,16.92-10.87,22.04l-0.09-44.68C128.33,33.38,132.64,41.59,132.55,50.79z"/>
		</g>
		<g>
			<g>
				<path class="st5" d="M39.35,87.45h-6.61l-10.32,27.72h6.33l1.95-5.54h10.7l1.91,5.54h6.33L39.41,87.6L39.35,87.45z
					 M39.74,104.97H32.3l3.72-10.66L39.74,104.97z"/>
			</g>
			<g>
				<rect x="52.02" y="85.81" class="st5" width="5.98" height="29.35"/>
			</g>
			<g>
				<rect x="62.51" y="85.81" class="st5" width="5.98" height="29.35"/>
			</g>
			<g>
				<path class="st5" d="M88.68,94.15c-1.63-0.9-3.55-1.36-5.71-1.36c-2.14,0-4.07,0.46-5.73,1.36c-1.67,0.9-2.99,2.23-3.92,3.94
					c-0.93,1.7-1.39,3.73-1.39,6.03c0,2.3,0.47,4.32,1.39,6.01c0.93,1.7,2.25,3.02,3.92,3.94c1.67,0.91,3.6,1.38,5.73,1.38
					c1.82,0,3.5-0.35,5-1.04c1.5-0.69,2.74-1.66,3.7-2.88c0.96-1.22,1.59-2.62,1.88-4.16l0.05-0.28H87.3l-0.04,0.19
					c-0.22,1-0.74,1.81-1.53,2.4c-0.8,0.59-1.82,0.89-3.04,0.89c-1.36,0-2.51-0.44-3.43-1.3c-0.84-0.79-1.36-2.21-1.47-4.02h15.79
					l0.04-0.19c0.14-0.67,0.2-1.16,0.2-1.75c0-2.01-0.45-3.83-1.34-5.4C91.59,96.31,90.31,95.05,88.68,94.15z M79.38,98.91
					c0.96-0.87,2.17-1.3,3.59-1.3c1.39,0,2.57,0.44,3.53,1.3c0.93,0.85,1.35,1.92,1.32,3.45H77.8
					C77.93,100.83,78.42,99.76,79.38,98.91z"/>
			</g>
			<g>
				<path class="st5" d="M124.99,92.75c-1.7,0-3.26,0.45-4.64,1.35c-1.23,0.8-2.2,1.86-2.89,3.17c-0.66-1.37-1.6-2.46-2.79-3.23
					c-1.32-0.85-2.89-1.29-4.68-1.29c-1.68,0-3.17,0.4-4.44,1.19c-0.98,0.61-1.77,1.42-2.35,2.43v-3.3h-5.98v22.1h5.98v-11.71
					c0-1.78,0.44-3.14,1.3-4.05c0.86-0.91,2.04-1.37,3.49-1.37c1.41,0,2.52,0.43,3.32,1.27c0.8,0.85,1.2,2.09,1.2,3.68v12.18h5.94
					v-11.71c0-1.78,0.44-3.14,1.3-4.05c0.86-0.91,2.03-1.37,3.49-1.37c1.41,0,2.52,0.43,3.32,1.27c0.8,0.85,1.2,2.09,1.2,3.68v12.18
					h5.94v-12.8c0-3.04-0.79-5.42-2.35-7.09C129.83,93.6,127.67,92.75,124.99,92.75z"/>
			</g>
			<g>
				<path class="st5" d="M154.02,96.7c-0.57-1.04-1.38-1.91-2.4-2.58v0c-1.33-0.88-2.95-1.33-4.81-1.33c-1.86,0-3.55,0.46-5.04,1.36
					c-1.49,0.9-2.67,2.23-3.51,3.94c-0.83,1.7-1.25,3.73-1.25,6.02c0,2.29,0.42,4.31,1.25,6.02c0.84,1.71,2.02,3.04,3.51,3.94
					c1.49,0.9,3.18,1.36,5.04,1.36c1.86,0,3.48-0.45,4.82-1.35c1.02-0.68,1.83-1.56,2.4-2.6v3.67h5.94v-22.1h-5.94V96.7z
					 M152.46,99.69c1.03,1.08,1.55,2.57,1.55,4.42c0,1.83-0.52,3.3-1.55,4.38c-1.03,1.08-2.35,1.62-3.94,1.62
					c-1.64,0-2.97-0.53-3.96-1.58c-0.99-1.05-1.5-2.54-1.5-4.42s0.5-3.37,1.5-4.44c0.99-1.06,2.32-1.6,3.96-1.6
					C150.11,98.07,151.44,98.62,152.46,99.69z"/>
			</g>
			<g>
				<path class="st5" d="M183.74,95.29L183.74,95.29c-1.52-1.68-3.59-2.54-6.15-2.54c-1.75,0-3.33,0.43-4.67,1.27
					c-1.04,0.65-1.87,1.51-2.46,2.56v-3.51h-5.98v22.1h5.98v-11.71c0-1.83,0.45-3.24,1.34-4.21c0.89-0.96,2.09-1.44,3.57-1.44
					c1.46,0,2.62,0.45,3.45,1.35c0.84,0.9,1.26,2.19,1.26,3.84v12.18h5.94v-12.8C186.02,99.35,185.26,96.97,183.74,95.29z"/>
			</g>
		</g>
		<g>
			<path class="st5" d="M61.1,120.74c0.14-0.09,0.31-0.14,0.48-0.14c0.22,0,0.42,0.07,0.58,0.21c0.16,0.14,0.24,0.33,0.24,0.56
				c0,0.08-0.02,0.21-0.07,0.36l-3,8.31c-0.07,0.19-0.2,0.33-0.37,0.43c-0.17,0.1-0.36,0.15-0.57,0.15s-0.4-0.05-0.57-0.15
				c-0.18-0.1-0.3-0.25-0.36-0.43l-2.32-6.58l-2.36,6.58c-0.08,0.19-0.2,0.33-0.37,0.43c-0.17,0.1-0.36,0.15-0.57,0.15
				s-0.39-0.05-0.57-0.15c-0.17-0.1-0.29-0.25-0.36-0.43l-3-8.31c-0.05-0.14-0.07-0.26-0.07-0.36c0-0.23,0.09-0.42,0.26-0.56
				c0.17-0.14,0.38-0.21,0.61-0.21c0.19,0,0.35,0.05,0.5,0.14c0.15,0.09,0.26,0.23,0.32,0.42l2.38,6.83l2.45-6.79
				c0.07-0.19,0.17-0.33,0.32-0.44c0.15-0.11,0.31-0.16,0.49-0.16s0.34,0.05,0.5,0.16c0.15,0.11,0.26,0.26,0.33,0.45l2.38,6.86
				l2.42-6.92C60.86,120.97,60.96,120.84,61.1,120.74z"/>
			<path class="st5" d="M64.19,130.37c-0.16-0.17-0.24-0.39-0.24-0.66v-8.2c0-0.27,0.08-0.49,0.24-0.65
				c0.16-0.16,0.38-0.24,0.65-0.24c0.28,0,0.5,0.08,0.66,0.24c0.16,0.16,0.25,0.38,0.25,0.65v8.2c0,0.27-0.08,0.49-0.25,0.66
				c-0.16,0.17-0.38,0.25-0.66,0.25C64.57,130.62,64.36,130.54,64.19,130.37z"/>
			<path class="st5" d="M75.96,120.86c0.15,0.16,0.23,0.38,0.23,0.65v8.2c0,0.27-0.08,0.49-0.24,0.66
				c-0.16,0.17-0.36,0.25-0.62,0.25c-0.3,0-0.53-0.11-0.68-0.32l-5.1-6.64v6.05c0,0.27-0.08,0.49-0.22,0.66
				c-0.15,0.17-0.35,0.25-0.62,0.25s-0.47-0.08-0.62-0.25c-0.15-0.17-0.22-0.39-0.22-0.66v-8.2c0-0.27,0.08-0.49,0.24-0.65
				c0.16-0.16,0.37-0.24,0.63-0.24c0.29,0,0.51,0.11,0.67,0.32l5.09,6.61v-6.04c0-0.27,0.08-0.49,0.23-0.65
				c0.15-0.16,0.36-0.24,0.61-0.24C75.6,120.62,75.81,120.7,75.96,120.86z"/>
			<path class="st5" d="M78.54,130.31c-0.15-0.15-0.23-0.36-0.23-0.63v-8.15c0-0.27,0.08-0.48,0.23-0.63
				c0.15-0.15,0.37-0.22,0.64-0.22h2.77c1.61,0,2.86,0.43,3.75,1.29c0.89,0.86,1.33,2.07,1.33,3.63c0,1.56-0.45,2.78-1.33,3.64
				c-0.89,0.86-2.14,1.29-3.75,1.29h-2.77C78.91,130.54,78.7,130.46,78.54,130.31z M85.23,125.61c0-2.3-1.13-3.45-3.4-3.45h-1.72
				v6.92h1.72C84.1,129.07,85.23,127.92,85.23,125.61z"/>
			<path class="st5" d="M90.23,130.38c-0.64-0.19-1.16-0.45-1.56-0.78c-0.21-0.16-0.32-0.38-0.32-0.67c0-0.2,0.06-0.37,0.17-0.51
				s0.25-0.22,0.41-0.22c0.17,0,0.36,0.07,0.57,0.2c0.4,0.29,0.82,0.5,1.26,0.63c0.44,0.13,0.92,0.2,1.45,0.2
				c0.68,0,1.2-0.12,1.57-0.36s0.54-0.58,0.54-1.04c0-0.35-0.17-0.63-0.51-0.82c-0.34-0.19-0.91-0.38-1.7-0.55
				c-0.82-0.18-1.49-0.38-2-0.62c-0.51-0.23-0.9-0.53-1.16-0.89s-0.39-0.82-0.39-1.38c0-0.58,0.16-1.09,0.49-1.55
				c0.33-0.46,0.78-0.81,1.36-1.07c0.58-0.26,1.24-0.38,1.96-0.38c1.33,0,2.42,0.35,3.26,1.06c0.12,0.1,0.21,0.2,0.26,0.3
				c0.05,0.1,0.08,0.22,0.08,0.37c0,0.2-0.06,0.37-0.17,0.51c-0.12,0.14-0.25,0.22-0.41,0.22c-0.09,0-0.18-0.01-0.26-0.04
				c-0.08-0.03-0.18-0.08-0.31-0.15c-0.38-0.28-0.75-0.49-1.11-0.62c-0.36-0.13-0.8-0.2-1.32-0.2c-0.63,0-1.13,0.13-1.5,0.38
				c-0.37,0.26-0.55,0.61-0.55,1.07c0,0.38,0.16,0.68,0.49,0.88c0.33,0.21,0.88,0.4,1.66,0.57c0.83,0.19,1.5,0.39,2.02,0.62
				c0.52,0.23,0.91,0.52,1.19,0.87c0.27,0.35,0.41,0.8,0.41,1.33c0,0.58-0.16,1.09-0.48,1.53c-0.32,0.44-0.77,0.79-1.36,1.03
				c-0.58,0.25-1.25,0.37-2.01,0.37C91.54,130.66,90.86,130.57,90.23,130.38z"/>
			<path class="st5" d="M98.76,129.62c-0.7-0.7-1.05-1.72-1.05-3.06v-5.04c0-0.27,0.08-0.49,0.24-0.65
				c0.16-0.16,0.37-0.24,0.64-0.24c0.27,0,0.48,0.08,0.64,0.24c0.16,0.16,0.24,0.38,0.24,0.65v5.14c0,0.85,0.2,1.49,0.6,1.92
				c0.4,0.43,0.99,0.65,1.76,0.65c0.76,0,1.35-0.22,1.75-0.66c0.4-0.44,0.6-1.08,0.6-1.91v-5.14c0-0.27,0.08-0.49,0.24-0.65
				c0.16-0.16,0.37-0.24,0.64-0.24s0.48,0.08,0.64,0.24c0.16,0.16,0.24,0.38,0.24,0.65v5.04c0,1.33-0.35,2.35-1.05,3.05
				c-0.7,0.7-1.72,1.06-3.06,1.06C100.48,130.66,99.46,130.31,98.76,129.62z"/>
			<path class="st5" d="M116.06,129.9c0,0.21-0.09,0.39-0.26,0.53c-0.17,0.14-0.38,0.21-0.61,0.21c-0.15,0-0.29-0.04-0.43-0.1
				c-0.13-0.07-0.25-0.17-0.34-0.31l-1.86-2.82c-0.19-0.3-0.38-0.51-0.59-0.63c-0.21-0.12-0.48-0.18-0.82-0.18h-1.37v3.13
				c0,0.28-0.08,0.5-0.24,0.66c-0.16,0.16-0.37,0.25-0.64,0.25c-0.27,0-0.49-0.08-0.65-0.25c-0.16-0.16-0.24-0.38-0.24-0.66v-8.17
				c0-0.27,0.08-0.48,0.23-0.63c0.15-0.15,0.37-0.22,0.64-0.22h3.49c1.12,0,1.97,0.25,2.55,0.75c0.58,0.5,0.87,1.22,0.87,2.16
				c0,0.76-0.22,1.39-0.65,1.88c-0.43,0.49-1.05,0.8-1.84,0.94c0.27,0.06,0.51,0.18,0.71,0.35c0.2,0.17,0.41,0.4,0.6,0.7l1.27,1.94
				C116,129.57,116.06,129.74,116.06,129.9z M113.61,124.82c0.32-0.26,0.47-0.65,0.47-1.18c0-0.54-0.16-0.93-0.47-1.18
				c-0.32-0.25-0.82-0.37-1.5-0.37h-2.35v3.12h2.35C112.8,125.2,113.3,125.07,113.61,124.82z"/>
			<path class="st5" d="M117.97,130.37c-0.16-0.17-0.24-0.39-0.24-0.66v-8.17c0-0.27,0.08-0.48,0.23-0.63
				c0.15-0.15,0.37-0.22,0.64-0.22h4.9c0.57,0,0.85,0.24,0.85,0.73c0,0.47-0.28,0.71-0.85,0.71h-4v2.68h3.72
				c0.57,0,0.85,0.24,0.85,0.73c0,0.48-0.28,0.71-0.85,0.71h-3.72v3.47c0,0.27-0.08,0.49-0.24,0.66c-0.16,0.17-0.37,0.25-0.64,0.25
				C118.35,130.62,118.13,130.54,117.97,130.37z"/>
			<path class="st5" d="M127.4,130.05c-0.71-0.41-1.26-1-1.64-1.76s-0.57-1.66-0.57-2.68c0-1.03,0.19-1.92,0.57-2.68
				c0.38-0.76,0.93-1.34,1.64-1.75c0.71-0.41,1.54-0.61,2.49-0.61c0.62,0,1.19,0.09,1.73,0.27c0.54,0.18,1.02,0.45,1.44,0.79
				c0.12,0.09,0.21,0.19,0.25,0.29s0.07,0.23,0.07,0.38c0,0.21-0.06,0.38-0.17,0.52c-0.11,0.14-0.25,0.21-0.41,0.21
				c-0.19,0-0.38-0.06-0.57-0.2c-0.4-0.3-0.77-0.5-1.12-0.62c-0.34-0.12-0.73-0.17-1.15-0.17c-0.97,0-1.7,0.3-2.2,0.91
				c-0.5,0.61-0.75,1.5-0.75,2.67c0,1.18,0.25,2.08,0.75,2.68s1.23,0.91,2.2,0.91c0.4,0,0.77-0.06,1.11-0.18
				c0.34-0.12,0.72-0.33,1.15-0.61c0.09-0.06,0.19-0.1,0.28-0.14c0.09-0.04,0.19-0.06,0.29-0.06c0.16,0,0.29,0.07,0.41,0.21
				c0.11,0.14,0.17,0.31,0.17,0.52c0,0.14-0.02,0.26-0.07,0.37c-0.05,0.11-0.13,0.21-0.25,0.3c-0.42,0.34-0.9,0.61-1.44,0.79
				c-0.54,0.18-1.12,0.27-1.73,0.27C128.94,130.66,128.11,130.46,127.4,130.05z"/>
			<path class="st5" d="M135.19,130.31c-0.15-0.15-0.22-0.35-0.22-0.62v-8.19c0-0.27,0.08-0.49,0.24-0.65
				c0.16-0.16,0.38-0.24,0.65-0.24c0.28,0,0.5,0.08,0.66,0.24c0.16,0.16,0.25,0.38,0.25,0.65v7.55h3.93c0.56,0,0.84,0.25,0.84,0.74
				c0,0.49-0.28,0.74-0.84,0.74h-4.88C135.55,130.54,135.34,130.46,135.19,130.31z"/>
			<path class="st5" d="M143.32,129.62c-0.7-0.7-1.05-1.72-1.05-3.06v-5.04c0-0.27,0.08-0.49,0.24-0.65
				c0.16-0.16,0.37-0.24,0.64-0.24c0.27,0,0.48,0.08,0.64,0.24c0.16,0.16,0.24,0.38,0.24,0.65v5.14c0,0.85,0.2,1.49,0.6,1.92
				c0.4,0.43,0.99,0.65,1.76,0.65c0.76,0,1.35-0.22,1.75-0.66c0.4-0.44,0.6-1.08,0.6-1.91v-5.14c0-0.27,0.08-0.49,0.24-0.65
				c0.16-0.16,0.37-0.24,0.64-0.24s0.48,0.08,0.64,0.24c0.16,0.16,0.24,0.38,0.24,0.65v5.04c0,1.33-0.35,2.35-1.05,3.05
				c-0.7,0.7-1.72,1.06-3.06,1.06C145.04,130.66,144.02,130.31,143.32,129.62z"/>
			<path class="st5" d="M159.96,126.32c0.31,0.42,0.47,0.93,0.47,1.54c0,0.84-0.3,1.5-0.9,1.97c-0.6,0.48-1.43,0.71-2.48,0.71h-3.61
				c-0.27,0-0.48-0.07-0.64-0.22c-0.15-0.15-0.23-0.36-0.23-0.63v-8.15c0-0.27,0.08-0.48,0.23-0.63c0.15-0.15,0.37-0.22,0.64-0.22
				h3.47c1.02,0,1.83,0.23,2.41,0.68c0.58,0.45,0.87,1.08,0.87,1.89c0,0.52-0.14,0.97-0.41,1.36s-0.65,0.66-1.14,0.84
				C159.21,125.61,159.65,125.9,159.96,126.32z M154.33,124.84h2.28c1.24,0,1.86-0.46,1.86-1.38c0-0.47-0.15-0.81-0.46-1.03
				s-0.77-0.33-1.4-0.33h-2.28V124.84z M158.27,128.79c0.3-0.23,0.45-0.6,0.45-1.09c0-0.49-0.15-0.86-0.45-1.1s-0.78-0.36-1.42-0.36
				h-2.51v2.91h2.51C157.5,129.14,157.98,129.02,158.27,128.79z"/>
		</g>
	</g>
</g>
</svg>
