<?xml version="1.0" encoding="utf-8"?>
<!-- Generator: Adobe Illustrator 24.1.0, SVG Export Plug-In . SVG Version: 6.00 Build 0)  -->
<svg version="1.1" id="Laag_1" xmlns="http://www.w3.org/2000/svg" xmlns:xlink="http://www.w3.org/1999/xlink" x="0px" y="0px"
	 viewBox="0 0 283.46 283.46" style="enable-background:new 0 0 283.46 283.46;" xml:space="preserve">
<style type="text/css">
	.st0{fill:#222221;}
</style>
<g>
	<path class="st0" d="M50.12,186.77c-6.72-13.57-10.47-28.85-10.47-45.04c0-56.38,45.72-102.06,102.06-102.06
		c15.61,0,30.4,3.49,43.62,9.79C147.34,60.57,61.62,95.53,50.12,186.77z"/>
	<path class="st0" d="M186.69,233.36c-13.57,6.69-28.82,10.44-44.97,10.44c-28.33,0-53.99-11.57-72.47-30.21
		c16.87-8.59,42.07-15.28,64.97,2.81C154.8,232.71,173.57,234.91,186.69,233.36z"/>
	<path class="st0" d="M243.81,141.92c-0.3,32.31-15.56,60.95-39.16,79.41l-0.33-160.97C228.6,79.19,244.12,108.77,243.81,141.92z"/>
</g>
</svg>
