<?xml version="1.0" encoding="utf-8"?>
<!-- Generator: Adobe Illustrator 24.1.0, SVG Export Plug-In . SVG Version: 6.00 Build 0)  -->
<svg version="1.1" id="Laag_1" xmlns="http://www.w3.org/2000/svg" xmlns:xlink="http://www.w3.org/1999/xlink" x="0px" y="0px"
	 viewBox="0 0 820 312" style="enable-background:new 0 0 820 312;" xml:space="preserve">
<style type="text/css">
	.st0{fill:none;stroke:#50ADC9;stroke-width:2.8346;stroke-miterlimit:10;}
	.st1{fill:#50ADC9;}
	.st2{fill:#C73753;}
	.st3{fill:#FFFFFF;}
	.st4{fill:#2C2957;}
	.st5{fill:#F0C728;}
</style>
<rect y="0" class="st1" width="820" height="312"/>
<path class="st2" d="M142.15,18.2c-0.13,9.24-4.53,17.42-11.31,22.66l0.12-46.05C137.88,0.23,142.28,8.72,142.15,18.2z"/>
<path class="st2" d="M318.85,147.27c-0.13,9.24-4.53,17.42-11.31,22.66l0.12-46.05C314.58,129.31,318.98,137.79,318.85,147.27z"/>
<path class="st3" d="M40.61,192.1c-0.15,10.81-5.3,20.37-13.22,26.51l0.14-53.85C35.61,171.09,40.76,181.01,40.61,192.1z"/>
<path class="st3" d="M309.93,294.74c-0.13,9.43-4.63,17.78-11.54,23.14l0.12-47.01C305.58,276.4,310.07,285.06,309.93,294.74z"/>
<path class="st3" d="M678.54,237.47c-0.13,9.43-4.63,17.78-11.54,23.14l0.12-47.01C674.18,219.13,678.68,227.79,678.54,237.47z"/>
<path class="st4" d="M462.44,21.53c-0.13,9.12-4.47,17.18-11.15,22.36l0.12-45.42C458.23,3.81,462.58,12.17,462.44,21.53z"/>
<path class="st2" d="M545.39,124.17c-0.1,7.16-3.51,13.49-8.76,17.56l0.09-35.68C542.09,110.25,545.5,116.82,545.39,124.17z"/>
<path class="st5" d="M609.29,170.22c-0.1,7.16-3.51,13.49-8.76,17.56l0.09-35.68C605.98,156.3,609.39,162.87,609.29,170.22z"/>
<circle class="st4" cx="50.56" cy="53.46" r="9.95"/>
<circle class="st4" cx="466.81" cy="115.54" r="9.95"/>
<circle class="st3" cx="294.74" cy="65.12" r="6.76"/>
<circle class="st4" cx="188.69" cy="75.78" r="6.76"/>
<circle class="st5" cx="483.52" cy="182.59" r="6.76"/>
<circle class="st3" cx="534.25" cy="271.27" r="6.76"/>
<circle class="st3" cx="391.73" cy="146.91" r="6.76"/>
<circle class="st4" cx="632.89" cy="100.57" r="6.76"/>
<circle class="st2" cx="398.49" cy="75.78" r="6.76"/>
<circle class="st4" cx="175.17" cy="243.86" r="6.76"/>
<circle class="st5" cx="110.06" cy="225.49" r="6.76"/>
<circle class="st3" cx="123.58" cy="285.73" r="6.76"/>
<path class="st5" d="M69.87,119.94c-0.11,7.66-3.75,14.43-9.37,18.77l0.1-38.14C66.33,105.06,69.98,112.09,69.87,119.94z"/>
<path class="st5" d="M251.2,252.09c-0.11,7.66-3.75,14.43-9.37,18.77l0.1-38.14C247.66,237.21,251.31,244.24,251.2,252.09z"/>
<path class="st4" d="M409.8,219.52c-0.16,11.55-5.67,21.78-14.14,28.34l0.15-57.58C404.46,197.06,409.97,207.67,409.8,219.52z"/>
<path class="st2" d="M69.87,275.6c-0.11,7.66-3.75,14.43-9.37,18.77l0.1-38.14C66.33,260.72,69.98,267.74,69.87,275.6z"/>
<circle class="st5" cx="433.62" cy="278.5" r="7.23"/>
<circle class="st5" cx="335.59" cy="225.83" r="7.23"/>
<circle class="st5" cx="246.51" cy="28.4" r="7.23"/>
<circle class="st4" cx="570.34" cy="232.72" r="7.23"/>
<circle class="st2" cx="483.52" cy="243.86" r="7.23"/>
</svg>
