<svg id="Laag_1" data-name="Laag 1" xmlns="http://www.w3.org/2000/svg" viewBox="0 0 820 312"><defs><style>.cls-1{fill:#00afcd;}.cls-2{fill:#f03752;}.cls-3{fill:#fff;}.cls-4{fill:#261f5b;}.cls-5{fill:#ffc800;}</style></defs><rect class="cls-1" width="820" height="312"/><path class="cls-2" d="M142.15,18.2a29.08,29.08,0,0,1-11.31,22.66l.12-46A29.14,29.14,0,0,1,142.15,18.2Z"/><path class="cls-2" d="M318.85,147.27a29.1,29.1,0,0,1-11.31,22.67l.12-46A29.12,29.12,0,0,1,318.85,147.27Z"/><path class="cls-3" d="M40.61,192.1a34,34,0,0,1-13.23,26.51l.14-53.86A34.08,34.08,0,0,1,40.61,192.1Z"/><path class="cls-3" d="M309.93,294.74a29.71,29.71,0,0,1-11.54,23.14l.12-47A29.72,29.72,0,0,1,309.93,294.74Z"/><path class="cls-3" d="M678.54,237.47A29.74,29.74,0,0,1,667,260.61l.12-47A29.75,29.75,0,0,1,678.54,237.47Z"/><path class="cls-4" d="M462.44,21.53a28.68,28.68,0,0,1-11.15,22.35l.12-45.42A28.71,28.71,0,0,1,462.44,21.53Z"/><path class="cls-2" d="M545.39,124.17a22.55,22.55,0,0,1-8.76,17.56l.09-35.68A22.52,22.52,0,0,1,545.39,124.17Z"/><path class="cls-5" d="M609.29,170.22a22.55,22.55,0,0,1-8.76,17.56l.09-35.68A22.57,22.57,0,0,1,609.29,170.22Z"/><circle class="cls-4" cx="50.56" cy="53.46" r="9.95"/><circle class="cls-4" cx="466.81" cy="115.54" r="9.95"/><circle class="cls-3" cx="294.74" cy="65.12" r="6.76"/><circle class="cls-3" cx="115.01" cy="105.59" r="6.76"/><circle class="cls-4" cx="188.69" cy="75.78" r="6.76"/><circle class="cls-5" cx="483.52" cy="182.59" r="6.76"/><circle class="cls-3" cx="534.25" cy="271.27" r="6.76"/><circle class="cls-3" cx="391.73" cy="146.91" r="6.76"/><circle class="cls-4" cx="632.89" cy="100.57" r="6.76"/><circle class="cls-2" cx="398.49" cy="75.78" r="6.76"/><circle class="cls-4" cx="181.93" cy="247.86" r="6.76"/><circle class="cls-5" cx="101.54" cy="232.25" r="6.76"/><circle class="cls-3" cx="123.58" cy="285.73" r="6.76"/><path class="cls-5" d="M69.87,119.94a24.1,24.1,0,0,1-9.37,18.77l.1-38.14A24.13,24.13,0,0,1,69.87,119.94Z"/><path class="cls-5" d="M251.2,252.09a24.1,24.1,0,0,1-9.37,18.77l.1-38.14A24.13,24.13,0,0,1,251.2,252.09Z"/><path class="cls-4" d="M409.8,219.52a36.39,36.39,0,0,1-14.14,28.34l.15-57.58A36.42,36.42,0,0,1,409.8,219.52Z"/><path class="cls-2" d="M55.24,278.33a24.1,24.1,0,0,1-9.37,18.77L46,259A24.13,24.13,0,0,1,55.24,278.33Z"/><circle class="cls-5" cx="433.62" cy="278.5" r="7.23"/><circle class="cls-5" cx="335.59" cy="225.83" r="7.23"/><circle class="cls-5" cx="246.51" cy="28.4" r="7.23"/><circle class="cls-4" cx="570.34" cy="232.72" r="7.23"/><circle class="cls-2" cx="483.52" cy="243.86" r="7.23"/></svg>