<svg id="Laag_1" data-name="Laag 1" xmlns="http://www.w3.org/2000/svg" viewBox="0 0 225.41 247.63"><defs><style>.cls-1{fill:#50adc9;}.cls-2,.cls-4,.cls-5{font-size:26.94px;}.cls-2,.cls-4,.cls-5,.cls-8{fill:#261f5b;}.cls-2{font-family:Muli-ExtraBold, Muli ExtraBold;font-weight:800;}.cls-3{letter-spacing:-0.01em;}.cls-4,.cls-8{font-family:Muli-Bold, Muli;font-weight:700;}.cls-5{font-family:Rubik-Regular, Rubik;}.cls-6{letter-spacing:-0.01em;}.cls-7{letter-spacing:-0.02em;}.cls-8{font-size:11px;}.cls-9{letter-spacing:-0.01em;}.cls-10{letter-spacing:0.05em;}.cls-11{letter-spacing:0.01em;}.cls-12{letter-spacing:-0.01em;}.cls-13{letter-spacing:-0.01em;}.cls-14{letter-spacing:0em;}.cls-15{letter-spacing:0em;}.cls-16{letter-spacing:0em;}.cls-17{font-family:Muli-Regular, Muli;font-weight:400;}.cls-18{letter-spacing:0em;}.cls-19{letter-spacing:0em;}.cls-20{letter-spacing:0em;}.cls-21{letter-spacing:0.04em;}.cls-22{letter-spacing:0.01em;}.cls-23{letter-spacing:0.01em;}.cls-24{letter-spacing:0em;}.cls-25{letter-spacing:0em;}.cls-26{letter-spacing:-0.01em;}</style></defs><rect class="cls-1" width="225.41" height="247.63"/><text class="cls-2" transform="translate(14.44 39.24)">Muli Ext<tspan class="cls-3" x="103.38" y="0">r</tspan><tspan x="114.16" y="0">a Bold</tspan></text><text class="cls-4" transform="translate(14.44 65.58)">Muli Bold</text><text class="cls-5" transform="translate(14.44 91.22)">Muli <tspan class="cls-6" x="57.11" y="0">R</tspan><tspan x="74.56" y="0">egula</tspan><tspan class="cls-7" x="143.11" y="0">r</tspan></text><text class="cls-8" transform="translate(18.7 136.46)">Dit l<tspan class="cls-9" x="21.31" y="0">et</tspan><tspan x="31.35" y="0">te</tspan><tspan class="cls-10" x="41.55" y="0">r</tspan><tspan class="cls-11" x="46.37" y="0">t</tspan><tspan x="50.63" y="0">ype </tspan><tspan class="cls-12" x="72.47" y="0">w</tspan><tspan x="82.08" y="0">o</tspan><tspan class="cls-13" x="88.59" y="0">r</tspan><tspan x="92.79" y="0">dt gebrui</tspan><tspan class="cls-14" x="140.23" y="0">k</tspan><tspan class="cls-15" x="146.26" y="0">t </tspan><tspan class="cls-12" x="0" y="13.2">v</tspan><tspan x="5.87" y="13.2">oor alle lee</tspan><tspan class="cls-16" x="62.74" y="13.2">s</tspan><tspan x="68.2" y="13.2">te</tspan><tspan class="cls-9" x="78.4" y="13.2">k</tspan><tspan class="cls-16" x="84.38" y="13.2">s</tspan><tspan x="89.84" y="13.2">ten.</tspan><tspan class="cls-17"><tspan x="0" y="39.6">H</tspan><tspan class="cls-18" x="8.43" y="39.6">e</tspan><tspan x="14.38" y="39.6">t is een eigentijds l</tspan><tspan class="cls-19" x="107.61" y="39.6">e</tspan><tspan class="cls-20" x="113.57" y="39.6">t</tspan><tspan x="117.45" y="39.6">te</tspan><tspan class="cls-21" x="127.28" y="39.6">r</tspan><tspan class="cls-22" x="131.69" y="39.6">t</tspan><tspan x="135.61" y="39.6">ype </tspan><tspan x="0" y="52.8" xml:space="preserve">dat  mooi combinee</tspan><tspan class="cls-21" x="99.56" y="52.8">r</tspan><tspan x="103.97" y="52.8">t m</tspan><tspan class="cls-18" x="120.36" y="52.8">e</tspan><tspan x="126.31" y="52.8">t Rubi</tspan><tspan class="cls-23" x="156.22" y="52.8">k</tspan><tspan x="162.01" y="52.8">.</tspan><tspan x="0" y="79.2">De g</tspan><tspan class="cls-13" x="23.71" y="79.2">r</tspan><tspan x="27.58" y="79.2">o</tspan><tspan class="cls-24" x="33.87" y="79.2">o</tspan><tspan class="cls-25" x="40.15" y="79.2">t</tspan><tspan x="44.03" y="79.2">te hangt af </tspan><tspan class="cls-26" x="102.75" y="79.2">v</tspan><tspan x="108.52" y="79.2">an h</tspan><tspan class="cls-19" x="130.86" y="79.2">e</tspan><tspan x="136.82" y="79.2">t </tspan><tspan class="cls-22" x="0" y="92.4">t</tspan><tspan x="3.92" y="92.4">ype toepassing.</tspan><tspan x="0" y="105.6"> </tspan></tspan></text></svg>