<svg id="Laag_1" data-name="Laag 1" xmlns="http://www.w3.org/2000/svg" viewBox="0 0 225.41 247.63"><defs><style>.cls-1{fill:#50adc9;}.cls-2{isolation:isolate;}.cls-3{fill:#261f5b;}</style></defs><rect class="cls-1" width="225.41" height="247.63"/><g class="cls-2"><g class="cls-2"><path class="cls-3" d="M32.09,20.06H35.4V39.24H31.68V28.76L27.26,39.24H24.54L20.1,28.9V39.24H16.41V20.06h3.34L25.94,34.2Z"/><path class="cls-3" d="M52.05,25.58V39.24h-4v-2a4.46,4.46,0,0,1-1.7,1.64,4.89,4.89,0,0,1-2.37.57A4.87,4.87,0,0,1,40.19,38a6.36,6.36,0,0,1-1.26-4.31V25.58H43V33.8c0,1.65.71,2.48,2.12,2.48a2.62,2.62,0,0,0,2.05-.87A3.22,3.22,0,0,0,48,33.15V25.58Z"/><path class="cls-3" d="M55.33,39.24V19.41H59.4V39.24Z"/><path class="cls-3" d="M62.58,19.17h4.34V23H62.58Zm.14,20.07V25.58h4.06V39.24Z"/><path class="cls-3" d="M77.94,39.24V20.06H91.16v3.26H82v4.52H90.6v3.29H82V36h9.13v3.26Z"/><path class="cls-3" d="M102,32.21l5.77,7H103l-3.31-4.18-3.31,4.18H91.57l5.76-7-5.41-6.63h4.79l2.94,3.8,2.94-3.8h4.82Z"/><path class="cls-3" d="M113.93,28.63v5.3a2.09,2.09,0,0,0,.59,1.66,2.24,2.24,0,0,0,1.54.52,5.83,5.83,0,0,0,1.34-.18v3.15a6.44,6.44,0,0,1-2.34.38A5,5,0,0,1,111.19,38a5.65,5.65,0,0,1-1.33-4V28.63h-2.59V25.58h2.59v-3.2l4.07-1.32v4.52h3.47v3.05Z"/></g><g class="cls-2"><path class="cls-3" d="M128.87,25.53l0,3.71a4.84,4.84,0,0,0-2-.45,3.3,3.3,0,0,0-2.46.87,3.36,3.36,0,0,0-.85,2.44v7.14h-4.07V29.49a32.59,32.59,0,0,0-.21-3.91h3.82l.27,2.35A3.93,3.93,0,0,1,125,26a4.49,4.49,0,0,1,2.46-.69A3.52,3.52,0,0,1,128.87,25.53Z"/></g><g class="cls-2"><path class="cls-3" d="M143.93,25.58V39.24h-4v-2a4.29,4.29,0,0,1-1.76,1.64,5.35,5.35,0,0,1-2.56.6,5.63,5.63,0,0,1-5.26-3.33,8.54,8.54,0,0,1-.77-3.71,8.77,8.77,0,0,1,.77-3.74,6,6,0,0,1,2.14-2.55,5.59,5.59,0,0,1,3.12-.9,5.24,5.24,0,0,1,2.56.62,4.5,4.5,0,0,1,1.76,1.67V25.58Zm-4.82,9.75a4.68,4.68,0,0,0,.81-3,4.76,4.76,0,0,0-.81-3,3.11,3.11,0,0,0-4.66,0,4.77,4.77,0,0,0-.84,3,4.55,4.55,0,0,0,.82,2.93,2.89,2.89,0,0,0,2.36,1A2.78,2.78,0,0,0,139.11,35.33Z"/><path class="cls-3" d="M170,31a4.8,4.8,0,0,1,.92,3,4.62,4.62,0,0,1-1.81,3.84,7.74,7.74,0,0,1-4.9,1.41h-9.11V20.06h8.84a7.59,7.59,0,0,1,4.73,1.33A4.36,4.36,0,0,1,170.36,25a4.43,4.43,0,0,1-3,4.29A4.81,4.81,0,0,1,170,31Zm-10.8-3.15h4a4.23,4.23,0,0,0,2.41-.55,2,2,0,0,0,.8-1.71,2,2,0,0,0-.8-1.75,4.14,4.14,0,0,0-2.41-.57h-4Zm7,7.56a2.17,2.17,0,0,0,.77-1.85,2.22,2.22,0,0,0-.77-1.88,4,4,0,0,0-2.46-.6h-4.53V36h4.53A4.16,4.16,0,0,0,166.14,35.43Z"/><path class="cls-3" d="M176.24,38.59a5.92,5.92,0,0,1-2.5-2.48,7.69,7.69,0,0,1-.88-3.77,7.75,7.75,0,0,1,.88-3.77,6,6,0,0,1,2.5-2.48,8.11,8.11,0,0,1,3.81-.86,8,8,0,0,1,3.78.86,6.07,6.07,0,0,1,2.49,2.48,7.86,7.86,0,0,1,.87,3.77,7.8,7.8,0,0,1-.87,3.77,6,6,0,0,1-2.49,2.48,7.87,7.87,0,0,1-3.78.87A8,8,0,0,1,176.24,38.59Zm6.12-3.23a4.78,4.78,0,0,0,.79-3,4.78,4.78,0,0,0-.79-3,2.77,2.77,0,0,0-2.31-1,2.83,2.83,0,0,0-2.34,1,4.71,4.71,0,0,0-.81,3q0,4,3.15,4A2.77,2.77,0,0,0,182.36,35.36Z"/><path class="cls-3" d="M189.81,39.24V19.41h4.07V39.24Z"/><path class="cls-3" d="M210.87,19.41V39.24h-4v-2a4.27,4.27,0,0,1-1.75,1.64,5.4,5.4,0,0,1-2.56.6,5.6,5.6,0,0,1-3.13-.91A6,6,0,0,1,197.28,36a8.69,8.69,0,0,1-.77-3.73,8.46,8.46,0,0,1,.77-3.7,5.83,5.83,0,0,1,2.13-2.48,5.62,5.62,0,0,1,3.14-.88,5.35,5.35,0,0,1,2.5.58,4.34,4.34,0,0,1,1.76,1.6v-8Zm-4.82,15.91a4.74,4.74,0,0,0,.81-3,4.71,4.71,0,0,0-.82-3,2.78,2.78,0,0,0-2.31-1,2.86,2.86,0,0,0-2.34,1,4.46,4.46,0,0,0-.83,2.91,4.74,4.74,0,0,0,.83,3,2.82,2.82,0,0,0,2.34,1.07A2.77,2.77,0,0,0,206.05,35.32Z"/></g></g><g class="cls-2"><path class="cls-3" d="M32.46,46.4h2.75V65.58H32.14V53.67L27.05,65.58H24.76L19.64,53.81V65.58H16.57V46.4h2.75l6.6,15Z"/><path class="cls-3" d="M51.56,52v13.6H48.28v-2.1a4.4,4.4,0,0,1-1.73,1.72,5,5,0,0,1-2.48.6q-5,0-5-5.61V52h3.34v8.24A3.24,3.24,0,0,0,43,62.4a2.32,2.32,0,0,0,1.87.7,3,3,0,0,0,2.37-1,3.68,3.68,0,0,0,.89-2.58V52Z"/><path class="cls-3" d="M55.23,65.58V45.75h3.34V65.58Z"/><path class="cls-3" d="M62,45.81h3.75v3.31H62Zm.22,19.77V52H65.6v13.6Z"/><path class="cls-3" d="M91.28,57.36a4.83,4.83,0,0,1,.91,3,4.63,4.63,0,0,1-1.74,3.84,7.54,7.54,0,0,1-4.84,1.39h-8.7V46.4h8.43A7.34,7.34,0,0,1,90,47.73,4.81,4.81,0,0,1,90.91,54a4.58,4.58,0,0,1-2.2,1.63A4.71,4.71,0,0,1,91.28,57.36Zm-11-2.88h4.47q3.61,0,3.61-2.69a2.38,2.38,0,0,0-.89-2,4.48,4.48,0,0,0-2.72-.68H80.31ZM88,62.21a2.53,2.53,0,0,0,.87-2.13A2.64,2.64,0,0,0,88,57.9a4.48,4.48,0,0,0-2.76-.7H80.31v5.69h4.93A4.55,4.55,0,0,0,88,62.21Z"/><path class="cls-3" d="M97.78,64.93a5.88,5.88,0,0,1-2.43-2.46,8.74,8.74,0,0,1,0-7.52,5.88,5.88,0,0,1,2.43-2.46,7.41,7.41,0,0,1,3.65-.87,7.31,7.31,0,0,1,3.61.87A5.89,5.89,0,0,1,107.45,55a8.74,8.74,0,0,1,0,7.52A5.89,5.89,0,0,1,105,64.93a7.31,7.31,0,0,1-3.61.87A7.41,7.41,0,0,1,97.78,64.93ZM104,62a5.25,5.25,0,0,0,.9-3.33,5.26,5.26,0,0,0-.92-3.33,3.12,3.12,0,0,0-2.58-1.14,3.17,3.17,0,0,0-2.62,1.14,5.26,5.26,0,0,0-.91,3.33A5.25,5.25,0,0,0,98.8,62a3.16,3.16,0,0,0,2.6,1.11A3.19,3.19,0,0,0,104,62Z"/><path class="cls-3" d="M111.21,65.58V45.75h3.34V65.58Z"/><path class="cls-3" d="M131.25,45.75V65.58h-3.31V63.4a4.43,4.43,0,0,1-1.78,1.76,5.46,5.46,0,0,1-2.64.64,5.67,5.67,0,0,1-3.13-.89,6,6,0,0,1-2.14-2.52,8.69,8.69,0,0,1-.77-3.73,8.42,8.42,0,0,1,.76-3.69,5.65,5.65,0,0,1,5.28-3.35,5.54,5.54,0,0,1,2.6.61,4.33,4.33,0,0,1,1.76,1.71V45.75ZM127,62a5.15,5.15,0,0,0,.93-3.29,5.21,5.21,0,0,0-.92-3.29,3.11,3.11,0,0,0-2.59-1.15,3.19,3.19,0,0,0-2.62,1.14,5,5,0,0,0-.93,3.25,5.25,5.25,0,0,0,.93,3.31,3.11,3.11,0,0,0,2.6,1.18A3.15,3.15,0,0,0,127,62Z"/></g><g class="cls-2"><g class="cls-2"><path class="cls-3" d="M17,91.05a.61.61,0,0,1-.18-.45V73a.64.64,0,0,1,.16-.47.59.59,0,0,1,.46-.18H18.7a.69.69,0,0,1,.67.41l5.74,11,5.79-11a.7.7,0,0,1,.65-.41h1.26a.59.59,0,0,1,.46.18.64.64,0,0,1,.16.47V90.6a.58.58,0,0,1-.62.62H31.57a.58.58,0,0,1-.43-.17A.69.69,0,0,1,31,90.6V77.21l-4.61,8.92a.88.88,0,0,1-.86.56H24.7a.93.93,0,0,1-.86-.56l-4.58-8.92V90.6a.58.58,0,0,1-.62.62H17.43A.6.6,0,0,1,17,91.05Z"/><path class="cls-3" d="M39.09,89.83a6.6,6.6,0,0,1-1.4-4.4v-7.6a.6.6,0,0,1,.17-.44.61.61,0,0,1,.45-.18h1.24a.61.61,0,0,1,.62.62v7.46q0,4.09,3.55,4.1a3.59,3.59,0,0,0,2.74-1.09,4.28,4.28,0,0,0,1-3V77.83a.6.6,0,0,1,.17-.44.61.61,0,0,1,.45-.18h1.24a.59.59,0,0,1,.44.18.57.57,0,0,1,.18.44V90.6a.61.61,0,0,1-.18.45.62.62,0,0,1-.44.17H48.17a.58.58,0,0,1-.62-.62V89.39A5.13,5.13,0,0,1,45.72,91a6,6,0,0,1-2.67.53A4.88,4.88,0,0,1,39.09,89.83Z"/><path class="cls-3" d="M54.19,91.05A.61.61,0,0,1,54,90.6V72.71a.59.59,0,0,1,.18-.46.66.66,0,0,1,.44-.16h1.19a.61.61,0,0,1,.62.62V90.6a.61.61,0,0,1-.18.45.6.6,0,0,1-.44.17H54.63A.62.62,0,0,1,54.19,91.05Z"/><path class="cls-3" d="M60.44,74.4a.61.61,0,0,1-.18-.45v-1.4a.65.65,0,0,1,.18-.46.6.6,0,0,1,.44-.19h1.59a.64.64,0,0,1,.46.19.62.62,0,0,1,.19.46V74a.58.58,0,0,1-.19.45.67.67,0,0,1-.46.17H60.88A.62.62,0,0,1,60.44,74.4Zm.22,16.65a.61.61,0,0,1-.18-.45V77.83a.61.61,0,0,1,.62-.62h1.19a.6.6,0,0,1,.44.18.57.57,0,0,1,.17.44V90.6a.6.6,0,0,1-.17.45.64.64,0,0,1-.44.17H61.1A.6.6,0,0,1,60.66,91.05Z"/></g><g class="cls-2"><path class="cls-3" d="M74.08,91.05a.64.64,0,0,1-.16-.45V73a.64.64,0,0,1,.16-.47.55.55,0,0,1,.43-.18h6.58A7.34,7.34,0,0,1,85.9,73.8,5.16,5.16,0,0,1,87.63,78a5.34,5.34,0,0,1-1,3.37,5.29,5.29,0,0,1-2.86,1.83l4.15,7.19a.61.61,0,0,1,.08.3.55.55,0,0,1-.54.54H86.26a.93.93,0,0,1-.63-.19,1.49,1.49,0,0,1-.42-.54l-4-6.89h-4.8v7a.58.58,0,0,1-.19.45.64.64,0,0,1-.45.17h-1.3A.58.58,0,0,1,74.08,91.05ZM81,81.39q4.06,0,4.07-3.42T81,74.54H76.45v6.85Z"/></g><g class="cls-2"><path class="cls-3" d="M92.18,89.78a7,7,0,0,1-1.81-4.68l0-.91,0-.89a7,7,0,0,1,1.81-4.63,5.78,5.78,0,0,1,4.39-1.73,5.72,5.72,0,0,1,4.59,1.89A7.55,7.55,0,0,1,102.79,84v.48a.58.58,0,0,1-.62.62H92.83v.24a5,5,0,0,0,1.07,3,3.22,3.22,0,0,0,2.64,1.24A3.74,3.74,0,0,0,98.6,89a4.35,4.35,0,0,0,1.2-1,1.25,1.25,0,0,1,.38-.39,1,1,0,0,1,.46-.07h1.18a.68.68,0,0,1,.42.13.42.42,0,0,1,.18.35,2.42,2.42,0,0,1-.73,1.43,5.88,5.88,0,0,1-2.06,1.44,7.24,7.24,0,0,1-3.06.61A5.8,5.8,0,0,1,92.18,89.78Zm8.16-6.56v-.08a4.53,4.53,0,0,0-1-3.07,3.45,3.45,0,0,0-2.75-1.19,3.41,3.41,0,0,0-2.75,1.19,4.62,4.62,0,0,0-1,3.07v.08Z"/><path class="cls-3" d="M108.18,96.39a4.82,4.82,0,0,1-1.9-1.72,3.5,3.5,0,0,1-.55-1.67.55.55,0,0,1,.19-.42.59.59,0,0,1,.43-.17h1.18a.66.66,0,0,1,.41.12.88.88,0,0,1,.27.44,3.22,3.22,0,0,0,3.42,2.16,4.38,4.38,0,0,0,3-.87,3.9,3.9,0,0,0,1-3V89.36a5.23,5.23,0,0,1-4.36,2A5,5,0,0,1,107,89.52a7.65,7.65,0,0,1-1.5-4.63l0-.76,0-.72a7.69,7.69,0,0,1,1.5-4.62,5,5,0,0,1,4.27-1.85A5.23,5.23,0,0,1,115.64,79V77.86a.65.65,0,0,1,.18-.46.56.56,0,0,1,.44-.19h1.16a.58.58,0,0,1,.45.19.69.69,0,0,1,.17.46V90.92q0,6.22-6.28,6.23A7.35,7.35,0,0,1,108.18,96.39ZM114.55,88a5,5,0,0,0,1-3c0-.16,0-.48,0-1a9,9,0,0,0,0-.91,5,5,0,0,0-1-3A3.37,3.37,0,0,0,111.71,79a3.21,3.21,0,0,0-2.81,1.23,5.66,5.66,0,0,0-1,3.16l0,.7,0,.73a5.67,5.67,0,0,0,1,3.17,3.22,3.22,0,0,0,2.81,1.22A3.4,3.4,0,0,0,114.55,88Z"/><path class="cls-3" d="M123.38,89.83a6.55,6.55,0,0,1-1.41-4.4v-7.6a.57.57,0,0,1,.18-.44.59.59,0,0,1,.44-.18h1.24a.61.61,0,0,1,.45.18.6.6,0,0,1,.17.44v7.46q0,4.09,3.56,4.1a3.55,3.55,0,0,0,2.73-1.09,4.23,4.23,0,0,0,1-3V77.83a.61.61,0,0,1,.62-.62h1.24a.61.61,0,0,1,.45.18.6.6,0,0,1,.17.44V90.6a.58.58,0,0,1-.62.62h-1.16a.6.6,0,0,1-.44-.17.61.61,0,0,1-.18-.45V89.39A5.13,5.13,0,0,1,130,91a6,6,0,0,1-2.67.53A4.87,4.87,0,0,1,123.38,89.83Z"/><path class="cls-3" d="M138.47,91.05a.64.64,0,0,1-.17-.45V72.71a.62.62,0,0,1,.17-.46.69.69,0,0,1,.45-.16h1.18a.61.61,0,0,1,.45.18.57.57,0,0,1,.17.44V90.6a.6.6,0,0,1-.17.45.64.64,0,0,1-.45.17h-1.18A.64.64,0,0,1,138.47,91.05Z"/><path class="cls-3" d="M146.21,91a4.54,4.54,0,0,1-1.78-1.47,3.46,3.46,0,0,1-.66-2.06,3.54,3.54,0,0,1,1.45-2.91,8.54,8.54,0,0,1,4-1.51l4-.56v-.78c0-1.85-1.06-2.78-3.2-2.78a3.61,3.61,0,0,0-2,.5,3.13,3.13,0,0,0-1.1,1.17.94.94,0,0,1-.23.37.55.55,0,0,1-.34.09h-1a.62.62,0,0,1-.59-.59,2.56,2.56,0,0,1,.58-1.44,4.66,4.66,0,0,1,1.79-1.43,6.51,6.51,0,0,1,3-.61c2,0,3.46.47,4.33,1.4a5,5,0,0,1,1.31,3.5V90.6a.61.61,0,0,1-.18.45.64.64,0,0,1-.44.17h-1.19a.58.58,0,0,1-.43-.17.64.64,0,0,1-.16-.45V89.42a4.63,4.63,0,0,1-1.73,1.48,6.3,6.3,0,0,1-2.91.59A5.48,5.48,0,0,1,146.21,91Zm5.88-2.59A4.58,4.58,0,0,0,153.22,85v-.76l-3.15.46a7.43,7.43,0,0,0-2.94.92,1.92,1.92,0,0,0-.09,3.31,3.78,3.78,0,0,0,2.14.59A3.85,3.85,0,0,0,152.09,88.36Z"/></g><g class="cls-2"><path class="cls-3" d="M159.75,91.05a.61.61,0,0,1-.18-.45V77.86a.65.65,0,0,1,.18-.46.55.55,0,0,1,.44-.19h1.13a.62.62,0,0,1,.65.65V79a4,4,0,0,1,3.74-1.83h1a.56.56,0,0,1,.62.62v1a.6.6,0,0,1-.16.44.59.59,0,0,1-.46.18h-1.53a3.09,3.09,0,0,0-2.33.86,3.17,3.17,0,0,0-.85,2.34V90.6a.58.58,0,0,1-.19.45.69.69,0,0,1-.46.17h-1.21A.6.6,0,0,1,159.75,91.05Z"/></g></g><g class="cls-2"><g class="cls-2"><path class="cls-3" d="M19.55,128.63h2.88a4.15,4.15,0,0,1,3,1,4.47,4.47,0,0,1,0,5.78,4.11,4.11,0,0,1-3,1H19.55Zm2.79,6.67c1.81,0,2.71-.92,2.71-2.77a2.41,2.41,0,0,0-2.71-2.75H21v5.52Z"/><path class="cls-3" d="M27.74,128.39h1.53v1.35H27.74Zm.09,8.07V130.9h1.36v5.56Z"/><path class="cls-3" d="M32.45,131.94v2.48c0,.66.3,1,.91,1a2.22,2.22,0,0,0,.55-.08v1.08a2.5,2.5,0,0,1-.88.14,1.93,1.93,0,0,1-1.45-.53,2.1,2.1,0,0,1-.5-1.52v-2.55H30v-1h1.07v-1.35l1.37-.46v1.81h1.47v1Z"/><path class="cls-3" d="M37.88,136.46v-8.1h1.37v8.1Z"/></g><g class="cls-2"><path class="cls-3" d="M45.62,133.75H41.79a2,2,0,0,0,.45,1.32,1.55,1.55,0,0,0,1.19.42,2.76,2.76,0,0,0,1.69-.59l.4.94a3,3,0,0,1-1,.52,4,4,0,0,1-1.17.19,3,3,0,0,1-2.15-.77,2.85,2.85,0,0,1-.78-2.11,3.2,3.2,0,0,1,.34-1.51,2.58,2.58,0,0,1,1-1,2.6,2.6,0,0,1,1.39-.37,2.31,2.31,0,0,1,1.81.74,2.93,2.93,0,0,1,.67,2Zm-3.34-1.67a1.54,1.54,0,0,0-.44.94h2.58a1.51,1.51,0,0,0-.38-1,1.17,1.17,0,0,0-.86-.32A1.25,1.25,0,0,0,42.28,132.08Z"/><path class="cls-3" d="M48.35,131.94v2.48c0,.66.3,1,.91,1a2.28,2.28,0,0,0,.55-.08v1.08a2.5,2.5,0,0,1-.88.14,1.93,1.93,0,0,1-1.45-.53,2.1,2.1,0,0,1-.51-1.52v-2.55H45.91v-1H47v-1.35l1.38-.46v1.81h1.47v1Z"/></g><g class="cls-2"><path class="cls-3" d="M52.55,131.94v2.48c0,.66.3,1,.91,1a2.28,2.28,0,0,0,.55-.08v1.08a2.54,2.54,0,0,1-.88.14,1.93,1.93,0,0,1-1.45-.53,2.1,2.1,0,0,1-.51-1.52v-2.55H50.1v-1h1.07v-1.35l1.38-.46v1.81H54v1Z"/><path class="cls-3" d="M59.83,133.75H56a2,2,0,0,0,.45,1.32,1.55,1.55,0,0,0,1.19.42,2.76,2.76,0,0,0,1.69-.59l.4.94a3,3,0,0,1-1,.52,4,4,0,0,1-1.18.19,2.94,2.94,0,0,1-2.14-.77,2.85,2.85,0,0,1-.78-2.11,3.2,3.2,0,0,1,.34-1.51,2.58,2.58,0,0,1,1-1,2.6,2.6,0,0,1,1.39-.37,2.31,2.31,0,0,1,1.81.74,2.93,2.93,0,0,1,.67,2Zm-3.34-1.67A1.6,1.6,0,0,0,56,133h2.59a1.51,1.51,0,0,0-.38-1,1.17,1.17,0,0,0-.86-.32A1.25,1.25,0,0,0,56.49,132.08Z"/></g><g class="cls-2"><path class="cls-3" d="M64.54,130.86v1.25a2.06,2.06,0,0,0-.73-.14,1.38,1.38,0,0,0-1.07.41,1.52,1.52,0,0,0-.37,1.08v3H61v-4a12.49,12.49,0,0,0-.09-1.58H62.2l.11,1a1.64,1.64,0,0,1,.66-.82,1.87,1.87,0,0,1,1-.29A1.51,1.51,0,0,1,64.54,130.86Z"/></g><g class="cls-2"><path class="cls-3" d="M67.57,131.94v2.48c0,.66.3,1,.91,1a2.28,2.28,0,0,0,.55-.08v1.08a2.54,2.54,0,0,1-.88.14A1.93,1.93,0,0,1,66.7,136a2.1,2.1,0,0,1-.51-1.52v-2.55H65.12v-1h1.07v-1.35l1.38-.46v1.81H69v1Z"/></g><g class="cls-2"><path class="cls-3" d="M75.34,130.9l-2.59,5.93a3.36,3.36,0,0,1-1.12,1.51A4.06,4.06,0,0,1,70,139l-.31-1.06a3.49,3.49,0,0,0,1.17-.44,1.91,1.91,0,0,0,.63-.8l.18-.41-2.31-5.36h1.44l1.59,4,1.63-4Z"/><path class="cls-3" d="M80.49,131.13a2.52,2.52,0,0,1,.87,1,3.58,3.58,0,0,1,.31,1.53,3.45,3.45,0,0,1-.31,1.51,2.34,2.34,0,0,1-.86,1,2.39,2.39,0,0,1-1.28.35,2.27,2.27,0,0,1-1.08-.26,1.72,1.72,0,0,1-.72-.72v3.27H76.05v-6.36A12.49,12.49,0,0,0,76,130.9h1.29l.11,1a1.76,1.76,0,0,1,.72-.81,2.25,2.25,0,0,1,1.14-.29A2.2,2.2,0,0,1,80.49,131.13ZM79.91,135a2.05,2.05,0,0,0,.38-1.32,2.2,2.2,0,0,0-.38-1.36,1.24,1.24,0,0,0-1-.49,1.31,1.31,0,0,0-1.08.47,2.16,2.16,0,0,0-.38,1.36,2.09,2.09,0,0,0,.38,1.33,1.29,1.29,0,0,0,1.07.47A1.28,1.28,0,0,0,79.91,135Z"/><path class="cls-3" d="M87.73,133.75H83.91a1.94,1.94,0,0,0,.44,1.32,1.58,1.58,0,0,0,1.19.42,2.79,2.79,0,0,0,1.7-.59l.39.94a2.89,2.89,0,0,1-1,.52,3.87,3.87,0,0,1-1.17.19,3,3,0,0,1-2.15-.77,2.85,2.85,0,0,1-.78-2.11,3.32,3.32,0,0,1,.34-1.51,2.58,2.58,0,0,1,1-1,2.64,2.64,0,0,1,1.4-.37,2.34,2.34,0,0,1,1.81.74,3,3,0,0,1,.66,2Zm-3.34-1.67A1.6,1.6,0,0,0,84,133h2.58a1.51,1.51,0,0,0-.38-1,1.14,1.14,0,0,0-.86-.32A1.26,1.26,0,0,0,84.39,132.08Z"/></g><g class="cls-2"><path class="cls-3" d="M99.42,130.9h1.34l-2.18,5.56h-1.2L96,132.82l-1.34,3.64H93.46l-2.18-5.56h1.41l1.43,3.92,1.44-3.92h1L98,134.85Z"/></g><g class="cls-2"><path class="cls-3" d="M102.56,136.2a2.41,2.41,0,0,1-1-1,3.54,3.54,0,0,1,0-3.07,2.41,2.41,0,0,1,1-1,3.09,3.09,0,0,1,1.49-.35,3,3,0,0,1,1.47.35,2.47,2.47,0,0,1,1,1,3.64,3.64,0,0,1,0,3.07,2.47,2.47,0,0,1-1,1,3,3,0,0,1-1.47.35A3.09,3.09,0,0,1,102.56,136.2Zm2.55-1.19a2.14,2.14,0,0,0,.37-1.36,2.11,2.11,0,0,0-.38-1.35,1.25,1.25,0,0,0-1-.47,1.26,1.26,0,0,0-1.07.47,2.11,2.11,0,0,0-.37,1.35A2.15,2.15,0,0,0,103,135a1.28,1.28,0,0,0,1.07.46A1.3,1.3,0,0,0,105.11,135Z"/></g><g class="cls-2"><path class="cls-3" d="M111.58,130.86v1.25a2.06,2.06,0,0,0-.73-.14,1.38,1.38,0,0,0-1.07.41,1.52,1.52,0,0,0-.37,1.08v3H108v-4a12.49,12.49,0,0,0-.09-1.58h1.29l.11,1a1.64,1.64,0,0,1,.66-.82,1.87,1.87,0,0,1,1-.29A1.51,1.51,0,0,1,111.58,130.86Z"/></g><g class="cls-2"><path class="cls-3" d="M117.55,128.36v8.1H116.2v-.89a1.75,1.75,0,0,1-.73.72,2.37,2.37,0,0,1-2.35-.11,2.38,2.38,0,0,1-.88-1,3.58,3.58,0,0,1-.31-1.53,3.38,3.38,0,0,1,.31-1.5,2.27,2.27,0,0,1,.87-1,2.31,2.31,0,0,1,1.28-.36,2.22,2.22,0,0,1,1.07.25,1.74,1.74,0,0,1,.72.7v-3.35ZM115.82,135a2.57,2.57,0,0,0,0-2.69,1.28,1.28,0,0,0-1-.47,1.3,1.3,0,0,0-1.07.47,2,2,0,0,0-.38,1.32,2.14,2.14,0,0,0,.38,1.36,1.26,1.26,0,0,0,1.06.48A1.3,1.3,0,0,0,115.82,135Z"/><path class="cls-3" d="M120.8,131.94v2.48c0,.66.3,1,.91,1a2.28,2.28,0,0,0,.55-.08v1.08a2.54,2.54,0,0,1-.88.14,1.91,1.91,0,0,1-1.45-.53,2.1,2.1,0,0,1-.51-1.52v-2.55h-1.07v-1h1.07v-1.35l1.38-.46v1.81h1.47v1Z"/><path class="cls-3" d="M131.6,130.9v5.38a2.55,2.55,0,0,1-.72,2,2.93,2.93,0,0,1-2.1.67,4.58,4.58,0,0,1-2.26-.54l.22-1a4.32,4.32,0,0,0,2,.53,1.31,1.31,0,0,0,1.48-1.48v-1.1a2,2,0,0,1-.73.74,2.24,2.24,0,0,1-1.09.28,2.4,2.4,0,0,1-1.29-.35,2.27,2.27,0,0,1-.88-1,3.42,3.42,0,0,1,0-2.89,2.27,2.27,0,0,1,.88-1,2.4,2.4,0,0,1,1.29-.35,2.28,2.28,0,0,1,1.09.26,1.75,1.75,0,0,1,.73.72v-.84Zm-1.76,3.88a2.21,2.21,0,0,0,0-2.49,1.51,1.51,0,0,0-2.15,0,2.18,2.18,0,0,0,0,2.49,1.35,1.35,0,0,0,1.07.45A1.33,1.33,0,0,0,129.84,134.78Z"/><path class="cls-3" d="M137.94,133.75h-3.82a2,2,0,0,0,.44,1.32,1.59,1.59,0,0,0,1.2.42,2.78,2.78,0,0,0,1.69-.59l.4.94a3,3,0,0,1-1,.52,3.87,3.87,0,0,1-1.17.19,2.92,2.92,0,0,1-2.14-.77,2.85,2.85,0,0,1-.79-2.11,3.2,3.2,0,0,1,.35-1.51,2.49,2.49,0,0,1,.95-1,2.64,2.64,0,0,1,1.4-.37,2.34,2.34,0,0,1,1.81.74,3,3,0,0,1,.66,2Zm-3.33-1.67a1.6,1.6,0,0,0-.45.94h2.59a1.57,1.57,0,0,0-.38-1,1.18,1.18,0,0,0-.87-.32A1.24,1.24,0,0,0,134.61,132.08Z"/><path class="cls-3" d="M143.56,131.12a2.31,2.31,0,0,1,.86,1,3.38,3.38,0,0,1,.31,1.5,3.58,3.58,0,0,1-.31,1.53,2.43,2.43,0,0,1-.87,1,2.37,2.37,0,0,1-2.37.1,1.75,1.75,0,0,1-.72-.73v.91h-1.35v-8.1h1.36v3.38a1.75,1.75,0,0,1,.73-.72,2.27,2.27,0,0,1,1.08-.26A2.31,2.31,0,0,1,143.56,131.12ZM143,135a2.2,2.2,0,0,0,.38-1.36,2.05,2.05,0,0,0-.38-1.32,1.44,1.44,0,0,0-2.13,0,2.14,2.14,0,0,0-.38,1.34,2.11,2.11,0,0,0,.38,1.35,1.31,1.31,0,0,0,1.08.47A1.26,1.26,0,0,0,143,135Z"/><path class="cls-3" d="M149.47,130.86v1.25a2,2,0,0,0-.72-.14,1.4,1.4,0,0,0-1.08.41,1.57,1.57,0,0,0-.37,1.08v3h-1.36v-4a12.49,12.49,0,0,0-.09-1.58h1.29l.11,1a1.64,1.64,0,0,1,.66-.82,1.87,1.87,0,0,1,1-.29A1.51,1.51,0,0,1,149.47,130.86Z"/><path class="cls-3" d="M155.3,130.9v5.56H154v-.86a1.91,1.91,0,0,1-.7.71,2.11,2.11,0,0,1-1,.24c-1.35,0-2-.77-2-2.29V130.9h1.36v3.37a1.37,1.37,0,0,0,.25.89,1,1,0,0,0,.76.29,1.22,1.22,0,0,0,1-.4,1.49,1.49,0,0,0,.37-1.05v-3.1Z"/><path class="cls-3" d="M156.71,128.39h1.53v1.35h-1.53Zm.09,8.07V130.9h1.36v5.56Z"/></g><g class="cls-2"><path class="cls-3" d="M165.19,136.46h-1.72L161,133.9v2.56h-1.36v-8.1H161v5l2.29-2.44H165l-2.5,2.65Z"/></g><g class="cls-2"><path class="cls-3" d="M167.46,131.94v2.48c0,.66.3,1,.91,1a2.28,2.28,0,0,0,.55-.08v1.08a2.54,2.54,0,0,1-.88.14,1.93,1.93,0,0,1-1.45-.53,2.1,2.1,0,0,1-.51-1.52v-2.55H165v-1h1.06v-1.35l1.38-.46v1.81h1.47v1Z"/></g><g class="cls-2"><path class="cls-3" d="M23.34,144.12h1.37l-2.43,5.54h-1.2l-2.4-5.54h1.44l1.59,4Z"/></g><g class="cls-2"><path class="cls-3" d="M26.35,149.4a2.41,2.41,0,0,1-1-1,3.54,3.54,0,0,1,0-3.07,2.41,2.41,0,0,1,1-1,3.09,3.09,0,0,1,1.49-.35,3,3,0,0,1,1.47.35,2.47,2.47,0,0,1,1,1,3.64,3.64,0,0,1,0,3.07,2.47,2.47,0,0,1-1,1,3,3,0,0,1-1.47.35A3.09,3.09,0,0,1,26.35,149.4Zm2.55-1.19a2.64,2.64,0,0,0,0-2.71,1.25,1.25,0,0,0-1.05-.47,1.28,1.28,0,0,0-1.07.47,2.7,2.7,0,0,0,0,2.71,1.28,1.28,0,0,0,1.07.46A1.3,1.3,0,0,0,28.9,148.21Z"/><path class="cls-3" d="M32.86,149.4a2.41,2.41,0,0,1-1-1,3.54,3.54,0,0,1,0-3.07,2.41,2.41,0,0,1,1-1,3.09,3.09,0,0,1,1.49-.35,3,3,0,0,1,1.47.35,2.41,2.41,0,0,1,1,1,3.64,3.64,0,0,1,0,3.07,2.41,2.41,0,0,1-1,1,3,3,0,0,1-1.47.35A3.09,3.09,0,0,1,32.86,149.4Zm2.55-1.19a2.07,2.07,0,0,0,.37-1.35,2.12,2.12,0,0,0-.38-1.36,1.24,1.24,0,0,0-1-.47,1.28,1.28,0,0,0-1.07.47,2.12,2.12,0,0,0-.37,1.36,2.07,2.07,0,0,0,.37,1.35,1.26,1.26,0,0,0,1.06.46A1.28,1.28,0,0,0,35.41,148.21Z"/><path class="cls-3" d="M41.88,144.06v1.26a1.79,1.79,0,0,0-.72-.15,1.4,1.4,0,0,0-1.08.41,1.57,1.57,0,0,0-.36,1.08v3H38.34v-4a12.21,12.21,0,0,0-.09-1.57h1.29l.11,1a1.64,1.64,0,0,1,.66-.82,1.87,1.87,0,0,1,1-.29A1.47,1.47,0,0,1,41.88,144.06Z"/><path class="cls-3" d="M51,144.11v5.55H49.63v-.89a1.75,1.75,0,0,1-.73.72,2.21,2.21,0,0,1-1.08.26,2.39,2.39,0,0,1-1.28-.35,2.3,2.3,0,0,1-.87-1,3.45,3.45,0,0,1-.31-1.51,3.58,3.58,0,0,1,.31-1.53,2.47,2.47,0,0,1,.88-1,2.37,2.37,0,0,1,2.35-.11,1.75,1.75,0,0,1,.73.72v-.83Zm-1.73,4.09a2.1,2.1,0,0,0,.38-1.33,2.16,2.16,0,0,0-.38-1.36,1.42,1.42,0,0,0-2.13,0,2.2,2.2,0,0,0-.37,1.36,2.05,2.05,0,0,0,.37,1.32,1.33,1.33,0,0,0,1.08.46A1.28,1.28,0,0,0,49.25,148.2Z"/><path class="cls-3" d="M52.48,149.66v-8.1h1.36v8.1Z"/><path class="cls-3" d="M55.35,149.66v-8.1h1.36v8.1Z"/><path class="cls-3" d="M63.08,147H59.25a2,2,0,0,0,.45,1.32,1.57,1.57,0,0,0,1.19.42,2.81,2.81,0,0,0,1.7-.59L63,149a3,3,0,0,1-1,.52,4,4,0,0,1-1.17.19,3,3,0,0,1-2.15-.77,2.85,2.85,0,0,1-.78-2.11,3.2,3.2,0,0,1,.34-1.51,2.58,2.58,0,0,1,1-1A2.6,2.6,0,0,1,60.6,144a2.31,2.31,0,0,1,1.81.74,2.93,2.93,0,0,1,.67,2Zm-3.34-1.67a1.54,1.54,0,0,0-.44.94h2.58a1.51,1.51,0,0,0-.38-.95,1.17,1.17,0,0,0-.86-.32A1.25,1.25,0,0,0,59.74,145.28Z"/><path class="cls-3" d="M67.26,149.66v-8.1h1.36v8.1Z"/><path class="cls-3" d="M75,147H71.17a1.94,1.94,0,0,0,.44,1.32,1.58,1.58,0,0,0,1.19.42,2.79,2.79,0,0,0,1.7-.59l.39.94a2.89,2.89,0,0,1-1,.52,3.87,3.87,0,0,1-1.17.19A3,3,0,0,1,70.6,149a2.85,2.85,0,0,1-.78-2.11,3.32,3.32,0,0,1,.34-1.51,2.58,2.58,0,0,1,1-1,2.64,2.64,0,0,1,1.4-.37,2.34,2.34,0,0,1,1.81.74,3,3,0,0,1,.66,2Zm-3.34-1.67a1.54,1.54,0,0,0-.44.94h2.58a1.51,1.51,0,0,0-.38-.95,1.14,1.14,0,0,0-.86-.32A1.26,1.26,0,0,0,71.65,145.28Z"/><path class="cls-3" d="M81,147H77.19a2,2,0,0,0,.45,1.32,1.57,1.57,0,0,0,1.19.42,2.81,2.81,0,0,0,1.7-.59l.39.94a3,3,0,0,1-1,.52,4,4,0,0,1-1.17.19,3,3,0,0,1-2.15-.77,2.85,2.85,0,0,1-.78-2.11,3.2,3.2,0,0,1,.34-1.51,2.58,2.58,0,0,1,1-1,2.62,2.62,0,0,1,1.4-.37,2.3,2.3,0,0,1,1.8.74,2.93,2.93,0,0,1,.67,2Zm-3.34-1.67a1.54,1.54,0,0,0-.44.94h2.58a1.51,1.51,0,0,0-.38-.95,1.15,1.15,0,0,0-.86-.32A1.25,1.25,0,0,0,77.68,145.28Z"/></g><g class="cls-2"><path class="cls-3" d="M81.82,149l.39-1a3.32,3.32,0,0,0,2,.66,1.48,1.48,0,0,0,.76-.17.51.51,0,0,0,.27-.46.47.47,0,0,0-.19-.4,1.64,1.64,0,0,0-.64-.26l-.92-.21c-1-.22-1.52-.74-1.52-1.55a1.49,1.49,0,0,1,.29-.9,1.92,1.92,0,0,1,.8-.61,3,3,0,0,1,1.2-.22,3.58,3.58,0,0,1,1.14.18,2.94,2.94,0,0,1,1,.53l-.41.93a2.82,2.82,0,0,0-1.71-.61,1.31,1.31,0,0,0-.74.17.57.57,0,0,0-.26.49.48.48,0,0,0,.16.38,1.19,1.19,0,0,0,.54.24l1,.21a2.4,2.4,0,0,1,1.2.58,1.37,1.37,0,0,1,.38,1,1.43,1.43,0,0,1-.61,1.22,2.82,2.82,0,0,1-1.69.45A3.79,3.79,0,0,1,81.82,149Z"/></g><g class="cls-2"><path class="cls-3" d="M89.4,145.14v2.48c0,.66.3,1,.91,1a2.28,2.28,0,0,0,.55-.08v1.09a2.82,2.82,0,0,1-.88.13,1.93,1.93,0,0,1-1.45-.53,2.1,2.1,0,0,1-.51-1.52v-2.55H87v-1H88v-1.36l1.38-.46v1.82h1.47v1Z"/><path class="cls-3" d="M96.68,147H92.85a2,2,0,0,0,.45,1.32,1.55,1.55,0,0,0,1.19.42,2.76,2.76,0,0,0,1.69-.59l.4.94a3,3,0,0,1-1,.52,4,4,0,0,1-1.17.19,3,3,0,0,1-2.15-.77,2.85,2.85,0,0,1-.78-2.11,3.2,3.2,0,0,1,.34-1.51,2.58,2.58,0,0,1,1-1A2.6,2.6,0,0,1,94.2,144a2.31,2.31,0,0,1,1.81.74,2.93,2.93,0,0,1,.67,2Zm-3.34-1.67a1.54,1.54,0,0,0-.44.94h2.58a1.51,1.51,0,0,0-.38-.95,1.17,1.17,0,0,0-.86-.32A1.25,1.25,0,0,0,93.34,145.28Z"/></g><g class="cls-2"><path class="cls-3" d="M103.36,149.66h-1.72l-2.43-2.56v2.56H97.85v-8.1h1.36v5l2.29-2.44h1.66l-2.5,2.65Z"/></g><g class="cls-2"><path class="cls-3" d="M103.46,149l.39-1a3.32,3.32,0,0,0,2,.66,1.48,1.48,0,0,0,.76-.17.51.51,0,0,0,.27-.46.47.47,0,0,0-.19-.4,1.64,1.64,0,0,0-.64-.26l-.92-.21c-1-.22-1.52-.74-1.52-1.55a1.49,1.49,0,0,1,.29-.9,1.92,1.92,0,0,1,.8-.61,3,3,0,0,1,1.2-.22,3.58,3.58,0,0,1,1.14.18,2.94,2.94,0,0,1,1,.53l-.4.93a2.87,2.87,0,0,0-1.72-.61,1.31,1.31,0,0,0-.74.17.57.57,0,0,0-.26.49.48.48,0,0,0,.16.38,1.19,1.19,0,0,0,.54.24l1,.21a2.4,2.4,0,0,1,1.2.58,1.37,1.37,0,0,1,.38,1,1.43,1.43,0,0,1-.61,1.22,2.82,2.82,0,0,1-1.69.45A3.79,3.79,0,0,1,103.46,149Z"/></g><g class="cls-2"><path class="cls-3" d="M111,145.14v2.48c0,.66.3,1,.91,1a2.28,2.28,0,0,0,.55-.08v1.09a2.82,2.82,0,0,1-.88.13,1.93,1.93,0,0,1-1.45-.53,2.1,2.1,0,0,1-.51-1.52v-2.55H108.6v-1h1.06v-1.36l1.38-.46v1.82h1.47v1Z"/><path class="cls-3" d="M118.32,147h-3.83a2,2,0,0,0,.45,1.32,1.55,1.55,0,0,0,1.19.42,2.76,2.76,0,0,0,1.69-.59l.4.94a3,3,0,0,1-1,.52,4,4,0,0,1-1.17.19,3,3,0,0,1-2.15-.77,2.85,2.85,0,0,1-.78-2.11,3.2,3.2,0,0,1,.34-1.51,2.58,2.58,0,0,1,1-1,2.6,2.6,0,0,1,1.39-.37,2.31,2.31,0,0,1,1.81.74,2.93,2.93,0,0,1,.67,2ZM115,145.28a1.54,1.54,0,0,0-.44.94h2.58a1.51,1.51,0,0,0-.38-.95,1.17,1.17,0,0,0-.86-.32A1.25,1.25,0,0,0,115,145.28Z"/><path class="cls-3" d="M124.65,146.25v3.41h-1.37v-3.34a1.52,1.52,0,0,0-.25-1,1,1,0,0,0-.78-.3,1.35,1.35,0,0,0-1,.4,1.5,1.5,0,0,0-.38,1.06v3.15h-1.37v-4a12.35,12.35,0,0,0-.08-1.57h1.28l.1.91a2,2,0,0,1,.78-.78,2.12,2.12,0,0,1,1.1-.28C124,144,124.65,144.72,124.65,146.25Z"/><path class="cls-3" d="M126,148.12h1.54v1.54H126Z"/></g><g class="cls-2"><path class="cls-3" d="M25.26,168.23h.9v7.83h-.9v-3.6h-4.7v3.6h-.89v-7.83h.89v3.47h4.7Z"/></g><g class="cls-2"><path class="cls-3" d="M32.62,173.27H28.56a2.38,2.38,0,0,0,.49,1.59,1.76,1.76,0,0,0,1.39.54,2.79,2.79,0,0,0,1.78-.65l.3.65a2.48,2.48,0,0,1-.93.54,3.54,3.54,0,0,1-1.16.2,2.68,2.68,0,0,1-2-.77,2.86,2.86,0,0,1-.74-2.09,3.25,3.25,0,0,1,.33-1.5,2.47,2.47,0,0,1,.92-1,2.57,2.57,0,0,1,1.35-.36,2.17,2.17,0,0,1,1.73.72,2.9,2.9,0,0,1,.63,2Zm-3.47-1.76a2,2,0,0,0-.56,1.17h3.23a2,2,0,0,0-.46-1.19,1.43,1.43,0,0,0-1.08-.4A1.55,1.55,0,0,0,29.15,171.51Z"/></g><g class="cls-2"><path class="cls-3" d="M35.13,171.23v3a1.18,1.18,0,0,0,.25.86,1,1,0,0,0,.71.25,2,2,0,0,0,.6-.1V176a2.65,2.65,0,0,1-.77.11,1.67,1.67,0,0,1-1.24-.45,1.75,1.75,0,0,1-.45-1.31v-3.15H33.16v-.7h1.07v-1.42l.9-.32v1.74h1.58v.7Z"/><path class="cls-3" d="M40.57,168.18h1.09v1H40.57Zm.09,7.88v-5.53h.89v5.53Z"/><path class="cls-3" d="M42.94,175.42l.29-.66a2.92,2.92,0,0,0,.92.51,3.28,3.28,0,0,0,1,.15,1.74,1.74,0,0,0,1-.21.69.69,0,0,0,.33-.62.7.7,0,0,0-.22-.53,1.61,1.61,0,0,0-.73-.31l-.94-.22A2.1,2.1,0,0,1,43.5,173a1.33,1.33,0,0,1-.38-.95,1.45,1.45,0,0,1,.59-1.18,2.43,2.43,0,0,1,1.54-.45,3.38,3.38,0,0,1,1.1.18,2.43,2.43,0,0,1,.86.54l-.29.65a2.59,2.59,0,0,0-1.67-.65,1.58,1.58,0,0,0-.92.23A.72.72,0,0,0,44,172a.7.7,0,0,0,.21.54,1.46,1.46,0,0,0,.65.31l.94.23a2.34,2.34,0,0,1,1.14.54,1.3,1.3,0,0,1,.37,1,1.36,1.36,0,0,1-.58,1.15,2.67,2.67,0,0,1-1.58.43A3.21,3.21,0,0,1,42.94,175.42Z"/><path class="cls-3" d="M56.23,173.27h-4a2.33,2.33,0,0,0,.49,1.59,1.74,1.74,0,0,0,1.39.54,2.81,2.81,0,0,0,1.78-.65l.3.65a2.65,2.65,0,0,1-.93.54,3.58,3.58,0,0,1-1.16.2,2.7,2.7,0,0,1-2-.77,2.9,2.9,0,0,1-.74-2.09,3.25,3.25,0,0,1,.33-1.5,2.42,2.42,0,0,1,.93-1,2.52,2.52,0,0,1,1.35-.36,2.18,2.18,0,0,1,1.73.72,2.9,2.9,0,0,1,.62,2Zm-3.47-1.76a2,2,0,0,0-.55,1.17h3.22a1.9,1.9,0,0,0-.45-1.19,1.46,1.46,0,0,0-1.09-.4A1.56,1.56,0,0,0,52.76,171.51Z"/><path class="cls-3" d="M62.22,173.27H58.16a2.38,2.38,0,0,0,.49,1.59,1.76,1.76,0,0,0,1.39.54,2.79,2.79,0,0,0,1.78-.65l.3.65a2.48,2.48,0,0,1-.93.54,3.54,3.54,0,0,1-1.16.2,2.71,2.71,0,0,1-2-.77,2.89,2.89,0,0,1-.73-2.09,3.25,3.25,0,0,1,.33-1.5,2.47,2.47,0,0,1,.92-1,2.57,2.57,0,0,1,1.35-.36,2.17,2.17,0,0,1,1.73.72,2.9,2.9,0,0,1,.63,2Zm-3.47-1.76a2,2,0,0,0-.56,1.17h3.23a2,2,0,0,0-.46-1.19,1.43,1.43,0,0,0-1.08-.4A1.55,1.55,0,0,0,58.75,171.51Z"/><path class="cls-3" d="M68.32,172.58v3.48h-.89v-3.43a1.68,1.68,0,0,0-.31-1.13,1.18,1.18,0,0,0-1-.36,1.64,1.64,0,0,0-1.24.48,1.77,1.77,0,0,0-.46,1.27v3.17h-.89v-4a12.1,12.1,0,0,0-.09-1.55h.85l.09,1a1.8,1.8,0,0,1,.76-.83,2.19,2.19,0,0,1,1.15-.29C67.66,170.4,68.32,171.12,68.32,172.58Z"/><path class="cls-3" d="M77.51,173.27H73.45a2.38,2.38,0,0,0,.49,1.59,1.76,1.76,0,0,0,1.39.54,2.79,2.79,0,0,0,1.78-.65l.3.65a2.48,2.48,0,0,1-.93.54,3.58,3.58,0,0,1-1.16.2,2.71,2.71,0,0,1-2-.77,2.89,2.89,0,0,1-.73-2.09,3.25,3.25,0,0,1,.33-1.5,2.47,2.47,0,0,1,.92-1,2.57,2.57,0,0,1,1.35-.36,2.17,2.17,0,0,1,1.73.72,2.9,2.9,0,0,1,.63,2ZM74,171.51a2,2,0,0,0-.56,1.17h3.23a2,2,0,0,0-.46-1.19,1.43,1.43,0,0,0-1.08-.4A1.55,1.55,0,0,0,74,171.51Z"/><path class="cls-3" d="M78.77,168.18h1.09v1H78.77Zm.09,7.88v-5.53h.89v5.53Z"/><path class="cls-3" d="M86.41,170.53V176a2.49,2.49,0,0,1-.64,1.86,2.52,2.52,0,0,1-1.86.63,4,4,0,0,1-2.18-.57l.16-.72a4.5,4.5,0,0,0,1,.42,3.72,3.72,0,0,0,1,.14,1.58,1.58,0,0,0,1.21-.43,1.75,1.75,0,0,0,.41-1.26v-1.31a1.81,1.81,0,0,1-.75.82,2.15,2.15,0,0,1-1.16.3,2.45,2.45,0,0,1-1.29-.35,2.19,2.19,0,0,1-.87-1,3.52,3.52,0,0,1,0-2.89,2.19,2.19,0,0,1,.87-1,2.44,2.44,0,0,1,1.29-.34,2.23,2.23,0,0,1,1.15.28,1.87,1.87,0,0,1,.75.8v-.95Zm-1.35,4.08a2.56,2.56,0,0,0,0-2.93,1.58,1.58,0,0,0-1.26-.54,1.6,1.6,0,0,0-1.28.54,2.52,2.52,0,0,0,0,2.93,1.6,1.6,0,0,0,1.28.54A1.58,1.58,0,0,0,85.06,174.61Z"/><path class="cls-3" d="M92.75,173.27H88.69a2.43,2.43,0,0,0,.49,1.59,1.78,1.78,0,0,0,1.4.54,2.83,2.83,0,0,0,1.78-.65l.29.65a2.52,2.52,0,0,1-.92.54,3.6,3.6,0,0,1-1.17.2,2.69,2.69,0,0,1-2-.77,2.9,2.9,0,0,1-.74-2.09,3.25,3.25,0,0,1,.33-1.5,2.42,2.42,0,0,1,.93-1,2.52,2.52,0,0,1,1.35-.36,2.18,2.18,0,0,1,1.73.72,3,3,0,0,1,.62,2Zm-3.47-1.76a2,2,0,0,0-.55,1.17H92a1.9,1.9,0,0,0-.46-1.19,1.43,1.43,0,0,0-1.08-.4A1.56,1.56,0,0,0,89.28,171.51Z"/><path class="cls-3" d="M98.86,172.58v3.48H98v-3.43a1.73,1.73,0,0,0-.31-1.13,1.22,1.22,0,0,0-1-.36,1.63,1.63,0,0,0-1.23.48,1.72,1.72,0,0,0-.46,1.27v3.17h-.89v-4a12.1,12.1,0,0,0-.09-1.55h.85l.08,1a1.86,1.86,0,0,1,.76-.83,2.22,2.22,0,0,1,1.16-.29C98.19,170.4,98.86,171.12,98.86,172.58Z"/><path class="cls-3" d="M101.73,171.23v3a1.18,1.18,0,0,0,.25.86,1,1,0,0,0,.72.25,2,2,0,0,0,.59-.1V176a2.6,2.6,0,0,1-.77.11,1.67,1.67,0,0,1-1.24-.45,1.79,1.79,0,0,1-.44-1.31v-3.15H99.76v-.7h1.08v-1.42l.89-.32v1.74h1.58v.7Z"/><path class="cls-3" d="M104.3,168.18h1.09v1H104.3Zm.09,7.88v-5.53h.89v5.53Zm1.69,1.65c.62,0,.93-.37.93-1.1v-6.08h.89v6.19a1.78,1.78,0,0,1-.43,1.31,1.59,1.59,0,0,1-1.2.45,2.55,2.55,0,0,1-.72-.1v-.76A1.78,1.78,0,0,0,106.08,177.71Zm.83-9.53H108v1h-1.09Z"/><path class="cls-3" d="M114.5,168v8.1h-.88v-1a1.77,1.77,0,0,1-.73.8,2.35,2.35,0,0,1-1.14.28,2.24,2.24,0,0,1-1.28-.37,2.37,2.37,0,0,1-.86-1,3.47,3.47,0,0,1-.31-1.52,3.52,3.52,0,0,1,.3-1.5,2.26,2.26,0,0,1,.86-1,2.36,2.36,0,0,1,1.29-.35,2.18,2.18,0,0,1,1.13.28,1.67,1.67,0,0,1,.73.78V168Zm-1.32,6.88a3,3,0,0,0,0-3.14,1.5,1.5,0,0,0-1.25-.56,1.56,1.56,0,0,0-1.27.55,2.35,2.35,0,0,0-.46,1.55,2.41,2.41,0,0,0,.46,1.59,1.52,1.52,0,0,0,1.27.57A1.48,1.48,0,0,0,113.18,174.84Z"/><path class="cls-3" d="M115.89,175.42l.29-.66a2.92,2.92,0,0,0,.92.51,3.28,3.28,0,0,0,1,.15,1.74,1.74,0,0,0,1-.21.69.69,0,0,0,.33-.62.7.7,0,0,0-.22-.53,1.61,1.61,0,0,0-.73-.31l-.94-.22a2.1,2.1,0,0,1-1.07-.55,1.33,1.33,0,0,1-.38-.95,1.45,1.45,0,0,1,.59-1.18,2.43,2.43,0,0,1,1.54-.45,3.38,3.38,0,0,1,1.1.18,2.56,2.56,0,0,1,.87.54l-.3.65a2.59,2.59,0,0,0-1.67-.65,1.58,1.58,0,0,0-.92.23.72.72,0,0,0-.33.63.7.7,0,0,0,.21.54,1.46,1.46,0,0,0,.65.31l.94.23a2.34,2.34,0,0,1,1.14.54,1.3,1.3,0,0,1,.37,1,1.36,1.36,0,0,1-.58,1.15,2.67,2.67,0,0,1-1.58.43A3.21,3.21,0,0,1,115.89,175.42Z"/><path class="cls-3" d="M124.55,176.06V168h.89v8.1Z"/></g><g class="cls-2"><path class="cls-3" d="M131.8,173.27h-4.06a2.38,2.38,0,0,0,.49,1.59,1.76,1.76,0,0,0,1.39.54,2.79,2.79,0,0,0,1.78-.65l.3.65a2.48,2.48,0,0,1-.93.54,3.54,3.54,0,0,1-1.16.2,2.68,2.68,0,0,1-2-.77,2.86,2.86,0,0,1-.74-2.09,3.25,3.25,0,0,1,.33-1.5,2.47,2.47,0,0,1,.92-1,2.57,2.57,0,0,1,1.35-.36,2.17,2.17,0,0,1,1.73.72,2.9,2.9,0,0,1,.63,2Zm-3.47-1.76a2,2,0,0,0-.56,1.17H131a2,2,0,0,0-.46-1.19,1.43,1.43,0,0,0-1.08-.4A1.55,1.55,0,0,0,128.33,171.51Z"/></g><g class="cls-2"><path class="cls-3" d="M134.32,171.23v3a1.18,1.18,0,0,0,.25.86,1,1,0,0,0,.71.25,2,2,0,0,0,.6-.1V176a2.65,2.65,0,0,1-.77.11,1.67,1.67,0,0,1-1.24-.45,1.75,1.75,0,0,1-.45-1.31v-3.15h-1.07v-.7h1.07v-1.42l.9-.32v1.74h1.58v.7Z"/></g><g class="cls-2"><path class="cls-3" d="M138.2,171.23v3a1.18,1.18,0,0,0,.25.86,1,1,0,0,0,.71.25,2,2,0,0,0,.6-.1V176a2.65,2.65,0,0,1-.77.11,1.67,1.67,0,0,1-1.24-.45,1.75,1.75,0,0,1-.45-1.31v-3.15h-1.07v-.7h1.07v-1.42l.9-.32v1.74h1.58v.7Z"/><path class="cls-3" d="M145.49,173.27h-4.06a2.38,2.38,0,0,0,.49,1.59,1.76,1.76,0,0,0,1.39.54,2.79,2.79,0,0,0,1.78-.65l.3.65a2.48,2.48,0,0,1-.93.54,3.54,3.54,0,0,1-1.16.2,2.68,2.68,0,0,1-2-.77,2.86,2.86,0,0,1-.74-2.09,3.25,3.25,0,0,1,.33-1.5,2.47,2.47,0,0,1,.92-1,2.57,2.57,0,0,1,1.35-.36,2.17,2.17,0,0,1,1.73.72,2.9,2.9,0,0,1,.63,2ZM142,171.51a2,2,0,0,0-.56,1.17h3.23a2,2,0,0,0-.46-1.19,1.43,1.43,0,0,0-1.08-.4A1.55,1.55,0,0,0,142,171.51Z"/></g><g class="cls-2"><path class="cls-3" d="M149.92,170.46l0,.82a1.78,1.78,0,0,0-.59-.09,1.4,1.4,0,0,0-1.19.5,1.91,1.91,0,0,0-.39,1.21v3.16h-.89v-4a12.1,12.1,0,0,0-.09-1.55h.85l.09,1a1.65,1.65,0,0,1,.67-.86,1.86,1.86,0,0,1,1-.29A2,2,0,0,1,149.92,170.46Z"/></g><g class="cls-2"><path class="cls-3" d="M152.44,171.23v3a1.18,1.18,0,0,0,.25.86,1,1,0,0,0,.71.25,2,2,0,0,0,.6-.1V176a2.65,2.65,0,0,1-.77.11,1.67,1.67,0,0,1-1.24-.45,1.75,1.75,0,0,1-.45-1.31v-3.15h-1.07v-.7h1.07v-1.42l.9-.32v1.74H154v.7Z"/></g><g class="cls-2"><path class="cls-3" d="M160,170.53l-2.59,6a3.16,3.16,0,0,1-1,1.38,3.66,3.66,0,0,1-1.52.61l-.18-.7a3.22,3.22,0,0,0,1.18-.46,2.12,2.12,0,0,0,.66-.9l.23-.49-2.35-5.48h.94l1.87,4.56,1.89-4.56Z"/><path class="cls-3" d="M165.06,170.76a2.43,2.43,0,0,1,.87,1,3.57,3.57,0,0,1,.3,1.51,3.52,3.52,0,0,1-.3,1.5,2.34,2.34,0,0,1-.87,1,2.32,2.32,0,0,1-1.29.36,2.18,2.18,0,0,1-1.13-.29,1.82,1.82,0,0,1-.74-.81v3.4H161v-6.36a12.1,12.1,0,0,0-.09-1.55h.85l.09,1.06a1.76,1.76,0,0,1,.73-.88,2.14,2.14,0,0,1,1.18-.31A2.36,2.36,0,0,1,165.06,170.76Zm-.2,4.09a2.42,2.42,0,0,0,.45-1.56,2.48,2.48,0,0,0-.45-1.58,1.51,1.51,0,0,0-1.26-.57,1.53,1.53,0,0,0-1.26.55,3,3,0,0,0,0,3.15,1.48,1.48,0,0,0,1.26.56A1.5,1.5,0,0,0,164.86,174.85Z"/><path class="cls-3" d="M172.24,173.27h-4.06a2.38,2.38,0,0,0,.49,1.59,1.76,1.76,0,0,0,1.39.54,2.79,2.79,0,0,0,1.78-.65l.3.65a2.48,2.48,0,0,1-.93.54,3.54,3.54,0,0,1-1.16.2,2.69,2.69,0,0,1-2-.77,2.86,2.86,0,0,1-.74-2.09,3.25,3.25,0,0,1,.33-1.5,2.47,2.47,0,0,1,.92-1,2.58,2.58,0,0,1,1.36-.36,2.16,2.16,0,0,1,1.72.72,2.9,2.9,0,0,1,.63,2Zm-3.47-1.76a2,2,0,0,0-.56,1.17h3.23a2,2,0,0,0-.46-1.19,1.43,1.43,0,0,0-1.08-.4A1.55,1.55,0,0,0,168.77,171.51Z"/></g><g class="cls-2"><path class="cls-3" d="M24.43,181.16v8.1h-.88v-1a1.77,1.77,0,0,1-.73.8,2.35,2.35,0,0,1-1.14.28A2.24,2.24,0,0,1,20.4,189a2.37,2.37,0,0,1-.86-1,3.47,3.47,0,0,1-.31-1.52,3.52,3.52,0,0,1,.3-1.5,2.26,2.26,0,0,1,.86-1,2.36,2.36,0,0,1,1.29-.35,2.18,2.18,0,0,1,1.13.28,1.67,1.67,0,0,1,.73.78v-3.5ZM23.11,188a3,3,0,0,0,0-3.14,1.5,1.5,0,0,0-1.25-.56,1.56,1.56,0,0,0-1.27.55,2.35,2.35,0,0,0-.46,1.55,2.41,2.41,0,0,0,.46,1.59,1.52,1.52,0,0,0,1.27.57A1.48,1.48,0,0,0,23.11,188Z"/><path class="cls-3" d="M31,183.73v5.53h-.88v-1a1.77,1.77,0,0,1-.73.8,2.35,2.35,0,0,1-1.14.28A2.4,2.4,0,0,1,27,189a2.34,2.34,0,0,1-.86-1,3.52,3.52,0,0,1-.3-1.5,3.42,3.42,0,0,1,.31-1.51,2.34,2.34,0,0,1,.86-1,2.31,2.31,0,0,1,1.28-.36,2.18,2.18,0,0,1,1.13.28,1.85,1.85,0,0,1,.74.8v-1ZM29.71,188a3,3,0,0,0,0-3.15,1.7,1.7,0,0,0-2.52,0,2.94,2.94,0,0,0,0,3.14,1.55,1.55,0,0,0,1.28.55A1.48,1.48,0,0,0,29.71,188Z"/><path class="cls-3" d="M34,184.43v3a1.18,1.18,0,0,0,.25.86,1,1,0,0,0,.71.25,2,2,0,0,0,.6-.1v.76a2.65,2.65,0,0,1-.77.11,1.67,1.67,0,0,1-1.24-.45,1.75,1.75,0,0,1-.45-1.31v-3.15H32v-.7h1.07v-1.42L34,182v1.74h1.58v.7Z"/><path class="cls-3" d="M50.32,185.78v3.48h-.89v-3.43a1.86,1.86,0,0,0-.27-1.13,1,1,0,0,0-.87-.36,1.34,1.34,0,0,0-1.1.48,1.94,1.94,0,0,0-.4,1.28v3.16H45.9v-3.43a1.9,1.9,0,0,0-.27-1.13,1,1,0,0,0-.88-.36,1.38,1.38,0,0,0-1.11.48,1.89,1.89,0,0,0-.4,1.28v3.16h-.89v-4a12.1,12.1,0,0,0-.09-1.55h.85l.09,1a1.73,1.73,0,0,1,.68-.82A2,2,0,0,1,45,183.6a1.91,1.91,0,0,1,1.07.26,1.56,1.56,0,0,1,.62.81,1.92,1.92,0,0,1,.74-.78,2.09,2.09,0,0,1,1.11-.29C49.71,183.6,50.32,184.32,50.32,185.78Z"/><path class="cls-3" d="M52.93,189a2.44,2.44,0,0,1-.92-1,3.39,3.39,0,0,1-.32-1.51A3.44,3.44,0,0,1,52,185a2.41,2.41,0,0,1,.92-1,2.62,2.62,0,0,1,1.38-.35,2.56,2.56,0,0,1,1.37.35,2.35,2.35,0,0,1,.92,1,3.31,3.31,0,0,1,.32,1.52A3.26,3.26,0,0,1,56.6,188a2.37,2.37,0,0,1-.92,1,2.66,2.66,0,0,1-1.37.35A2.72,2.72,0,0,1,52.93,189Zm2.64-.93a2.53,2.53,0,0,0,.44-1.59,2.43,2.43,0,0,0-.45-1.57,1.7,1.7,0,0,0-2.52,0,2.43,2.43,0,0,0-.45,1.57,2.47,2.47,0,0,0,.45,1.59,1.54,1.54,0,0,0,1.27.54A1.52,1.52,0,0,0,55.57,188.06Z"/><path class="cls-3" d="M59.22,189a2.35,2.35,0,0,1-.91-1,3.26,3.26,0,0,1-.33-1.51,3.31,3.31,0,0,1,.33-1.52,2.33,2.33,0,0,1,.91-1,2.62,2.62,0,0,1,1.38-.35A2.56,2.56,0,0,1,62,184a2.29,2.29,0,0,1,.92,1,3.31,3.31,0,0,1,.33,1.52,3.26,3.26,0,0,1-.33,1.51,2.31,2.31,0,0,1-.92,1,2.66,2.66,0,0,1-1.37.35A2.72,2.72,0,0,1,59.22,189Zm2.64-.93a2.47,2.47,0,0,0,.44-1.59,2.43,2.43,0,0,0-.45-1.57,1.53,1.53,0,0,0-1.25-.56,1.55,1.55,0,0,0-1.27.56,2.43,2.43,0,0,0-.45,1.57,2.47,2.47,0,0,0,.45,1.59,1.54,1.54,0,0,0,1.27.54A1.52,1.52,0,0,0,61.86,188.06Z"/><path class="cls-3" d="M64.51,181.38H65.6v1H64.51Zm.09,7.88v-5.53h.89v5.53Z"/><path class="cls-3" d="M71,189a2.34,2.34,0,0,1-.92-1,3.25,3.25,0,0,1-.33-1.5,3.29,3.29,0,0,1,.33-1.51,2.38,2.38,0,0,1,.94-1,2.76,2.76,0,0,1,1.43-.36,3.07,3.07,0,0,1,1.08.19,2.24,2.24,0,0,1,.86.53l-.29.66a3.18,3.18,0,0,0-.81-.48,2.24,2.24,0,0,0-.8-.16,1.65,1.65,0,0,0-1.33.57,2.37,2.37,0,0,0-.48,1.58,2.28,2.28,0,0,0,.47,1.55,1.65,1.65,0,0,0,1.34.56,2.22,2.22,0,0,0,.8-.15,3.57,3.57,0,0,0,.81-.49l.29.66a2.55,2.55,0,0,1-.88.53,3.5,3.5,0,0,1-1.11.19A2.77,2.77,0,0,1,71,189Z"/><path class="cls-3" d="M76.45,189a2.37,2.37,0,0,1-.92-1,3.26,3.26,0,0,1-.32-1.51,3.31,3.31,0,0,1,.32-1.52,2.35,2.35,0,0,1,.92-1,2.59,2.59,0,0,1,1.37-.35,2.62,2.62,0,0,1,1.38.35,2.35,2.35,0,0,1,.92,1,3.44,3.44,0,0,1,.32,1.52,3.39,3.39,0,0,1-.32,1.51,2.37,2.37,0,0,1-.92,1,2.72,2.72,0,0,1-1.38.35A2.68,2.68,0,0,1,76.45,189Zm2.64-.93a2.53,2.53,0,0,0,.44-1.59,2.43,2.43,0,0,0-.45-1.57,1.7,1.7,0,0,0-2.52,0,2.43,2.43,0,0,0-.45,1.57,2.53,2.53,0,0,0,.44,1.59,1.76,1.76,0,0,0,2.54,0Z"/><path class="cls-3" d="M89.8,185.78v3.48h-.89v-3.43a1.86,1.86,0,0,0-.27-1.13,1,1,0,0,0-.87-.36,1.34,1.34,0,0,0-1.1.48,1.89,1.89,0,0,0-.4,1.28v3.16h-.89v-3.43a1.9,1.9,0,0,0-.27-1.13,1,1,0,0,0-.88-.36,1.38,1.38,0,0,0-1.11.48,1.89,1.89,0,0,0-.4,1.28v3.16h-.89v-4a12.1,12.1,0,0,0-.09-1.55h.85l.08,1a1.81,1.81,0,0,1,.69-.82,2.25,2.25,0,0,1,2.14,0,1.56,1.56,0,0,1,.62.81,1.85,1.85,0,0,1,.74-.78A2.09,2.09,0,0,1,88,183.6C89.19,183.6,89.8,184.32,89.8,185.78Z"/><path class="cls-3" d="M95.54,184a2.22,2.22,0,0,1,.87,1,3.38,3.38,0,0,1,.31,1.5,3.47,3.47,0,0,1-.31,1.52,2.32,2.32,0,0,1-.87,1,2.39,2.39,0,0,1-2.42.08,1.85,1.85,0,0,1-.73-.81v1H91.5v-8.1h.89v3.55a1.74,1.74,0,0,1,.73-.83,2.24,2.24,0,0,1,1.14-.28A2.3,2.3,0,0,1,95.54,184ZM95.35,188a2.47,2.47,0,0,0,.45-1.59,2.4,2.4,0,0,0-.45-1.55,1.72,1.72,0,0,0-2.52,0,3,3,0,0,0,0,3.15,1.48,1.48,0,0,0,1.26.56A1.51,1.51,0,0,0,95.35,188Z"/><path class="cls-3" d="M98,181.38H99.1v1H98Zm.09,7.88v-5.53H99v5.53Z"/><path class="cls-3" d="M105.47,185.78v3.48h-.89v-3.43a1.75,1.75,0,0,0-.31-1.13,1.22,1.22,0,0,0-1-.36,1.63,1.63,0,0,0-1.23.48,1.72,1.72,0,0,0-.46,1.27v3.17h-.9v-4a12.22,12.22,0,0,0-.08-1.55h.84l.09,1a1.8,1.8,0,0,1,.76-.83,2.22,2.22,0,0,1,1.16-.29C104.8,183.6,105.47,184.32,105.47,185.78Z"/><path class="cls-3" d="M111.78,186.47h-4.06a2.38,2.38,0,0,0,.49,1.59,1.76,1.76,0,0,0,1.39.54,2.79,2.79,0,0,0,1.78-.65l.3.65a2.48,2.48,0,0,1-.93.54,3.54,3.54,0,0,1-1.16.2,2.69,2.69,0,0,1-2-.77,2.86,2.86,0,0,1-.74-2.09,3.25,3.25,0,0,1,.33-1.5,2.47,2.47,0,0,1,.92-1,2.58,2.58,0,0,1,1.36-.36,2.15,2.15,0,0,1,1.72.72,2.9,2.9,0,0,1,.63,2Zm-3.47-1.76a2,2,0,0,0-.56,1.17H111a1.91,1.91,0,0,0-.46-1.18,1.4,1.4,0,0,0-1.08-.41A1.56,1.56,0,0,0,108.31,184.71Z"/><path class="cls-3" d="M117.76,186.47h-4.05a2.38,2.38,0,0,0,.48,1.59,1.78,1.78,0,0,0,1.4.54,2.81,2.81,0,0,0,1.78-.65l.3.65a2.65,2.65,0,0,1-.93.54,3.58,3.58,0,0,1-1.16.2,2.7,2.7,0,0,1-2-.77,2.9,2.9,0,0,1-.74-2.09,3.25,3.25,0,0,1,.33-1.5,2.42,2.42,0,0,1,.93-1,2.52,2.52,0,0,1,1.35-.36,2.18,2.18,0,0,1,1.73.72,3,3,0,0,1,.62,2Zm-3.47-1.76a2,2,0,0,0-.55,1.17H117a1.85,1.85,0,0,0-.46-1.18,1.4,1.4,0,0,0-1.08-.41A1.56,1.56,0,0,0,114.29,184.71Z"/></g><g class="cls-2"><path class="cls-3" d="M122.2,183.66l0,.82a1.78,1.78,0,0,0-.59-.09,1.4,1.4,0,0,0-1.19.5,1.91,1.91,0,0,0-.39,1.21v3.16h-.89v-4a12.1,12.1,0,0,0-.09-1.55h.85l.08,1a1.72,1.72,0,0,1,.68-.86,1.86,1.86,0,0,1,1-.29A2,2,0,0,1,122.2,183.66Z"/></g><g class="cls-2"><path class="cls-3" d="M124.72,184.43v3a1.18,1.18,0,0,0,.25.86,1,1,0,0,0,.71.25,2,2,0,0,0,.6-.1v.76a2.65,2.65,0,0,1-.77.11,1.67,1.67,0,0,1-1.24-.45,1.75,1.75,0,0,1-.44-1.31v-3.15h-1.08v-.7h1.08v-1.42l.89-.32v1.74h1.58v.7Z"/><path class="cls-3" d="M138.22,185.78v3.48h-.89v-3.43a1.86,1.86,0,0,0-.27-1.13,1,1,0,0,0-.87-.36,1.34,1.34,0,0,0-1.1.48,1.94,1.94,0,0,0-.4,1.28v3.16h-.89v-3.43a1.9,1.9,0,0,0-.27-1.13,1,1,0,0,0-.88-.36,1.38,1.38,0,0,0-1.11.48,1.89,1.89,0,0,0-.4,1.28v3.16h-.89v-4a12.1,12.1,0,0,0-.09-1.55H131l.09,1a1.73,1.73,0,0,1,.68-.82,2,2,0,0,1,1.06-.28,1.94,1.94,0,0,1,1.08.26,1.56,1.56,0,0,1,.62.81,1.92,1.92,0,0,1,.74-.78,2.09,2.09,0,0,1,1.11-.29C137.61,183.6,138.22,184.32,138.22,185.78Z"/></g><g class="cls-2"><path class="cls-3" d="M144.55,186.47h-4.06a2.38,2.38,0,0,0,.49,1.59,1.76,1.76,0,0,0,1.39.54,2.79,2.79,0,0,0,1.78-.65l.3.65a2.48,2.48,0,0,1-.93.54,3.54,3.54,0,0,1-1.16.2,2.68,2.68,0,0,1-2-.77,2.86,2.86,0,0,1-.74-2.09,3.25,3.25,0,0,1,.33-1.5,2.47,2.47,0,0,1,.92-1,2.57,2.57,0,0,1,1.35-.36,2.17,2.17,0,0,1,1.73.72,2.9,2.9,0,0,1,.63,2Zm-3.47-1.76a2,2,0,0,0-.56,1.17h3.23a1.91,1.91,0,0,0-.46-1.18,1.4,1.4,0,0,0-1.08-.41A1.55,1.55,0,0,0,141.08,184.71Z"/></g><g class="cls-2"><path class="cls-3" d="M147.06,184.43v3a1.18,1.18,0,0,0,.25.86,1,1,0,0,0,.71.25,2,2,0,0,0,.6-.1v.76a2.65,2.65,0,0,1-.77.11,1.67,1.67,0,0,1-1.24-.45,1.75,1.75,0,0,1-.44-1.31v-3.15h-1.08v-.7h1.08v-1.42l.89-.32v1.74h1.58v.7Z"/><path class="cls-3" d="M158.85,189.26h-1l-1-2.61a1.1,1.1,0,0,0-.49-.65,1.92,1.92,0,0,0-.88-.16h-2v3.42h-.89v-7.83h3.11a3,3,0,0,1,1.94.56,2,2,0,0,1,.68,1.62,2,2,0,0,1-.4,1.29,2.21,2.21,0,0,1-1.16.74,1.14,1.14,0,0,1,.58.29,1.92,1.92,0,0,1,.41.68Zm-3.12-4.17c1.21,0,1.81-.49,1.81-1.47a1.33,1.33,0,0,0-.44-1.09,2.21,2.21,0,0,0-1.37-.35h-2.14v2.91Z"/><path class="cls-3" d="M164.84,183.73v5.53H164v-1a1.76,1.76,0,0,1-.73.77,2.13,2.13,0,0,1-1.07.27,2,2,0,0,1-1.49-.55,2.37,2.37,0,0,1-.5-1.63v-3.43h.89v3.41a1.62,1.62,0,0,0,.31,1.1,1.17,1.17,0,0,0,.93.35,1.56,1.56,0,0,0,1.19-.48,1.77,1.77,0,0,0,.45-1.26v-3.12Z"/><path class="cls-3" d="M170.61,184a2.34,2.34,0,0,1,.87,1,3.52,3.52,0,0,1,.3,1.5,3.62,3.62,0,0,1-.3,1.52,2.46,2.46,0,0,1-.87,1,2.29,2.29,0,0,1-1.29.37,2.18,2.18,0,0,1-1.13-.29,1.82,1.82,0,0,1-.74-.81v1h-.89v-8.1h.89v3.55a1.74,1.74,0,0,1,.73-.83,2.24,2.24,0,0,1,1.14-.28A2.36,2.36,0,0,1,170.61,184Zm-.2,4.08a2.47,2.47,0,0,0,.45-1.59,2.4,2.4,0,0,0-.45-1.55,1.72,1.72,0,0,0-2.52,0,3,3,0,0,0,0,3.15,1.48,1.48,0,0,0,1.26.56A1.51,1.51,0,0,0,170.41,188Z"/><path class="cls-3" d="M173.07,181.38h1.09v1h-1.09Zm.09,7.88v-5.53h.89v5.53Z"/></g><g class="cls-2"><path class="cls-3" d="M180.67,189.26h-1.16l-2.84-2.66v2.66h-.89v-8.1h.89v5.11l2.61-2.53h1.13l-2.77,2.65Z"/></g><g class="cls-2"><path class="cls-3" d="M181.41,188.13h1.14v1.13h-1.14Z"/></g><g class="cls-2"><path class="cls-3" d="M19.67,207.83H22.3a4,4,0,0,1,2.91,1,3.88,3.88,0,0,1,1,2.88,4,4,0,0,1-1,2.91,4,4,0,0,1-2.91,1H19.67Zm2.57,7.06a3,3,0,0,0,2.28-.79,3.3,3.3,0,0,0,.77-2.37q0-3.14-3.05-3.13H20.57v6.29Z"/><path class="cls-3" d="M32.4,212.87H28.34a2.33,2.33,0,0,0,.49,1.59,1.74,1.74,0,0,0,1.39.54,2.81,2.81,0,0,0,1.78-.65l.3.65a2.65,2.65,0,0,1-.93.54,3.58,3.58,0,0,1-1.16.2,2.7,2.7,0,0,1-2-.77,2.9,2.9,0,0,1-.74-2.09,3.25,3.25,0,0,1,.33-1.5,2.42,2.42,0,0,1,.93-1A2.55,2.55,0,0,1,30,210a2.19,2.19,0,0,1,1.73.73,2.9,2.9,0,0,1,.63,2Zm-3.48-1.76a2,2,0,0,0-.55,1.17h3.22a1.9,1.9,0,0,0-.45-1.19,1.45,1.45,0,0,0-1.09-.4A1.56,1.56,0,0,0,28.92,211.11Z"/><path class="cls-3" d="M41.55,210.13v5.49a2.49,2.49,0,0,1-.64,1.86,2.52,2.52,0,0,1-1.86.63,4,4,0,0,1-2.18-.57l.16-.72a4.5,4.5,0,0,0,1,.42,3.72,3.72,0,0,0,1,.14,1.58,1.58,0,0,0,1.21-.43,1.75,1.75,0,0,0,.41-1.26v-1.31a1.81,1.81,0,0,1-.75.82,2.15,2.15,0,0,1-1.16.29,2.44,2.44,0,0,1-1.29-.34,2.19,2.19,0,0,1-.87-1,3.52,3.52,0,0,1,0-2.89,2.19,2.19,0,0,1,.87-1,2.45,2.45,0,0,1,1.29-.35,2.23,2.23,0,0,1,1.15.29,1.87,1.87,0,0,1,.75.8v-1Zm-1.35,4.08a2.56,2.56,0,0,0,0-2.93,1.55,1.55,0,0,0-1.26-.54,1.6,1.6,0,0,0-1.28.54,2.52,2.52,0,0,0,0,2.93,1.6,1.6,0,0,0,1.28.54A1.55,1.55,0,0,0,40.2,214.21Z"/></g><g class="cls-2"><path class="cls-3" d="M46.35,210.06l0,.81a2.1,2.1,0,0,0-.59-.08,1.4,1.4,0,0,0-1.19.5,1.91,1.91,0,0,0-.39,1.21v3.16h-.89v-4a12.1,12.1,0,0,0-.09-1.55H44l.09,1a1.65,1.65,0,0,1,.67-.86,1.87,1.87,0,0,1,1.05-.3A2,2,0,0,1,46.35,210.06Z"/></g><g class="cls-2"><path class="cls-3" d="M48.05,215.38a2.29,2.29,0,0,1-.92-1,3.39,3.39,0,0,1-.32-1.51,3.44,3.44,0,0,1,.32-1.52,2.35,2.35,0,0,1,.92-1,2.81,2.81,0,0,1,2.75,0,2.35,2.35,0,0,1,.92,1,3.31,3.31,0,0,1,.32,1.52,3.26,3.26,0,0,1-.32,1.51,2.29,2.29,0,0,1-.92,1,2.81,2.81,0,0,1-2.75,0Zm2.64-.92a2.53,2.53,0,0,0,.44-1.59,2.43,2.43,0,0,0-.45-1.57,1.7,1.7,0,0,0-2.52,0,2.43,2.43,0,0,0-.45,1.57,2.47,2.47,0,0,0,.45,1.59,1.54,1.54,0,0,0,1.27.54A1.52,1.52,0,0,0,50.69,214.46Z"/></g><g class="cls-2"><path class="cls-3" d="M54.34,215.38a2.29,2.29,0,0,1-.92-1,3.39,3.39,0,0,1-.32-1.51,3.44,3.44,0,0,1,.32-1.52,2.35,2.35,0,0,1,.92-1,2.81,2.81,0,0,1,2.75,0,2.35,2.35,0,0,1,.92,1,3.31,3.31,0,0,1,.32,1.52,3.26,3.26,0,0,1-.32,1.51,2.29,2.29,0,0,1-.92,1,2.81,2.81,0,0,1-2.75,0Zm2.64-.92a2.53,2.53,0,0,0,.44-1.59A2.43,2.43,0,0,0,57,211.3a1.7,1.7,0,0,0-2.52,0,2.43,2.43,0,0,0-.45,1.57,2.47,2.47,0,0,0,.45,1.59,1.54,1.54,0,0,0,1.27.54A1.52,1.52,0,0,0,57,214.46Z"/></g><g class="cls-2"><path class="cls-3" d="M60.9,210.83v3a1.18,1.18,0,0,0,.25.86,1,1,0,0,0,.71.25,2,2,0,0,0,.6-.1v.76a2.65,2.65,0,0,1-.77.11,1.67,1.67,0,0,1-1.24-.45A1.76,1.76,0,0,1,60,214v-3.15H58.93v-.7H60v-1.42l.9-.32v1.74h1.58v.7Z"/></g><g class="cls-2"><path class="cls-3" d="M64.78,210.83v3a1.18,1.18,0,0,0,.25.86,1,1,0,0,0,.71.25,2,2,0,0,0,.6-.1v.76a2.65,2.65,0,0,1-.77.11,1.67,1.67,0,0,1-1.24-.45,1.76,1.76,0,0,1-.45-1.31v-3.15H62.81v-.7h1.07v-1.42l.9-.32v1.74h1.58v.7Z"/><path class="cls-3" d="M72.07,212.87H68a2.38,2.38,0,0,0,.49,1.59,1.76,1.76,0,0,0,1.39.54,2.79,2.79,0,0,0,1.78-.65l.3.65a2.48,2.48,0,0,1-.93.54,3.54,3.54,0,0,1-1.16.2,2.68,2.68,0,0,1-2-.77,2.86,2.86,0,0,1-.74-2.09,3.25,3.25,0,0,1,.33-1.5,2.47,2.47,0,0,1,.92-1,2.58,2.58,0,0,1,1.35-.37,2.18,2.18,0,0,1,1.73.73,2.9,2.9,0,0,1,.63,2Zm-3.47-1.76a2,2,0,0,0-.56,1.17h3.23a2,2,0,0,0-.46-1.19,1.43,1.43,0,0,0-1.08-.4A1.55,1.55,0,0,0,68.6,211.11Z"/><path class="cls-3" d="M81,212.18v3.48h-.89v-3.43a1.74,1.74,0,0,0-.3-1.13,1.22,1.22,0,0,0-1-.36,1.6,1.6,0,0,0-1.23.48,1.73,1.73,0,0,0-.47,1.27v3.17h-.89v-8.1h.89V211a1.82,1.82,0,0,1,.76-.77,2.25,2.25,0,0,1,1.11-.27C80.38,210,81,210.72,81,212.18Z"/><path class="cls-3" d="M87.6,210.13v5.53h-.88v-1a1.77,1.77,0,0,1-.73.8,2.35,2.35,0,0,1-1.14.28,2.32,2.32,0,0,1-1.29-.36,2.26,2.26,0,0,1-.86-1,3.52,3.52,0,0,1-.3-1.5,3.42,3.42,0,0,1,.31-1.51,2.34,2.34,0,0,1,.86-1,2.31,2.31,0,0,1,1.28-.37,2.18,2.18,0,0,1,1.13.29,1.85,1.85,0,0,1,.74.8v-1Zm-1.32,4.31a3,3,0,0,0,0-3.15,1.7,1.7,0,0,0-2.52,0,2.94,2.94,0,0,0,0,3.14A1.55,1.55,0,0,0,85,215,1.48,1.48,0,0,0,86.28,214.44Z"/><path class="cls-3" d="M94.08,212.18v3.48h-.89v-3.43a1.68,1.68,0,0,0-.31-1.13,1.22,1.22,0,0,0-1-.36,1.63,1.63,0,0,0-1.23.48,1.72,1.72,0,0,0-.46,1.27v3.17h-.89v-4a12.1,12.1,0,0,0-.09-1.55h.85l.08,1a1.86,1.86,0,0,1,.76-.83,2.25,2.25,0,0,1,1.16-.3C93.42,210,94.08,210.72,94.08,212.18Z"/><path class="cls-3" d="M100.69,210.13v5.49a2.22,2.22,0,0,1-2.5,2.49,4,4,0,0,1-2.17-.57l.15-.72a4.37,4.37,0,0,0,1,.42,3.64,3.64,0,0,0,1,.14A1.57,1.57,0,0,0,99.4,217a1.75,1.75,0,0,0,.41-1.26v-1.31a1.85,1.85,0,0,1-.74.82,2.2,2.2,0,0,1-1.16.29,2.45,2.45,0,0,1-1.3-.34,2.32,2.32,0,0,1-.87-1,3.52,3.52,0,0,1,0-2.89,2.32,2.32,0,0,1,.87-1,2.46,2.46,0,0,1,1.3-.35,2.26,2.26,0,0,1,1.15.29,1.91,1.91,0,0,1,.74.8v-1Zm-1.35,4.08a2.56,2.56,0,0,0,0-2.93,1.55,1.55,0,0,0-1.26-.54,1.6,1.6,0,0,0-1.28.54,2.52,2.52,0,0,0,0,2.93,1.6,1.6,0,0,0,1.28.54A1.55,1.55,0,0,0,99.34,214.21Z"/><path class="cls-3" d="M103.59,210.83v3a1.18,1.18,0,0,0,.26.86,1,1,0,0,0,.71.25,2,2,0,0,0,.6-.1v.76a2.65,2.65,0,0,1-.77.11,1.67,1.67,0,0,1-1.24-.45,1.76,1.76,0,0,1-.45-1.31v-3.15h-1.07v-.7h1.07v-1.42l.89-.32v1.74h1.59v.7Z"/><path class="cls-3" d="M114,210.13v5.53h-.88v-1a1.82,1.82,0,0,1-.73.8,2.35,2.35,0,0,1-1.14.28,2.32,2.32,0,0,1-1.29-.36,2.26,2.26,0,0,1-.86-1,3.52,3.52,0,0,1-.3-1.5,3.57,3.57,0,0,1,.3-1.51,2.43,2.43,0,0,1,.87-1,2.31,2.31,0,0,1,1.28-.37,2.18,2.18,0,0,1,1.13.29,1.85,1.85,0,0,1,.74.8v-1Zm-1.32,4.31a3,3,0,0,0,0-3.15,1.7,1.7,0,0,0-2.52,0,2.94,2.94,0,0,0,0,3.14,1.55,1.55,0,0,0,1.28.55A1.48,1.48,0,0,0,112.68,214.44Z"/><path class="cls-3" d="M117.16,208.54a1.2,1.2,0,0,0-.24.85v.74h1.35v.7h-1.35v4.83H116v-4.83H115v-.7H116v-.85a1.79,1.79,0,0,1,.44-1.31,1.6,1.6,0,0,1,1.21-.45,2.66,2.66,0,0,1,.75.1v.76a2,2,0,0,0-.57-.09A.93.93,0,0,0,117.16,208.54Z"/></g><g class="cls-2"><path class="cls-3" d="M126.28,210.14h.89l-2.39,5.52h-.84l-2.36-5.52h.94l1.87,4.55Z"/></g><g class="cls-2"><path class="cls-3" d="M133,210.13v5.53h-.88v-1a1.77,1.77,0,0,1-.73.8,2.35,2.35,0,0,1-1.14.28,2.32,2.32,0,0,1-1.29-.36,2.26,2.26,0,0,1-.86-1,3.52,3.52,0,0,1-.3-1.5,3.42,3.42,0,0,1,.31-1.51,2.34,2.34,0,0,1,.86-1,2.31,2.31,0,0,1,1.28-.37,2.18,2.18,0,0,1,1.13.29,1.85,1.85,0,0,1,.74.8v-1Zm-1.32,4.31a3,3,0,0,0,0-3.15,1.7,1.7,0,0,0-2.52,0,2.94,2.94,0,0,0,0,3.14,1.55,1.55,0,0,0,1.28.55A1.48,1.48,0,0,0,131.63,214.44Z"/><path class="cls-3" d="M139.43,212.18v3.48h-.89v-3.43a1.68,1.68,0,0,0-.31-1.13,1.2,1.2,0,0,0-1-.36,1.63,1.63,0,0,0-1.23.48,1.72,1.72,0,0,0-.46,1.27v3.17h-.89v-4a12.1,12.1,0,0,0-.09-1.55h.85l.09,1a1.78,1.78,0,0,1,.75-.83,2.25,2.25,0,0,1,1.16-.3C138.77,210,139.43,210.72,139.43,212.18Z"/><path class="cls-3" d="M148.74,212.18v3.48h-.9v-3.43a1.74,1.74,0,0,0-.3-1.13,1.22,1.22,0,0,0-1-.36,1.62,1.62,0,0,0-1.23.48,1.72,1.72,0,0,0-.46,1.27v3.17H144v-8.1h.9V211a1.74,1.74,0,0,1,.75-.77,2.26,2.26,0,0,1,1.12-.27C148.07,210,148.74,210.72,148.74,212.18Z"/></g><g class="cls-2"><path class="cls-3" d="M155.05,212.87H151a2.38,2.38,0,0,0,.49,1.59,1.76,1.76,0,0,0,1.39.54,2.79,2.79,0,0,0,1.78-.65l.3.65a2.48,2.48,0,0,1-.93.54,3.54,3.54,0,0,1-1.16.2,2.68,2.68,0,0,1-2-.77,2.86,2.86,0,0,1-.74-2.09,3.25,3.25,0,0,1,.33-1.5,2.47,2.47,0,0,1,.92-1,2.58,2.58,0,0,1,1.35-.37,2.18,2.18,0,0,1,1.73.73,2.9,2.9,0,0,1,.63,2Zm-3.47-1.76a2,2,0,0,0-.56,1.17h3.23a2,2,0,0,0-.46-1.19,1.43,1.43,0,0,0-1.08-.4A1.55,1.55,0,0,0,151.58,211.11Z"/></g><g class="cls-2"><path class="cls-3" d="M157.57,210.83v3a1.18,1.18,0,0,0,.25.86,1,1,0,0,0,.71.25,2,2,0,0,0,.6-.1v.76a2.65,2.65,0,0,1-.77.11,1.67,1.67,0,0,1-1.24-.45,1.76,1.76,0,0,1-.45-1.31v-3.15H155.6v-.7h1.07v-1.42l.9-.32v1.74h1.58v.7Z"/></g><g class="cls-2"><path class="cls-3" d="M20.75,224v3a1.18,1.18,0,0,0,.25.86,1,1,0,0,0,.71.25,2,2,0,0,0,.6-.1v.76a2.65,2.65,0,0,1-.77.11,1.67,1.67,0,0,1-1.24-.45,1.75,1.75,0,0,1-.45-1.31V224H18.78v-.7h1.07v-1.42l.9-.32v1.74h1.58v.7Z"/></g><g class="cls-2"><path class="cls-3" d="M28.34,223.33l-2.59,6a3.16,3.16,0,0,1-1,1.38,3.6,3.6,0,0,1-1.52.61l-.18-.7a3.22,3.22,0,0,0,1.18-.46,2.22,2.22,0,0,0,.67-.9l.22-.49-2.35-5.48h.94l1.87,4.56,1.89-4.56Z"/><path class="cls-3" d="M33.37,223.56a2.43,2.43,0,0,1,.87,1,3.57,3.57,0,0,1,.3,1.51,3.52,3.52,0,0,1-.3,1.5,2.34,2.34,0,0,1-.87,1,2.32,2.32,0,0,1-1.29.36,2.18,2.18,0,0,1-1.13-.29,1.82,1.82,0,0,1-.74-.81v3.4h-.89v-6.36a12.1,12.1,0,0,0-.09-1.55h.85l.09,1.06a1.76,1.76,0,0,1,.73-.88,2.14,2.14,0,0,1,1.18-.31A2.36,2.36,0,0,1,33.37,223.56Zm-.2,4.09a2.42,2.42,0,0,0,.45-1.56,2.48,2.48,0,0,0-.45-1.58,1.51,1.51,0,0,0-1.25-.57,1.54,1.54,0,0,0-1.27.55,3,3,0,0,0,0,3.15,1.71,1.71,0,0,0,2.52,0Z"/><path class="cls-3" d="M40.55,226.07H36.49a2.38,2.38,0,0,0,.49,1.59,1.76,1.76,0,0,0,1.39.54,2.79,2.79,0,0,0,1.78-.65l.3.65a2.48,2.48,0,0,1-.93.54,3.54,3.54,0,0,1-1.16.2,2.69,2.69,0,0,1-2-.77,2.86,2.86,0,0,1-.74-2.09,3.25,3.25,0,0,1,.33-1.5,2.47,2.47,0,0,1,.92-1,2.58,2.58,0,0,1,1.36-.36,2.16,2.16,0,0,1,1.72.72,2.9,2.9,0,0,1,.63,2Zm-3.47-1.76a2,2,0,0,0-.56,1.17h3.23a2,2,0,0,0-.46-1.19,1.43,1.43,0,0,0-1.08-.4A1.56,1.56,0,0,0,37.08,224.31Z"/><path class="cls-3" d="M46,224v3a1.23,1.23,0,0,0,.25.86,1,1,0,0,0,.72.25,2,2,0,0,0,.59-.1v.76a2.55,2.55,0,0,1-.77.11,1.65,1.65,0,0,1-1.23-.45,1.75,1.75,0,0,1-.45-1.31V224H44v-.7h1.08v-1.42l.89-.32v1.74h1.59v.7Z"/><path class="cls-3" d="M49.54,228.58a2.23,2.23,0,0,1-.92-1,3.26,3.26,0,0,1-.33-1.51,3.31,3.31,0,0,1,.33-1.52,2.29,2.29,0,0,1,.92-1,2.56,2.56,0,0,1,1.37-.35,2.62,2.62,0,0,1,1.38.35,2.41,2.41,0,0,1,.92,1,3.44,3.44,0,0,1,.32,1.52,3.39,3.39,0,0,1-.32,1.51,2.35,2.35,0,0,1-.92,1,2.63,2.63,0,0,1-1.38.36A2.57,2.57,0,0,1,49.54,228.58Zm2.64-.92a2.53,2.53,0,0,0,.44-1.59,2.43,2.43,0,0,0-.45-1.57,1.7,1.7,0,0,0-2.52,0,2.43,2.43,0,0,0-.45,1.57,2.47,2.47,0,0,0,.44,1.59,1.76,1.76,0,0,0,2.54,0Z"/><path class="cls-3" d="M59.55,226.07H55.49a2.33,2.33,0,0,0,.49,1.59,1.76,1.76,0,0,0,1.39.54,2.81,2.81,0,0,0,1.78-.65l.3.65a2.48,2.48,0,0,1-.93.54,3.58,3.58,0,0,1-1.16.2,2.7,2.7,0,0,1-2-.77,2.89,2.89,0,0,1-.73-2.09,3.25,3.25,0,0,1,.33-1.5,2.4,2.4,0,0,1,.92-1,2.57,2.57,0,0,1,1.35-.36,2.17,2.17,0,0,1,1.73.72,2.9,2.9,0,0,1,.63,2Zm-3.47-1.76a2,2,0,0,0-.56,1.17h3.22a1.9,1.9,0,0,0-.45-1.19,1.43,1.43,0,0,0-1.09-.4A1.54,1.54,0,0,0,56.08,224.31Z"/><path class="cls-3" d="M65,223.56a2.43,2.43,0,0,1,.87,1,3.57,3.57,0,0,1,.3,1.51,3.52,3.52,0,0,1-.3,1.5,2.34,2.34,0,0,1-.87,1,2.32,2.32,0,0,1-1.29.36,2.18,2.18,0,0,1-1.13-.29,1.82,1.82,0,0,1-.74-.81v3.4H60.9v-6.36a12.1,12.1,0,0,0-.09-1.55h.85l.09,1.06a1.76,1.76,0,0,1,.73-.88,2.16,2.16,0,0,1,1.18-.31A2.36,2.36,0,0,1,65,223.56Zm-.2,4.09a2.42,2.42,0,0,0,.45-1.56,2.48,2.48,0,0,0-.45-1.58,1.51,1.51,0,0,0-1.25-.57,1.55,1.55,0,0,0-1.27.55,3,3,0,0,0,0,3.15,1.71,1.71,0,0,0,2.52,0Z"/><path class="cls-3" d="M72.37,223.33v5.53h-.88v-1a1.77,1.77,0,0,1-.73.8,2.35,2.35,0,0,1-1.14.28,2.32,2.32,0,0,1-1.29-.36,2.26,2.26,0,0,1-.86-1,3.52,3.52,0,0,1-.3-1.5,3.42,3.42,0,0,1,.31-1.51,2.34,2.34,0,0,1,.86-1,2.31,2.31,0,0,1,1.28-.36,2.18,2.18,0,0,1,1.13.28,1.85,1.85,0,0,1,.74.8v-.95Zm-1.32,4.31a3,3,0,0,0,0-3.15,1.7,1.7,0,0,0-2.52,0,2.94,2.94,0,0,0,0,3.14,1.55,1.55,0,0,0,1.28.55A1.48,1.48,0,0,0,71.05,227.64Z"/><path class="cls-3" d="M73.76,228.22l.3-.66a2.87,2.87,0,0,0,.91.51,3.33,3.33,0,0,0,1,.15,1.74,1.74,0,0,0,1-.21.75.75,0,0,0,.11-1.15,1.61,1.61,0,0,0-.73-.31l-.93-.22a2.13,2.13,0,0,1-1.08-.55,1.32,1.32,0,0,1-.37-.95,1.44,1.44,0,0,1,.58-1.18,2.45,2.45,0,0,1,1.54-.45,3.34,3.34,0,0,1,1.1.18,2.56,2.56,0,0,1,.87.54l-.3.65a2.59,2.59,0,0,0-1.67-.65,1.6,1.6,0,0,0-.92.23.71.71,0,0,0-.32.63.69.69,0,0,0,.2.54,1.46,1.46,0,0,0,.65.31l.94.23a2.34,2.34,0,0,1,1.14.54,1.3,1.3,0,0,1,.38,1,1.37,1.37,0,0,1-.59,1.15,2.64,2.64,0,0,1-1.58.43A3.21,3.21,0,0,1,73.76,228.22Z"/><path class="cls-3" d="M79.21,228.22l.3-.66a3,3,0,0,0,.91.51,3.39,3.39,0,0,0,1,.15,1.76,1.76,0,0,0,1-.21.69.69,0,0,0,.32-.62.67.67,0,0,0-.22-.53,1.52,1.52,0,0,0-.72-.31l-.94-.22a2.06,2.06,0,0,1-1.07-.55,1.33,1.33,0,0,1-.38-.95,1.46,1.46,0,0,1,.58-1.18,2.47,2.47,0,0,1,1.54-.45,3.3,3.3,0,0,1,1.1.18,2.38,2.38,0,0,1,.87.54l-.29.65a2.59,2.59,0,0,0-1.68-.65,1.57,1.57,0,0,0-.91.23.72.72,0,0,0-.33.63.73.73,0,0,0,.2.54,1.56,1.56,0,0,0,.66.31l.93.23a2.33,2.33,0,0,1,1.15.54,1.3,1.3,0,0,1,.37,1,1.36,1.36,0,0,1-.58,1.15,2.67,2.67,0,0,1-1.58.43A3.24,3.24,0,0,1,79.21,228.22Z"/><path class="cls-3" d="M84.92,221H86v1H84.92Zm.09,7.88v-5.53h.89v5.53Z"/><path class="cls-3" d="M92.38,225.38v3.48h-.89v-3.43a1.68,1.68,0,0,0-.31-1.13,1.2,1.2,0,0,0-1-.36,1.63,1.63,0,0,0-1.23.48,1.72,1.72,0,0,0-.46,1.27v3.17h-.89v-4a12.1,12.1,0,0,0-.09-1.55h.85l.09,1a1.78,1.78,0,0,1,.75-.83,2.25,2.25,0,0,1,1.16-.29C91.72,223.2,92.38,223.92,92.38,225.38Z"/><path class="cls-3" d="M99,223.33v5.49a2.22,2.22,0,0,1-2.5,2.49,4,4,0,0,1-2.17-.57l.15-.72a4.37,4.37,0,0,0,1,.42,3.64,3.64,0,0,0,1,.14,1.57,1.57,0,0,0,1.21-.43,1.71,1.71,0,0,0,.41-1.26v-1.31a1.79,1.79,0,0,1-.74.82,2.18,2.18,0,0,1-1.16.3,2.4,2.4,0,0,1-1.29-.35,2.28,2.28,0,0,1-.88-1,3.52,3.52,0,0,1,0-2.89,2.28,2.28,0,0,1,.88-1,2.39,2.39,0,0,1,1.29-.34,2.25,2.25,0,0,1,1.15.28,1.91,1.91,0,0,1,.74.8v-.95Zm-1.35,4.08a2.56,2.56,0,0,0,0-2.93,1.55,1.55,0,0,0-1.26-.54,1.6,1.6,0,0,0-1.28.54,2.56,2.56,0,0,0,0,2.93,1.6,1.6,0,0,0,1.28.54A1.55,1.55,0,0,0,97.64,227.41Z"/><path class="cls-3" d="M100.55,227.73h1.14v1.13h-1.14Z"/></g></g></svg>