<svg id="Laag_1" data-name="Laag 1" xmlns="http://www.w3.org/2000/svg" viewBox="0 0 225.41 247.63"><defs><style>.cls-1{fill:#ffc800;}.cls-2{isolation:isolate;}.cls-3{fill:#fff;}.cls-4{fill:#261f5b;}</style></defs><rect class="cls-1" width="225.41" height="247.63"/><g class="cls-2"><g class="cls-2"><path class="cls-3" d="M16.47,39a.67.67,0,0,1-.2-.47V21.08a.69.69,0,0,1,.19-.5.66.66,0,0,1,.49-.2h7.4A8.65,8.65,0,0,1,29.92,22a5.53,5.53,0,0,1,2,4.55,5.7,5.7,0,0,1-.87,3.21,5.81,5.81,0,0,1-2.41,2l3.63,6.58a.58.58,0,0,1,.08.29.57.57,0,0,1-.16.4.53.53,0,0,1-.4.17H28a1.11,1.11,0,0,1-1.1-.73l-3-5.84H21.34v5.9a.61.61,0,0,1-.21.48.67.67,0,0,1-.49.19H17A.69.69,0,0,1,16.47,39Zm7.86-10.33a2.47,2.47,0,0,0,1.76-.58,2.1,2.1,0,0,0,.61-1.61,2.22,2.22,0,0,0-.61-1.64,2.36,2.36,0,0,0-1.76-.62h-3v4.45Z"/><path class="cls-3" d="M36,37.92a6.43,6.43,0,0,1-1.46-4.5V25.9a.63.63,0,0,1,.21-.48.64.64,0,0,1,.47-.19h3.58a.69.69,0,0,1,.5.19.66.66,0,0,1,.2.48v7.36c0,1.67.75,2.5,2.24,2.5a2.16,2.16,0,0,0,1.68-.66,2.63,2.63,0,0,0,.61-1.84V25.9a.62.62,0,0,1,.2-.48.68.68,0,0,1,.5-.19H48.3a.66.66,0,0,1,.49.19.69.69,0,0,1,.19.48V38.57a.7.7,0,0,1-.19.47.66.66,0,0,1-.49.2H45a.68.68,0,0,1-.5-.19.61.61,0,0,1-.2-.48v-1a5.14,5.14,0,0,1-4.48,2A4.93,4.93,0,0,1,36,37.92Z"/><path class="cls-3" d="M56.63,37.73v.84a.7.7,0,0,1-.19.47.66.66,0,0,1-.49.2h-3.2a.68.68,0,0,1-.5-.19.64.64,0,0,1-.2-.48V20.79a.66.66,0,0,1,.2-.49.72.72,0,0,1,.5-.19h3.47a.65.65,0,0,1,.68.68v5.73A5.12,5.12,0,0,1,60.8,25a5.21,5.21,0,0,1,4.1,1.69,7.09,7.09,0,0,1,1.61,4.62c0,.23,0,.55,0,1s0,.71,0,.94a7.11,7.11,0,0,1-1.6,4.69,5.29,5.29,0,0,1-4.11,1.64A5.07,5.07,0,0,1,56.63,37.73ZM61,35.05a3.69,3.69,0,0,0,.6-2c0-.18,0-.46,0-.83s0-.66,0-.84a3.69,3.69,0,0,0-.6-2,2,2,0,0,0-1.74-.71,2.14,2.14,0,0,0-1.71.68,2.79,2.79,0,0,0-.63,1.74c0,.23,0,.57,0,1s0,.77,0,1A3.17,3.17,0,0,0,57.52,35a2.43,2.43,0,0,0,3.46,0Z"/><path class="cls-3" d="M69.32,23.09a.69.69,0,0,1-.19-.5v-2.5a.65.65,0,0,1,.2-.5.61.61,0,0,1,.47-.2h3.37a.66.66,0,0,1,.5.2.69.69,0,0,1,.2.5v2.5a.68.68,0,0,1-.7.7H69.8A.63.63,0,0,1,69.32,23.09Zm0,16a.63.63,0,0,1-.2-.47V25.9a.62.62,0,0,1,.2-.48.64.64,0,0,1,.47-.19h3.37a.69.69,0,0,1,.5.19.66.66,0,0,1,.2.48V38.57a.64.64,0,0,1-.2.48.69.69,0,0,1-.5.19H69.8A.65.65,0,0,1,69.33,39Z"/></g><g class="cls-2"><path class="cls-3" d="M77.14,39.05a.61.61,0,0,1-.2-.48V20.79a.63.63,0,0,1,.2-.49.72.72,0,0,1,.5-.19h3.28a.65.65,0,0,1,.68.68v9l3.58-4.09a2,2,0,0,1,.2-.19,1,1,0,0,1,.31-.2,1,1,0,0,1,.41-.07h3.79a.56.56,0,0,1,.42.18.57.57,0,0,1,.18.44.61.61,0,0,1-.19.43l-4.74,5.23L91,38.22a.68.68,0,0,1,.19.4.61.61,0,0,1-.18.45.6.6,0,0,1-.44.17H86.63a1,1,0,0,1-.52-.11,2.26,2.26,0,0,1-.42-.35L81.6,33.72v4.85a.7.7,0,0,1-.19.47.66.66,0,0,1-.49.2H77.64A.68.68,0,0,1,77.14,39.05Z"/></g><g class="cls-2"><path class="cls-3" d="M98.9,39a.67.67,0,0,1-.2-.47V21.08a.69.69,0,0,1,.19-.5.63.63,0,0,1,.48-.2h8.33a7.83,7.83,0,0,1,5.09,1.4,4.94,4.94,0,0,1,1.67,4,3.7,3.7,0,0,1-.69,2.24,4.52,4.52,0,0,1-1.52,1.37,4.31,4.31,0,0,1,1.86,1.6,4.44,4.44,0,0,1,.75,2.52,5.19,5.19,0,0,1-1.79,4.23,7.72,7.72,0,0,1-5.13,1.51H99.37A.67.67,0,0,1,98.9,39Zm8.23-11.2a2.12,2.12,0,0,0,1.54-.53,1.91,1.91,0,0,0,.54-1.41,1.85,1.85,0,0,0-.53-1.36,2.11,2.11,0,0,0-1.55-.52h-3.37v3.82Zm.24,7.76A2.15,2.15,0,0,0,109,35a2.09,2.09,0,0,0,.58-1.5A2.06,2.06,0,0,0,109,32a2.18,2.18,0,0,0-1.62-.61h-3.61V35.6Z"/><path class="cls-3" d="M119,37.93a6.09,6.09,0,0,1-2-4.48c0-.24,0-.64,0-1.21s0-1,0-1.22a6,6,0,0,1,2-4.45,9.07,9.07,0,0,1,10.32,0,6,6,0,0,1,2,4.45c0,.47.05.87.05,1.22s0,.74-.05,1.21a6.09,6.09,0,0,1-2,4.48,9.4,9.4,0,0,1-10.43,0Zm6.86-2.5a3.81,3.81,0,0,0,.62-2.12c0-.18,0-.54,0-1.07s0-.9,0-1.08a3.79,3.79,0,0,0-.62-2.1,2.28,2.28,0,0,0-3.29,0,3.71,3.71,0,0,0-.62,2.1l0,1.08,0,1.07a3.73,3.73,0,0,0,.62,2.12,2.33,2.33,0,0,0,3.29,0Z"/><path class="cls-3" d="M134.19,39.05a.64.64,0,0,1-.2-.48V20.79a.66.66,0,0,1,.2-.49.74.74,0,0,1,.5-.19h3.37a.65.65,0,0,1,.67.68V38.57a.66.66,0,0,1-.19.47.63.63,0,0,1-.48.2h-3.37A.69.69,0,0,1,134.19,39.05Z"/><path class="cls-3" d="M143,37.87a7.16,7.16,0,0,1-1.61-4.69l0-.94,0-1A7.15,7.15,0,0,1,143,26.65a5.21,5.21,0,0,1,4.1-1.69,5.14,5.14,0,0,1,3.9,1.56V20.79a.66.66,0,0,1,.2-.49.73.73,0,0,1,.48-.19h3.47a.74.74,0,0,1,.5.19.66.66,0,0,1,.2.49V38.57a.64.64,0,0,1-.2.48.69.69,0,0,1-.5.19h-3.2a.69.69,0,0,1-.48-.2.67.67,0,0,1-.2-.47v-.84a5.07,5.07,0,0,1-4.17,1.78A5.27,5.27,0,0,1,143,37.87ZM150.34,35a3.17,3.17,0,0,0,.62-1.87q.06-.75.06-1c0-.2,0-.53-.06-1a2.85,2.85,0,0,0-.63-1.74,2.14,2.14,0,0,0-1.71-.68,2,2,0,0,0-1.74.71,3.77,3.77,0,0,0-.61,2l0,.84,0,.83a3.77,3.77,0,0,0,.61,2,2.43,2.43,0,0,0,3.46,0Z"/></g></g><g class="cls-2"><g class="cls-2"><path class="cls-3" d="M16.73,65.39a.6.6,0,0,1-.19-.46V47.4a.69.69,0,0,1,.18-.49.58.58,0,0,1,.47-.19h7a7.92,7.92,0,0,1,5.18,1.54,5.31,5.31,0,0,1,1.87,4.36,5.57,5.57,0,0,1-.94,3.3,5.29,5.29,0,0,1-2.64,1.93l3.91,6.87a.71.71,0,0,1,.08.29.58.58,0,0,1-.57.57H28.58a1,1,0,0,1-.67-.2,1.92,1.92,0,0,1-.43-.53L24,58.47H20.34v6.46a.6.6,0,0,1-.19.46.63.63,0,0,1-.48.19H17.19A.62.62,0,0,1,16.73,65.39Zm7.35-10a3.56,3.56,0,0,0,2.43-.72,2.63,2.63,0,0,0,.81-2.09,2.71,2.71,0,0,0-.81-2.11,3.51,3.51,0,0,0-2.43-.74H20.34V55.4Z"/><path class="cls-3" d="M35.67,64.23a6.49,6.49,0,0,1-1.43-4.44V52.22a.58.58,0,0,1,.19-.47.63.63,0,0,1,.46-.18h2.42a.65.65,0,0,1,.65.65v7.41c0,2.2,1,3.31,2.88,3.31a2.88,2.88,0,0,0,2.22-.89,3.42,3.42,0,0,0,.83-2.42V52.22a.61.61,0,0,1,.18-.47.65.65,0,0,1,.46-.18h2.4a.63.63,0,0,1,.47.18.61.61,0,0,1,.18.47V64.93a.63.63,0,0,1-.18.46.6.6,0,0,1-.47.19H44.69a.58.58,0,0,1-.45-.19.6.6,0,0,1-.19-.46v-1.1a5.19,5.19,0,0,1-4.48,2A4.93,4.93,0,0,1,35.67,64.23Z"/><path class="cls-3" d="M54.63,63.94v1a.63.63,0,0,1-.18.46.66.66,0,0,1-.49.19H51.81a.65.65,0,0,1-.65-.65V47.1a.58.58,0,0,1,.19-.47.63.63,0,0,1,.46-.18h2.34a.63.63,0,0,1,.47.18.61.61,0,0,1,.18.47v6a5.75,5.75,0,0,1,8.31,0,7.33,7.33,0,0,1,1.55,4.62c0,.21,0,.51,0,.88s0,.66,0,.89a7.52,7.52,0,0,1-1.57,4.65,5.13,5.13,0,0,1-4.17,1.74A5.12,5.12,0,0,1,54.63,63.94ZM61,59.38c0-.18,0-.44,0-.81s0-.62,0-.8c-.13-2.37-1.15-3.56-3.08-3.56a2.8,2.8,0,0,0-2.26.94,3.7,3.7,0,0,0-.83,2.29q0,.33,0,1.05c0,.47,0,.81,0,1a4.13,4.13,0,0,0,.8,2.42,2.69,2.69,0,0,0,2.29,1C59.82,62.94,60.84,61.75,61,59.38Z"/><path class="cls-3" d="M67.75,49.09a.63.63,0,0,1-.18-.46v-2a.69.69,0,0,1,.18-.49.66.66,0,0,1,.46-.19h2.48a.7.7,0,0,1,.49.19.69.69,0,0,1,.18.49v2a.58.58,0,0,1-.2.46.64.64,0,0,1-.47.19H68.21A.62.62,0,0,1,67.75,49.09Zm.11,16.3a.64.64,0,0,1-.19-.46V52.22a.62.62,0,0,1,.19-.47.65.65,0,0,1,.46-.18h2.29a.62.62,0,0,1,.46.19.66.66,0,0,1,.19.46V64.93a.64.64,0,0,1-.19.46.62.62,0,0,1-.46.19H68.32A.62.62,0,0,1,67.86,65.39Z"/></g><g class="cls-2"><path class="cls-3" d="M75,65.39a.64.64,0,0,1-.19-.46V47.1a.62.62,0,0,1,.19-.47.65.65,0,0,1,.46-.18h2.24a.66.66,0,0,1,.46.19.65.65,0,0,1,.18.46v9.21L82.84,52s.14-.1.25-.2a1.16,1.16,0,0,1,.34-.21,1.5,1.5,0,0,1,.4,0h2.56a.56.56,0,0,1,.43.16.57.57,0,0,1,.16.43.7.7,0,0,1-.26.49l-5.5,5.2,6.17,6.68a.67.67,0,0,1,.24.46.57.57,0,0,1-.16.43.54.54,0,0,1-.4.16H84.45a1.27,1.27,0,0,1-.55-.09,2.09,2.09,0,0,1-.44-.37l-5.1-5.41v5.22a.63.63,0,0,1-.18.46.62.62,0,0,1-.46.19H75.48A.62.62,0,0,1,75,65.39Z"/></g><g class="cls-2"><path class="cls-3" d="M96.14,65.39a.64.64,0,0,1-.19-.46V47.4a.69.69,0,0,1,.18-.49.6.6,0,0,1,.47-.19h2.18a.91.91,0,0,1,.81.51l5.2,9.65,5.2-9.65a.91.91,0,0,1,.81-.51H113a.66.66,0,0,1,.49.19.7.7,0,0,1,.19.49V64.93a.62.62,0,0,1-.19.47.69.69,0,0,1-.49.18h-2.31a.65.65,0,0,1-.65-.65V53.35l-3.75,7.11a.93.93,0,0,1-.88.59h-1.14a1,1,0,0,1-.91-.59l-3.75-7.11V64.93a.67.67,0,0,1-.17.46.61.61,0,0,1-.47.19H96.6A.62.62,0,0,1,96.14,65.39Z"/><path class="cls-3" d="M118.79,64.12a6.84,6.84,0,0,1-1.88-4.9l0-.67a7.57,7.57,0,0,1,1.76-5.31,7.2,7.2,0,0,1,9.83,0,7.45,7.45,0,0,1,1.74,5.17V59a.62.62,0,0,1-.19.46.66.66,0,0,1-.48.19h-9v.21a4.13,4.13,0,0,0,.83,2.49,2.51,2.51,0,0,0,2.11,1,3.07,3.07,0,0,0,2.51-1.24,1.54,1.54,0,0,1,.37-.37,1.27,1.27,0,0,1,.46-.06h2.37a.68.68,0,0,1,.42.13.44.44,0,0,1,.17.38,2.49,2.49,0,0,1-.76,1.52,6.51,6.51,0,0,1-2.2,1.52,8,8,0,0,1-3.31.65A6.54,6.54,0,0,1,118.79,64.12Zm7.71-6.78v-.06a3.82,3.82,0,0,0-.79-2.54,2.92,2.92,0,0,0-4.33,0,3.87,3.87,0,0,0-.78,2.54v.06Z"/><path class="cls-3" d="M134.1,64.11a7.59,7.59,0,0,1-1.59-4.65l0-.89,0-.88a7.4,7.4,0,0,1,1.58-4.62,5.75,5.75,0,0,1,8.31,0v-6a.58.58,0,0,1,.19-.47.61.61,0,0,1,.45-.18h2.35a.63.63,0,0,1,.47.18.61.61,0,0,1,.18.47V64.93a.63.63,0,0,1-.18.46.6.6,0,0,1-.47.19h-2.18a.65.65,0,0,1-.65-.65v-1a5.82,5.82,0,0,1-8.46.17ZM141.58,62a4.45,4.45,0,0,0,.82-2.44c0-.22,0-.56,0-1s0-.83,0-1.05a3.77,3.77,0,0,0-.84-2.29,2.78,2.78,0,0,0-2.26-.94c-1.92,0-3,1.19-3.07,3.56l0,.8,0,.81c.12,2.37,1.15,3.56,3.07,3.56A2.7,2.7,0,0,0,141.58,62Z"/><path class="cls-3" d="M149.7,49.09a.6.6,0,0,1-.19-.46v-2a.66.66,0,0,1,.19-.49.64.64,0,0,1,.46-.19h2.47a.7.7,0,0,1,.49.19.66.66,0,0,1,.19.49v2a.61.61,0,0,1-.2.46.68.68,0,0,1-.48.19h-2.47A.6.6,0,0,1,149.7,49.09Zm.11,16.3a.6.6,0,0,1-.19-.46V52.22a.58.58,0,0,1,.19-.47.61.61,0,0,1,.45-.18h2.29a.6.6,0,0,1,.46.19.62.62,0,0,1,.19.46V64.93a.65.65,0,0,1-.65.65h-2.29A.58.58,0,0,1,149.81,65.39Z"/><path class="cls-3" d="M158.05,64.23a6.49,6.49,0,0,1-1.43-4.44V52.22a.58.58,0,0,1,.19-.47.65.65,0,0,1,.46-.18h2.42a.6.6,0,0,1,.46.19.62.62,0,0,1,.19.46v7.41c0,2.2,1,3.31,2.88,3.31a2.9,2.9,0,0,0,2.23-.89,3.46,3.46,0,0,0,.82-2.42V52.22a.58.58,0,0,1,.19-.47.61.61,0,0,1,.45-.18h2.4a.62.62,0,0,1,.65.65V64.93a.63.63,0,0,1-.18.46.58.58,0,0,1-.47.19h-2.23a.65.65,0,0,1-.65-.65v-1.1a5.18,5.18,0,0,1-4.47,2A4.93,4.93,0,0,1,158.05,64.23Z"/><path class="cls-3" d="M173.7,65.39a.64.64,0,0,1-.19-.46V52.22a.62.62,0,0,1,.19-.47.65.65,0,0,1,.46-.18h2.13a.63.63,0,0,1,.47.18.61.61,0,0,1,.17.47v.91a4.75,4.75,0,0,1,3.91-1.83A4.27,4.27,0,0,1,185,53.7,4.8,4.8,0,0,1,186.85,52a5.17,5.17,0,0,1,2.56-.66A4.7,4.7,0,0,1,193,52.81a6.25,6.25,0,0,1,1.4,4.39v7.73a.63.63,0,0,1-.18.46.58.58,0,0,1-.47.19h-2.23a.65.65,0,0,1-.65-.65V57.42a3.52,3.52,0,0,0-.71-2.45,2.45,2.45,0,0,0-1.88-.76,2.41,2.41,0,0,0-1.79.77,3.42,3.42,0,0,0-.74,2.44v7.51a.67.67,0,0,1-.17.46.62.62,0,0,1-.48.19h-2.26a.62.62,0,0,1-.46-.19.64.64,0,0,1-.19-.46V57.42a3.47,3.47,0,0,0-.72-2.44,2.47,2.47,0,0,0-1.86-.77,2.4,2.4,0,0,0-1.79.77,3.38,3.38,0,0,0-.74,2.44v7.51a.63.63,0,0,1-.18.46.6.6,0,0,1-.47.19h-2.29A.62.62,0,0,1,173.7,65.39Z"/></g></g><g class="cls-2"><g class="cls-2"><path class="cls-3" d="M17,91.05a.64.64,0,0,1-.16-.45V73a.64.64,0,0,1,.16-.47.55.55,0,0,1,.43-.18H24a7.34,7.34,0,0,1,4.81,1.44A5.16,5.16,0,0,1,30.52,78a5.34,5.34,0,0,1-1,3.37,5.29,5.29,0,0,1-2.86,1.83l4.15,7.19a.61.61,0,0,1,.08.3.55.55,0,0,1-.54.54H29.15a.93.93,0,0,1-.63-.19,1.49,1.49,0,0,1-.42-.54l-4-6.89h-4.8v7a.58.58,0,0,1-.19.45.64.64,0,0,1-.45.17H17.4A.58.58,0,0,1,17,91.05Zm6.9-9.66q4.06,0,4.07-3.42t-4.07-3.43H19.34v6.85Z"/><path class="cls-3" d="M35.35,89.83a6.55,6.55,0,0,1-1.41-4.4v-7.6a.57.57,0,0,1,.18-.44.59.59,0,0,1,.44-.18H35.8a.61.61,0,0,1,.45.18.6.6,0,0,1,.17.44v7.46q0,4.09,3.56,4.1a3.55,3.55,0,0,0,2.73-1.09,4.23,4.23,0,0,0,1-3V77.83a.57.57,0,0,1,.18-.44.59.59,0,0,1,.44-.18h1.24a.61.61,0,0,1,.45.18.6.6,0,0,1,.17.44V90.6a.58.58,0,0,1-.62.62H44.42a.62.62,0,0,1-.44-.17.61.61,0,0,1-.18-.45V89.39A5.13,5.13,0,0,1,42,91a5.94,5.94,0,0,1-2.66.53A4.88,4.88,0,0,1,35.35,89.83Z"/><path class="cls-3" d="M52.64,89.44V90.6a.58.58,0,0,1-.62.62H50.89a.58.58,0,0,1-.62-.62V72.71a.62.62,0,0,1,.17-.46.69.69,0,0,1,.45-.16H52.1a.61.61,0,0,1,.45.18.6.6,0,0,1,.17.44v6.23a5.15,5.15,0,0,1,4.37-2,5,5,0,0,1,4.24,1.85,7.75,7.75,0,0,1,1.49,4.62q0,.28,0,.81c0,.34,0,.61,0,.8a7.75,7.75,0,0,1-1.49,4.62,5,5,0,0,1-4.24,1.85A5.21,5.21,0,0,1,52.64,89.44Zm6.76-1.26a5.58,5.58,0,0,0,1-3.18,7.59,7.59,0,0,0,0-.78Q60.4,79,56.57,79a3.42,3.42,0,0,0-2.81,1.2,4.6,4.6,0,0,0-1,2.84q0,.3,0,1c0,.49,0,.83,0,1a5,5,0,0,0,1,3,3.35,3.35,0,0,0,2.84,1.26A3.28,3.28,0,0,0,59.4,88.18Z"/><path class="cls-3" d="M66.2,74.4A.64.64,0,0,1,66,74v-1.4a.69.69,0,0,1,.17-.46.62.62,0,0,1,.45-.19h1.59a.65.65,0,0,1,.65.65V74a.62.62,0,0,1-.19.45.69.69,0,0,1-.46.17H66.65A.64.64,0,0,1,66.2,74.4Zm.22,16.65a.6.6,0,0,1-.17-.45V77.83a.57.57,0,0,1,.17-.44.6.6,0,0,1,.44-.18h1.19a.61.61,0,0,1,.62.62V90.6a.61.61,0,0,1-.18.45.6.6,0,0,1-.44.17H66.86A.64.64,0,0,1,66.42,91.05Z"/></g><g class="cls-2"><path class="cls-3" d="M72.9,91.05a.64.64,0,0,1-.17-.45V72.71a.62.62,0,0,1,.17-.46.69.69,0,0,1,.45-.16h1.16a.59.59,0,0,1,.44.18.57.57,0,0,1,.18.44v9.4l5.38-4.44a5.35,5.35,0,0,1,.57-.38,1.29,1.29,0,0,1,.51-.08h1.35a.53.53,0,0,1,.39.15.57.57,0,0,1,.15.42.73.73,0,0,1-.3.51l-6.3,5.17,7,6.68a.82.82,0,0,1,.3.51.58.58,0,0,1-.15.41.5.5,0,0,1-.39.16H82.29a1.59,1.59,0,0,1-.58-.08,2.38,2.38,0,0,1-.5-.38L75.13,85v5.6a.61.61,0,0,1-.18.45.62.62,0,0,1-.44.17H73.35A.64.64,0,0,1,72.9,91.05Z"/></g><g class="cls-2"><path class="cls-3" d="M93.39,91.05a.64.64,0,0,1-.16-.45V73a.64.64,0,0,1,.16-.47.55.55,0,0,1,.43-.18h6.58a7.34,7.34,0,0,1,4.81,1.44A5.16,5.16,0,0,1,106.94,78a5.34,5.34,0,0,1-1,3.37,5.29,5.29,0,0,1-2.86,1.83l4.15,7.19a.61.61,0,0,1,.08.3.55.55,0,0,1-.54.54h-1.18a.93.93,0,0,1-.63-.19,1.49,1.49,0,0,1-.42-.54l-4-6.89h-4.8v7a.58.58,0,0,1-.19.45.64.64,0,0,1-.45.17h-1.3A.58.58,0,0,1,93.39,91.05Zm6.9-9.66q4.06,0,4.07-3.42t-4.07-3.43H95.76v6.85Z"/></g><g class="cls-2"><path class="cls-3" d="M111.49,89.78a7,7,0,0,1-1.81-4.68l0-.91,0-.89a7,7,0,0,1,1.81-4.63,5.78,5.78,0,0,1,4.39-1.73,5.72,5.72,0,0,1,4.59,1.89A7.55,7.55,0,0,1,122.1,84v.48a.58.58,0,0,1-.62.62h-9.34v.24a5,5,0,0,0,1.07,3,3.22,3.22,0,0,0,2.64,1.24,3.74,3.74,0,0,0,2.06-.5,4.35,4.35,0,0,0,1.2-1,1.25,1.25,0,0,1,.38-.39,1,1,0,0,1,.46-.07h1.18a.68.68,0,0,1,.42.13.42.42,0,0,1,.18.35,2.42,2.42,0,0,1-.73,1.43,5.88,5.88,0,0,1-2.06,1.44,7.24,7.24,0,0,1-3.06.61A5.8,5.8,0,0,1,111.49,89.78Zm8.16-6.56v-.08a4.53,4.53,0,0,0-1-3.07,3.45,3.45,0,0,0-2.75-1.19,3.41,3.41,0,0,0-2.75,1.19,4.62,4.62,0,0,0-1,3.07v.08Z"/><path class="cls-3" d="M127.49,96.39a4.82,4.82,0,0,1-1.9-1.72A3.5,3.5,0,0,1,125,93a.55.55,0,0,1,.19-.42.59.59,0,0,1,.43-.17h1.18a.66.66,0,0,1,.41.12.88.88,0,0,1,.27.44,3.22,3.22,0,0,0,3.42,2.16,4.38,4.38,0,0,0,3-.87,3.9,3.9,0,0,0,1-3V89.36a5.23,5.23,0,0,1-4.36,2,5.08,5.08,0,0,1-4.28-1.83,7.71,7.71,0,0,1-1.49-4.63l0-.76,0-.72a7.75,7.75,0,0,1,1.49-4.62,5.07,5.07,0,0,1,4.28-1.85A5.23,5.23,0,0,1,135,79V77.86a.65.65,0,0,1,.18-.46.56.56,0,0,1,.44-.19h1.16a.58.58,0,0,1,.45.19.69.69,0,0,1,.17.46V90.92q0,6.22-6.28,6.23A7.35,7.35,0,0,1,127.49,96.39ZM133.86,88a5,5,0,0,0,1-3c0-.16,0-.48,0-1a9,9,0,0,0,0-.91,5,5,0,0,0-1-3A3.37,3.37,0,0,0,131,79a3.21,3.21,0,0,0-2.81,1.23,5.66,5.66,0,0,0-1,3.16l0,.7,0,.73a5.67,5.67,0,0,0,1,3.17A3.22,3.22,0,0,0,131,89.25,3.4,3.4,0,0,0,133.86,88Z"/><path class="cls-3" d="M142.68,89.83a6.6,6.6,0,0,1-1.4-4.4v-7.6a.57.57,0,0,1,.18-.44.59.59,0,0,1,.44-.18h1.24a.61.61,0,0,1,.45.18.6.6,0,0,1,.17.44v7.46q0,4.09,3.56,4.1a3.55,3.55,0,0,0,2.73-1.09,4.23,4.23,0,0,0,1-3V77.83a.61.61,0,0,1,.62-.62h1.24a.61.61,0,0,1,.45.18.6.6,0,0,1,.17.44V90.6a.58.58,0,0,1-.62.62h-1.16a.62.62,0,0,1-.44-.17.61.61,0,0,1-.18-.45V89.39A5.13,5.13,0,0,1,149.31,91a6,6,0,0,1-2.67.53A4.9,4.9,0,0,1,142.68,89.83Z"/><path class="cls-3" d="M157.78,91.05a.64.64,0,0,1-.17-.45V72.71a.62.62,0,0,1,.17-.46.69.69,0,0,1,.45-.16h1.18a.61.61,0,0,1,.45.18.57.57,0,0,1,.17.44V90.6a.6.6,0,0,1-.17.45.64.64,0,0,1-.45.17h-1.18A.64.64,0,0,1,157.78,91.05Z"/><path class="cls-3" d="M165.52,91a4.54,4.54,0,0,1-1.78-1.47,3.46,3.46,0,0,1-.66-2.06,3.54,3.54,0,0,1,1.45-2.91,8.54,8.54,0,0,1,4-1.51l4-.56v-.78c0-1.85-1.07-2.78-3.2-2.78a3.61,3.61,0,0,0-2,.5,3.13,3.13,0,0,0-1.1,1.17.94.94,0,0,1-.23.37.55.55,0,0,1-.34.09h-1a.62.62,0,0,1-.59-.59A2.56,2.56,0,0,1,164.6,79a4.66,4.66,0,0,1,1.79-1.43,6.51,6.51,0,0,1,3-.61c2,0,3.46.47,4.33,1.4a5,5,0,0,1,1.31,3.5V90.6a.61.61,0,0,1-.18.45.64.64,0,0,1-.44.17h-1.19a.58.58,0,0,1-.43-.17.64.64,0,0,1-.16-.45V89.42a4.63,4.63,0,0,1-1.73,1.48,6.3,6.3,0,0,1-2.91.59A5.48,5.48,0,0,1,165.52,91Zm5.88-2.59A4.58,4.58,0,0,0,172.53,85v-.76l-3.15.46a7.32,7.32,0,0,0-2.93.92,1.88,1.88,0,0,0-1,1.61,1.91,1.91,0,0,0,.9,1.7,3.78,3.78,0,0,0,2.14.59A3.85,3.85,0,0,0,171.4,88.36Z"/></g><g class="cls-2"><path class="cls-3" d="M179.07,91.05a.61.61,0,0,1-.18-.45V77.86a.65.65,0,0,1,.18-.46.55.55,0,0,1,.44-.19h1.13a.62.62,0,0,1,.65.65V79A4,4,0,0,1,185,77.21h1.05a.56.56,0,0,1,.62.62v1a.6.6,0,0,1-.16.44.59.59,0,0,1-.46.18h-1.53a3.09,3.09,0,0,0-2.33.86,3.17,3.17,0,0,0-.85,2.34V90.6a.58.58,0,0,1-.19.45.69.69,0,0,1-.46.17h-1.21A.6.6,0,0,1,179.07,91.05Z"/></g></g><g class="cls-2"><g class="cls-2"><path class="cls-3" d="M22.38,135a.32.32,0,0,1-.1-.25V127.6H19.81a.35.35,0,0,1-.26-.1.32.32,0,0,1-.1-.25v-1.57a.35.35,0,0,1,.1-.26.4.4,0,0,1,.26-.1h7.61a.37.37,0,0,1,.25.1.33.33,0,0,1,.11.26v1.57a.3.3,0,0,1-.11.25.33.33,0,0,1-.25.1H25v7.17a.32.32,0,0,1-.1.25.35.35,0,0,1-.26.1H22.64A.35.35,0,0,1,22.38,135Z"/></g><g class="cls-2"><path class="cls-3" d="M28.82,126.73a.35.35,0,0,1-.1-.26v-1.3a.36.36,0,0,1,.35-.37h1.75a.36.36,0,0,1,.26.11.34.34,0,0,1,.1.26v1.3a.34.34,0,0,1-.36.36H29.07A.32.32,0,0,1,28.82,126.73Zm0,8.28a.31.31,0,0,1-.1-.24v-6.58a.32.32,0,0,1,.1-.25.33.33,0,0,1,.25-.1h1.75a.35.35,0,0,1,.26.1.32.32,0,0,1,.1.25v6.58a.32.32,0,0,1-.1.25.35.35,0,0,1-.26.1H29.07A.34.34,0,0,1,28.82,135Z"/><path class="cls-3" d="M33.63,132.33v-2.59h-1.1a.34.34,0,0,1-.35-.35v-1.2a.32.32,0,0,1,.1-.25.33.33,0,0,1,.25-.1h1.1v-2.31a.36.36,0,0,1,.35-.35H35.7a.34.34,0,0,1,.26.1.35.35,0,0,1,.09.25v2.31H37.8a.34.34,0,0,1,.26.1.33.33,0,0,1,.11.25v1.2a.35.35,0,0,1-.11.26.37.37,0,0,1-.26.09H36.05v2.38a1.22,1.22,0,0,0,.19.75.68.68,0,0,0,.58.25h1.11a.32.32,0,0,1,.25.1.35.35,0,0,1,.1.26v1.29a.31.31,0,0,1-.1.24.33.33,0,0,1-.25.11H36.6Q33.63,135.12,33.63,132.33Z"/><path class="cls-3" d="M40.14,134.34a3.57,3.57,0,0,1-1-2.66v-.44a3.4,3.4,0,0,1,3.69-3.54,4,4,0,0,1,2,.48,3.08,3.08,0,0,1,1.25,1.33,4.45,4.45,0,0,1,.41,1.93v.35a.34.34,0,0,1-.36.36H41.71v.09a1.8,1.8,0,0,0,.29,1,1,1,0,0,0,1.34.25,2,2,0,0,0,.39-.34.66.66,0,0,1,.2-.17.49.49,0,0,1,.24,0H46a.32.32,0,0,1,.21.08.22.22,0,0,1,.1.19,1.42,1.42,0,0,1-.42.85,3.12,3.12,0,0,1-1.2.84,4.66,4.66,0,0,1-1.87.35A3.78,3.78,0,0,1,40.14,134.34Zm3.8-3.62v0a1.64,1.64,0,0,0-.3-1,1,1,0,0,0-.82-.37,1,1,0,0,0-.82.37,1.7,1.7,0,0,0-.29,1v0Z"/><path class="cls-3" d="M47.88,135a.33.33,0,0,1-.11-.25v-9.24a.33.33,0,0,1,.11-.25.34.34,0,0,1,.26-.1h1.75a.33.33,0,0,1,.25.1.36.36,0,0,1,.1.25v9.24a.35.35,0,0,1-.1.24.34.34,0,0,1-.25.11H48.14A.34.34,0,0,1,47.88,135Z"/><path class="cls-3" d="M53,134.94a3,3,0,0,1-1.15-.77,1.38,1.38,0,0,1-.37-.81.32.32,0,0,1,.11-.24.35.35,0,0,1,.23-.09h1.69a.17.17,0,0,1,.14.06l.27.18a2.75,2.75,0,0,0,.5.3,1.31,1.31,0,0,0,.55.11,1.16,1.16,0,0,0,.62-.15.45.45,0,0,0,.25-.41.53.53,0,0,0-.14-.37,1.3,1.3,0,0,0-.5-.27,7.26,7.26,0,0,0-1.13-.27c-1.61-.33-2.42-1.08-2.42-2.24a1.94,1.94,0,0,1,.37-1.1,2.65,2.65,0,0,1,1.09-.85,4.34,4.34,0,0,1,1.73-.32,4.49,4.49,0,0,1,1.77.31,3.43,3.43,0,0,1,1.15.76,1.29,1.29,0,0,1,.39.81.31.31,0,0,1-.09.22.32.32,0,0,1-.22.1H56.27a.32.32,0,0,1-.2-.06,1.52,1.52,0,0,1-.33-.21,4.9,4.9,0,0,0-.44-.26,1.16,1.16,0,0,0-.49-.09.81.81,0,0,0-.54.16.47.47,0,0,0-.2.39.49.49,0,0,0,.12.34,1.13,1.13,0,0,0,.49.26,10.69,10.69,0,0,0,1.13.27,3.69,3.69,0,0,1,2,.84,1.95,1.95,0,0,1-.31,3.1,4.71,4.71,0,0,1-2.61.62A5,5,0,0,1,53,134.94Z"/><path class="cls-3" d="M63.3,134.34a3.53,3.53,0,0,1-1-2.66v-.44a3.58,3.58,0,0,1,1-2.6A3.63,3.63,0,0,1,66,127.7a4.05,4.05,0,0,1,2,.48,3.06,3.06,0,0,1,1.24,1.33,4.31,4.31,0,0,1,.42,1.93v.35a.36.36,0,0,1-.11.26.34.34,0,0,1-.26.1H64.87v.09a1.66,1.66,0,0,0,.29,1,.93.93,0,0,0,.8.39,1,1,0,0,0,.54-.14,2,2,0,0,0,.38-.34.8.8,0,0,1,.2-.17.57.57,0,0,1,.25,0h1.83a.33.33,0,0,1,.22.08.23.23,0,0,1,.09.19,1.46,1.46,0,0,1-.41.85,3.24,3.24,0,0,1-1.21.84,4.61,4.61,0,0,1-1.86.35A3.78,3.78,0,0,1,63.3,134.34Zm3.79-3.62v0a1.7,1.7,0,0,0-.29-1,1,1,0,0,0-.83-.37,1,1,0,0,0-.82.37,1.7,1.7,0,0,0-.28,1v0Z"/><path class="cls-3" d="M71,135a.31.31,0,0,1-.1-.24v-6.58a.32.32,0,0,1,.1-.25.33.33,0,0,1,.25-.1H73a.34.34,0,0,1,.35.35v.53a2.78,2.78,0,0,1,1-.74,3.13,3.13,0,0,1,1.37-.28,2.8,2.8,0,0,1,1.42.36,2.64,2.64,0,0,1,1,1.08,3.8,3.8,0,0,1,.35,1.72v3.91a.34.34,0,0,1-.09.24.35.35,0,0,1-.26.11H76.23A.35.35,0,0,1,76,135a.32.32,0,0,1-.1-.25V131a1.43,1.43,0,0,0-.3-1,1.12,1.12,0,0,0-.88-.33,1.15,1.15,0,0,0-.88.34,1.37,1.37,0,0,0-.32,1v3.82a.31.31,0,0,1-.1.24.33.33,0,0,1-.25.11H71.28A.34.34,0,0,1,71,135Z"/><path class="cls-3" d="M84,134.94a3,3,0,0,1-1.14-.77,1.38,1.38,0,0,1-.37-.81.32.32,0,0,1,.11-.24.33.33,0,0,1,.23-.09h1.69a.17.17,0,0,1,.14.06l.27.18a2.75,2.75,0,0,0,.5.3,1.28,1.28,0,0,0,.55.11,1.16,1.16,0,0,0,.62-.15.45.45,0,0,0,.25-.41.53.53,0,0,0-.14-.37,1.3,1.3,0,0,0-.5-.27,7.26,7.26,0,0,0-1.13-.27c-1.61-.33-2.42-1.08-2.42-2.24a1.87,1.87,0,0,1,.37-1.1,2.65,2.65,0,0,1,1.09-.85,4.31,4.31,0,0,1,1.73-.32,4.55,4.55,0,0,1,1.77.31,3.28,3.28,0,0,1,1.14.76,1.26,1.26,0,0,1,.4.81.31.31,0,0,1-.09.22.34.34,0,0,1-.22.1H87.35a.3.3,0,0,1-.2-.06,1.52,1.52,0,0,1-.33-.21,4.9,4.9,0,0,0-.44-.26,1.16,1.16,0,0,0-.49-.09.81.81,0,0,0-.54.16.47.47,0,0,0-.2.39.49.49,0,0,0,.12.34,1.13,1.13,0,0,0,.49.26,10.69,10.69,0,0,0,1.13.27,3.69,3.69,0,0,1,2,.84A1.91,1.91,0,0,1,89.5,133a1.94,1.94,0,0,1-.93,1.68,4.71,4.71,0,0,1-2.61.62A5.14,5.14,0,0,1,84,134.94Z"/><path class="cls-3" d="M91.39,134.43a3.35,3.35,0,0,1-.75-2.33v-3.91a.32.32,0,0,1,.1-.25.35.35,0,0,1,.25-.1h1.86a.35.35,0,0,1,.26.1.32.32,0,0,1,.1.25V132c0,.87.39,1.3,1.17,1.3a1.12,1.12,0,0,0,.87-.34,1.37,1.37,0,0,0,.32-1v-3.82a.32.32,0,0,1,.1-.25.35.35,0,0,1,.26-.1h1.85a.34.34,0,0,1,.35.35v6.58a.31.31,0,0,1-.1.24.33.33,0,0,1-.25.11H96.07a.35.35,0,0,1-.26-.1.32.32,0,0,1-.1-.25v-.53a2.67,2.67,0,0,1-2.33,1A2.55,2.55,0,0,1,91.39,134.43Z"/></g><g class="cls-2"><path class="cls-3" d="M102.11,134.34v.43a.31.31,0,0,1-.1.24.34.34,0,0,1-.25.11h-1.67a.35.35,0,0,1-.26-.1.32.32,0,0,1-.1-.25v-9.24a.32.32,0,0,1,.1-.25.35.35,0,0,1,.26-.1h1.81a.33.33,0,0,1,.25.1.32.32,0,0,1,.1.25v3a2.67,2.67,0,0,1,2-.81,2.74,2.74,0,0,1,2.13.87,3.74,3.74,0,0,1,.84,2.41c0,.12,0,.29,0,.5s0,.37,0,.49a3.71,3.71,0,0,1-.84,2.44,2.72,2.72,0,0,1-2.13.85A2.66,2.66,0,0,1,102.11,134.34Zm2.26-1.4a1.85,1.85,0,0,0,.31-1,4.63,4.63,0,0,0,0-.86,1.85,1.85,0,0,0-.31-1,1,1,0,0,0-.9-.37,1.08,1.08,0,0,0-.89.35,1.5,1.5,0,0,0-.33.91c0,.12,0,.29,0,.51s0,.4,0,.54a1.68,1.68,0,0,0,.32,1,1,1,0,0,0,.9.38A1,1,0,0,0,104.37,132.94Z"/></g><g class="cls-2"><path class="cls-3" d="M109.42,132.33v-2.59h-1.1a.34.34,0,0,1-.35-.35v-1.2a.32.32,0,0,1,.1-.25.33.33,0,0,1,.25-.1h1.1v-2.31a.36.36,0,0,1,.35-.35h1.72a.34.34,0,0,1,.26.1.35.35,0,0,1,.09.25v2.31h1.75a.34.34,0,0,1,.26.1.33.33,0,0,1,.11.25v1.2a.35.35,0,0,1-.11.26.37.37,0,0,1-.26.09h-1.75v2.38a1.22,1.22,0,0,0,.19.75.68.68,0,0,0,.58.25h1.11a.32.32,0,0,1,.25.1.35.35,0,0,1,.1.26v1.29a.31.31,0,0,1-.1.24.33.33,0,0,1-.25.11h-1.33Q109.42,135.12,109.42,132.33Z"/><path class="cls-3" d="M115.3,126.73a.4.4,0,0,1-.1-.26v-1.3a.35.35,0,0,1,.11-.26.34.34,0,0,1,.24-.11h1.75a.38.38,0,0,1,.37.37v1.3a.36.36,0,0,1-.11.26.34.34,0,0,1-.26.1h-1.75A.33.33,0,0,1,115.3,126.73Zm0,8.28a.32.32,0,0,1-.11-.24v-6.58a.36.36,0,0,1,.35-.35h1.75a.34.34,0,0,1,.26.1.33.33,0,0,1,.11.25v6.58a.33.33,0,0,1-.11.25.34.34,0,0,1-.26.1h-1.75A.34.34,0,0,1,115.31,135Z"/><path class="cls-3" d="M120.12,132.33v-2.59H119a.33.33,0,0,1-.24-.1.34.34,0,0,1-.11-.25v-1.2a.36.36,0,0,1,.35-.35h1.11v-2.31a.32.32,0,0,1,.1-.25.33.33,0,0,1,.25-.1h1.72a.34.34,0,0,1,.35.35v2.31h1.75a.35.35,0,0,1,.26.1.32.32,0,0,1,.1.25v1.2a.34.34,0,0,1-.1.26.39.39,0,0,1-.26.09h-1.75v2.38a1.3,1.3,0,0,0,.18.75.7.7,0,0,0,.59.25h1.11a.33.33,0,0,1,.25.1.4.4,0,0,1,.1.26v1.29a.35.35,0,0,1-.1.24.34.34,0,0,1-.25.11h-1.33Q120.12,135.12,120.12,132.33Z"/><path class="cls-3" d="M126.63,134.34a3.53,3.53,0,0,1-1-2.66v-.44a3.58,3.58,0,0,1,1-2.6,3.63,3.63,0,0,1,2.64-.94,4.05,4.05,0,0,1,2,.48,3.06,3.06,0,0,1,1.24,1.33,4.31,4.31,0,0,1,.42,1.93v.35a.36.36,0,0,1-.11.26.34.34,0,0,1-.26.1H128.2v.09a1.73,1.73,0,0,0,.29,1,.93.93,0,0,0,.8.39,1,1,0,0,0,.54-.14,2,2,0,0,0,.38-.34.67.67,0,0,1,.21-.17.49.49,0,0,1,.24,0h1.83a.33.33,0,0,1,.22.08.23.23,0,0,1,.09.19,1.46,1.46,0,0,1-.41.85,3.24,3.24,0,0,1-1.21.84,4.61,4.61,0,0,1-1.86.35A3.78,3.78,0,0,1,126.63,134.34Zm3.79-3.62v0a1.7,1.7,0,0,0-.29-1,1,1,0,0,0-.83-.37,1,1,0,0,0-.82.37,1.7,1.7,0,0,0-.28,1v0Z"/><path class="cls-3" d="M134.36,135a.32.32,0,0,1-.1-.25v-9.24a.32.32,0,0,1,.1-.25.35.35,0,0,1,.26-.1h1.75a.34.34,0,0,1,.35.35v9.24a.31.31,0,0,1-.1.24.33.33,0,0,1-.25.11h-1.75A.35.35,0,0,1,134.36,135Z"/><path class="cls-3" d="M139.45,134.94a3,3,0,0,1-1.14-.77,1.32,1.32,0,0,1-.37-.81.31.31,0,0,1,.1-.24.36.36,0,0,1,.24-.09H140a.18.18,0,0,1,.14.06l.27.18a2.7,2.7,0,0,0,.49.3,1.35,1.35,0,0,0,.55.11,1.2,1.2,0,0,0,.63-.15.45.45,0,0,0,.24-.41.52.52,0,0,0-.13-.37,1.48,1.48,0,0,0-.5-.27,7.56,7.56,0,0,0-1.13-.27c-1.62-.33-2.42-1.08-2.42-2.24a1.87,1.87,0,0,1,.37-1.1,2.65,2.65,0,0,1,1.09-.85,4.31,4.31,0,0,1,1.73-.32,4.55,4.55,0,0,1,1.77.31,3.28,3.28,0,0,1,1.14.76,1.29,1.29,0,0,1,.39.81.31.31,0,0,1-.09.22.3.3,0,0,1-.22.1h-1.54a.29.29,0,0,1-.19-.06,1.57,1.57,0,0,1-.34-.21,3.12,3.12,0,0,0-.44-.26,1.08,1.08,0,0,0-.48-.09.84.84,0,0,0-.55.16.47.47,0,0,0-.19.39.49.49,0,0,0,.12.34,1.13,1.13,0,0,0,.49.26,10.37,10.37,0,0,0,1.12.27,3.72,3.72,0,0,1,2,.84,2,2,0,0,1-.31,3.1,4.71,4.71,0,0,1-2.61.62A5.06,5.06,0,0,1,139.45,134.94Z"/></g></g><g class="cls-2"><g class="cls-2"><path class="cls-4" d="M30,153.39V157a4.65,4.65,0,0,1-1.21.39,7.68,7.68,0,0,1-1.52.15,4,4,0,0,1-2-.48A3.13,3.13,0,0,1,24,155.7a4.78,4.78,0,0,1-.45-2.16A4.73,4.73,0,0,1,24,151.4,3.18,3.18,0,0,1,25.23,150a3.89,3.89,0,0,1,2-.48,4.31,4.31,0,0,1,1.51.25,3.07,3.07,0,0,1,1.18.74l-.35.69a4.2,4.2,0,0,0-1.12-.7,3.36,3.36,0,0,0-1.22-.21,2.54,2.54,0,0,0-2,.83,3.54,3.54,0,0,0-.71,2.39,3.6,3.6,0,0,0,.72,2.43,2.68,2.68,0,0,0,2.12.83,5.7,5.7,0,0,0,1.88-.31V154.1h-2v-.71Z"/><path class="cls-4" d="M36.36,154.68H32.3a2.38,2.38,0,0,0,.49,1.59,1.76,1.76,0,0,0,1.39.54,2.79,2.79,0,0,0,1.78-.65l.3.65a2.48,2.48,0,0,1-.93.54,3.54,3.54,0,0,1-1.16.2,2.69,2.69,0,0,1-2-.77,2.86,2.86,0,0,1-.74-2.09,3.25,3.25,0,0,1,.33-1.5,2.47,2.47,0,0,1,.92-1,2.58,2.58,0,0,1,1.36-.36,2.16,2.16,0,0,1,1.72.72,2.9,2.9,0,0,1,.63,2Zm-3.47-1.76a2,2,0,0,0-.56,1.17h3.23a2,2,0,0,0-.46-1.19,1.43,1.43,0,0,0-1.08-.4A1.56,1.56,0,0,0,32.89,152.92Z"/><path class="cls-4" d="M41.76,152.16a2.34,2.34,0,0,1,.87,1,3.52,3.52,0,0,1,.31,1.5,3.62,3.62,0,0,1-.31,1.52,2.46,2.46,0,0,1-.87,1,2.25,2.25,0,0,1-1.29.37,2.18,2.18,0,0,1-1.13-.29,1.88,1.88,0,0,1-.74-.81v1h-.89v-8.1h.89v3.55a1.82,1.82,0,0,1,.74-.83,2.18,2.18,0,0,1,1.13-.28A2.31,2.31,0,0,1,41.76,152.16Zm-.2,4.08a2.47,2.47,0,0,0,.45-1.59,2.4,2.4,0,0,0-.44-1.55,1.73,1.73,0,0,0-2.53,0,3,3,0,0,0,0,3.15,1.69,1.69,0,0,0,2.52,0Z"/><path class="cls-4" d="M47.39,151.87l0,.82a1.72,1.72,0,0,0-.58-.09,1.41,1.41,0,0,0-1.2.5,1.91,1.91,0,0,0-.39,1.21v3.16h-.89v-4a12.1,12.1,0,0,0-.09-1.55h.85l.09,1a1.7,1.7,0,0,1,.67-.86,1.9,1.9,0,0,1,1.06-.29A2,2,0,0,1,47.39,151.87Z"/><path class="cls-4" d="M52.93,151.94v5.53h-.87v-1a1.84,1.84,0,0,1-.74.77,2.13,2.13,0,0,1-1.07.27,1.92,1.92,0,0,1-1.48-.55,2.32,2.32,0,0,1-.51-1.63v-3.43h.89v3.41a1.68,1.68,0,0,0,.31,1.1,1.21,1.21,0,0,0,.94.35,1.54,1.54,0,0,0,1.18-.48,1.77,1.77,0,0,0,.45-1.26v-3.12Z"/><path class="cls-4" d="M54.55,149.59h1.09v1H54.55Zm.09,7.88v-5.53h.89v5.53Z"/><path class="cls-4" d="M62.15,157.47H61l-2.84-2.66v2.66h-.89v-8.1h.89v5.11L60.76,152h1.13l-2.77,2.65Z"/><path class="cls-4" d="M70.67,149.37v8.1h-.88v-1a1.82,1.82,0,0,1-.73.8,2.35,2.35,0,0,1-1.14.28,2.21,2.21,0,0,1-1.28-.37,2.46,2.46,0,0,1-.87-1,3.62,3.62,0,0,1-.3-1.52,3.52,3.52,0,0,1,.3-1.5,2.26,2.26,0,0,1,.86-1,2.33,2.33,0,0,1,1.29-.35,2.18,2.18,0,0,1,1.13.28,1.72,1.72,0,0,1,.73.78v-3.5Zm-1.32,6.88a3,3,0,0,0,0-3.14,1.51,1.51,0,0,0-1.26-.56,1.59,1.59,0,0,0-1.27.55,2.4,2.4,0,0,0-.45,1.55,2.47,2.47,0,0,0,.45,1.59,1.55,1.55,0,0,0,1.27.57A1.48,1.48,0,0,0,69.35,156.25Z"/><path class="cls-4" d="M72.31,149.59H73.4v1H72.31Zm.09,7.88v-5.53h.89v5.53Z"/><path class="cls-4" d="M76.2,152.64v3a1.23,1.23,0,0,0,.25.86,1,1,0,0,0,.72.25,2,2,0,0,0,.59-.1v.76a2.55,2.55,0,0,1-.77.11,1.65,1.65,0,0,1-1.23-.45,1.75,1.75,0,0,1-.45-1.31v-3.15H74.23v-.7h1.08v-1.42l.89-.32v1.74h1.59v.7Z"/><path class="cls-4" d="M81.73,157.47v-8.1h.89v8.1Z"/></g><g class="cls-2"><path class="cls-4" d="M89,154.68H84.93a2.38,2.38,0,0,0,.49,1.59,1.76,1.76,0,0,0,1.39.54,2.79,2.79,0,0,0,1.78-.65l.3.65a2.48,2.48,0,0,1-.93.54,3.54,3.54,0,0,1-1.16.2,2.68,2.68,0,0,1-2-.77,2.86,2.86,0,0,1-.74-2.09,3.25,3.25,0,0,1,.33-1.5,2.47,2.47,0,0,1,.92-1,2.57,2.57,0,0,1,1.35-.36,2.17,2.17,0,0,1,1.73.72,2.9,2.9,0,0,1,.63,2Zm-3.47-1.76a2,2,0,0,0-.56,1.17h3.23a2,2,0,0,0-.46-1.19,1.43,1.43,0,0,0-1.08-.4A1.55,1.55,0,0,0,85.52,152.92Z"/></g><g class="cls-2"><path class="cls-4" d="M91.5,152.64v3a1.18,1.18,0,0,0,.25.86,1,1,0,0,0,.71.25,2,2,0,0,0,.6-.1v.76a2.65,2.65,0,0,1-.77.11,1.67,1.67,0,0,1-1.24-.45,1.75,1.75,0,0,1-.45-1.31v-3.15H89.53v-.7H90.6v-1.42l.9-.32v1.74h1.58v.7Z"/></g><g class="cls-2"><path class="cls-4" d="M95.38,152.64v3a1.18,1.18,0,0,0,.25.86,1,1,0,0,0,.71.25,2,2,0,0,0,.6-.1v.76a2.65,2.65,0,0,1-.77.11,1.67,1.67,0,0,1-1.24-.45,1.75,1.75,0,0,1-.45-1.31v-3.15H93.41v-.7h1.07v-1.42l.9-.32v1.74H97v.7Z"/><path class="cls-4" d="M102.67,154.68H98.61a2.38,2.38,0,0,0,.49,1.59,1.76,1.76,0,0,0,1.39.54,2.79,2.79,0,0,0,1.78-.65l.3.65a2.48,2.48,0,0,1-.93.54,3.54,3.54,0,0,1-1.16.2,2.68,2.68,0,0,1-2-.77,2.86,2.86,0,0,1-.74-2.09,3.25,3.25,0,0,1,.33-1.5,2.47,2.47,0,0,1,.92-1,2.57,2.57,0,0,1,1.35-.36,2.17,2.17,0,0,1,1.73.72,2.9,2.9,0,0,1,.63,2Zm-3.47-1.76a2,2,0,0,0-.56,1.17h3.23a2,2,0,0,0-.46-1.19,1.43,1.43,0,0,0-1.08-.4A1.55,1.55,0,0,0,99.2,152.92Z"/></g><g class="cls-2"><path class="cls-4" d="M107.1,151.87l0,.82a1.78,1.78,0,0,0-.59-.09,1.4,1.4,0,0,0-1.19.5,1.91,1.91,0,0,0-.39,1.21v3.16H104v-4a12.1,12.1,0,0,0-.09-1.55h.85l.09,1a1.65,1.65,0,0,1,.67-.86,1.86,1.86,0,0,1,1-.29A2,2,0,0,1,107.1,151.87Z"/></g><g class="cls-2"><path class="cls-4" d="M109.62,152.64v3a1.18,1.18,0,0,0,.25.86,1,1,0,0,0,.71.25,2,2,0,0,0,.6-.1v.76a2.65,2.65,0,0,1-.77.11,1.67,1.67,0,0,1-1.24-.45,1.75,1.75,0,0,1-.45-1.31v-3.15h-1.07v-.7h1.07v-1.42l.9-.32v1.74h1.58v.7Z"/></g><g class="cls-2"><path class="cls-4" d="M117.21,151.94l-2.59,6a3.16,3.16,0,0,1-1,1.38,3.6,3.6,0,0,1-1.52.61l-.18-.7a3.22,3.22,0,0,0,1.18-.46,2.22,2.22,0,0,0,.67-.9l.22-.49-2.35-5.48h.94l1.87,4.56,1.89-4.56Z"/><path class="cls-4" d="M122.24,152.17a2.43,2.43,0,0,1,.87,1,3.57,3.57,0,0,1,.3,1.51,3.52,3.52,0,0,1-.3,1.5,2.43,2.43,0,0,1-.87,1,2.4,2.4,0,0,1-1.29.35,2.18,2.18,0,0,1-1.13-.29,1.82,1.82,0,0,1-.74-.81v3.4h-.89v-6.36a12.1,12.1,0,0,0-.09-1.55H119L119,153a1.76,1.76,0,0,1,.73-.88,2.16,2.16,0,0,1,1.18-.31A2.36,2.36,0,0,1,122.24,152.17Zm-.2,4.09a2.42,2.42,0,0,0,.45-1.56,2.48,2.48,0,0,0-.45-1.58,1.51,1.51,0,0,0-1.25-.57,1.54,1.54,0,0,0-1.27.55,3,3,0,0,0,0,3.15,1.71,1.71,0,0,0,2.52,0Z"/><path class="cls-4" d="M129.42,154.68h-4.06a2.38,2.38,0,0,0,.49,1.59,1.76,1.76,0,0,0,1.39.54,2.79,2.79,0,0,0,1.78-.65l.3.65a2.48,2.48,0,0,1-.93.54,3.54,3.54,0,0,1-1.16.2,2.69,2.69,0,0,1-2-.77,2.86,2.86,0,0,1-.74-2.09,3.25,3.25,0,0,1,.33-1.5,2.47,2.47,0,0,1,.92-1,2.58,2.58,0,0,1,1.36-.36,2.15,2.15,0,0,1,1.72.72,2.9,2.9,0,0,1,.63,2ZM126,152.92a2,2,0,0,0-.56,1.17h3.23a2,2,0,0,0-.46-1.19,1.43,1.43,0,0,0-1.08-.4A1.56,1.56,0,0,0,126,152.92Z"/></g><g class="cls-2"><path class="cls-4" d="M137.62,152h.89l-2.39,5.52h-.84L132.92,152h.94l1.87,4.55Z"/></g><g class="cls-2"><path class="cls-4" d="M140.33,157.2a2.37,2.37,0,0,1-.92-1,3.39,3.39,0,0,1-.32-1.51,3.44,3.44,0,0,1,.32-1.52,2.35,2.35,0,0,1,.92-1,2.88,2.88,0,0,1,2.75,0,2.35,2.35,0,0,1,.92,1,3.31,3.31,0,0,1,.32,1.52,3.26,3.26,0,0,1-.32,1.51,2.37,2.37,0,0,1-.92,1,2.88,2.88,0,0,1-2.75,0Zm2.64-.93a2.53,2.53,0,0,0,.44-1.59,2.43,2.43,0,0,0-.45-1.57,1.7,1.7,0,0,0-2.52,0,2.43,2.43,0,0,0-.45,1.57,2.47,2.47,0,0,0,.45,1.59,1.54,1.54,0,0,0,1.27.54A1.52,1.52,0,0,0,143,156.27Z"/><path class="cls-4" d="M146.62,157.2a2.44,2.44,0,0,1-.92-1,3.39,3.39,0,0,1-.32-1.51,3.44,3.44,0,0,1,.32-1.52,2.41,2.41,0,0,1,.92-1,2.62,2.62,0,0,1,1.38-.35,2.56,2.56,0,0,1,1.37.35,2.29,2.29,0,0,1,.92,1,3.31,3.31,0,0,1,.33,1.52,3.26,3.26,0,0,1-.33,1.51,2.31,2.31,0,0,1-.92,1,2.66,2.66,0,0,1-1.37.35A2.72,2.72,0,0,1,146.62,157.2Zm2.64-.93a2.47,2.47,0,0,0,.44-1.59,2.43,2.43,0,0,0-.45-1.57,1.53,1.53,0,0,0-1.25-.56,1.55,1.55,0,0,0-1.27.56,2.43,2.43,0,0,0-.45,1.57,2.47,2.47,0,0,0,.45,1.59,1.54,1.54,0,0,0,1.27.54A1.52,1.52,0,0,0,149.26,156.27Z"/><path class="cls-4" d="M155.08,151.87l0,.82a1.72,1.72,0,0,0-.58-.09,1.41,1.41,0,0,0-1.2.5,1.91,1.91,0,0,0-.39,1.21v3.16H152v-4a12.1,12.1,0,0,0-.09-1.55h.85l.09,1a1.7,1.7,0,0,1,.67-.86,1.9,1.9,0,0,1,1.06-.29A2,2,0,0,1,155.08,151.87Z"/><path class="cls-4" d="M160,152.64v3a1.23,1.23,0,0,0,.25.86,1,1,0,0,0,.72.25,1.92,1.92,0,0,0,.59-.1v.76a2.55,2.55,0,0,1-.77.11,1.65,1.65,0,0,1-1.23-.45,1.75,1.75,0,0,1-.45-1.31v-3.15h-1.08v-.7h1.08v-1.42l.89-.32v1.74h1.59v.7Z"/><path class="cls-4" d="M162.62,149.59h1.09v1h-1.09Zm.08,7.88v-5.53h.9v5.53Z"/><path class="cls-4" d="M166.51,152.64v3a1.18,1.18,0,0,0,.25.86,1,1,0,0,0,.72.25,2,2,0,0,0,.59-.1v.76a2.6,2.6,0,0,1-.77.11,1.67,1.67,0,0,1-1.24-.45,1.79,1.79,0,0,1-.44-1.31v-3.15h-1.08v-.7h1.08v-1.42l.89-.32v1.74h1.58v.7Z"/><path class="cls-4" d="M173.8,154.68h-4.06a2.43,2.43,0,0,0,.49,1.59,1.77,1.77,0,0,0,1.39.54,2.84,2.84,0,0,0,1.79-.65l.29.65a2.48,2.48,0,0,1-.93.54,3.49,3.49,0,0,1-1.16.2,2.69,2.69,0,0,1-2-.77,2.9,2.9,0,0,1-.74-2.09,3.25,3.25,0,0,1,.33-1.5,2.42,2.42,0,0,1,.93-1,2.52,2.52,0,0,1,1.35-.36,2.18,2.18,0,0,1,1.73.72,3,3,0,0,1,.62,2Zm-3.47-1.76a2,2,0,0,0-.55,1.17H173a1.9,1.9,0,0,0-.46-1.19,1.43,1.43,0,0,0-1.08-.4A1.56,1.56,0,0,0,170.33,152.92Z"/><path class="cls-4" d="M175.16,157.47v-8.1h.89v8.1Z"/><path class="cls-4" d="M177.43,156.83l.3-.66a2.87,2.87,0,0,0,.91.51,3.35,3.35,0,0,0,1,.15,1.78,1.78,0,0,0,.95-.21A.7.7,0,0,0,181,156a.67.67,0,0,0-.22-.53,1.57,1.57,0,0,0-.72-.31l-.94-.22a2.06,2.06,0,0,1-1.07-.55,1.33,1.33,0,0,1-.38-.95,1.44,1.44,0,0,1,.58-1.18,2.45,2.45,0,0,1,1.54-.45,3.3,3.3,0,0,1,1.1.18,2.38,2.38,0,0,1,.87.54l-.29.65a2.61,2.61,0,0,0-1.68-.65,1.62,1.62,0,0,0-.92.23.8.8,0,0,0-.12,1.17,1.56,1.56,0,0,0,.66.31l.93.23a2.33,2.33,0,0,1,1.15.54,1.3,1.3,0,0,1,.37,1,1.36,1.36,0,0,1-.58,1.15,2.68,2.68,0,0,1-1.59.43A3.23,3.23,0,0,1,177.43,156.83Z"/></g><g class="cls-2"><path class="cls-4" d="M23.6,162.79h1.09v1H23.6Zm.09,7.88v-5.53h.89v5.53Z"/><path class="cls-4" d="M31.06,167.19v3.48h-.89v-3.43a1.73,1.73,0,0,0-.31-1.13,1.22,1.22,0,0,0-1-.36,1.63,1.63,0,0,0-1.23.48,1.72,1.72,0,0,0-.46,1.27v3.17h-.89v-4a12.1,12.1,0,0,0-.09-1.55h.84l.09,1a1.8,1.8,0,0,1,.76-.83,2.23,2.23,0,0,1,1.16-.3C30.39,165,31.06,165.73,31.06,167.19Z"/><path class="cls-4" d="M40.24,167.88H36.18a2.38,2.38,0,0,0,.49,1.59,1.77,1.77,0,0,0,1.39.54,2.84,2.84,0,0,0,1.79-.65l.29.65a2.48,2.48,0,0,1-.93.54,3.49,3.49,0,0,1-1.16.2,2.69,2.69,0,0,1-2-.77,2.9,2.9,0,0,1-.74-2.09,3.25,3.25,0,0,1,.33-1.5,2.42,2.42,0,0,1,.93-1,2.53,2.53,0,0,1,1.35-.37,2.16,2.16,0,0,1,1.73.73,3,3,0,0,1,.62,2Zm-3.47-1.76a2,2,0,0,0-.55,1.17h3.22A1.9,1.9,0,0,0,39,166.1a1.43,1.43,0,0,0-1.08-.4A1.56,1.56,0,0,0,36.77,166.12Zm1.43-1.7h-.63l1.1-2.24h1Z"/><path class="cls-4" d="M46.23,167.88H42.17a2.33,2.33,0,0,0,.49,1.59,1.76,1.76,0,0,0,1.39.54,2.81,2.81,0,0,0,1.78-.65l.3.65a2.48,2.48,0,0,1-.93.54,3.58,3.58,0,0,1-1.16.2,2.7,2.7,0,0,1-2-.77,2.89,2.89,0,0,1-.73-2.09,3.25,3.25,0,0,1,.33-1.5,2.4,2.4,0,0,1,.92-1,2.58,2.58,0,0,1,1.35-.37,2.15,2.15,0,0,1,1.73.73,2.9,2.9,0,0,1,.63,2Zm-3.47-1.76a2,2,0,0,0-.56,1.17h3.22A1.9,1.9,0,0,0,45,166.1a1.43,1.43,0,0,0-1.09-.4A1.54,1.54,0,0,0,42.76,166.12Zm1.42-1.7h-.63l1.1-2.24h1Z"/><path class="cls-4" d="M52.33,167.19v3.48h-.89v-3.43a1.68,1.68,0,0,0-.31-1.13,1.2,1.2,0,0,0-1-.36,1.63,1.63,0,0,0-1.23.48,1.72,1.72,0,0,0-.46,1.27v3.17h-.89v-4a12.1,12.1,0,0,0-.09-1.55h.85l.09,1a1.8,1.8,0,0,1,.76-.83,2.19,2.19,0,0,1,1.15-.3C51.67,165,52.33,165.73,52.33,167.19Z"/></g><g class="cls-2"><path class="cls-4" d="M60.86,165.15h.89l-2.39,5.52h-.84l-2.36-5.52h.94L59,169.7Z"/></g><g class="cls-2"><path class="cls-4" d="M67.53,165.14v5.53h-.88v-1a1.77,1.77,0,0,1-.73.8,2.35,2.35,0,0,1-1.14.28,2.32,2.32,0,0,1-1.29-.36,2.26,2.26,0,0,1-.86-1,3.52,3.52,0,0,1-.3-1.5,3.42,3.42,0,0,1,.31-1.51,2.34,2.34,0,0,1,.86-1,2.31,2.31,0,0,1,1.28-.37,2.18,2.18,0,0,1,1.13.29,1.85,1.85,0,0,1,.74.8v-1Zm-1.32,4.31a3,3,0,0,0,0-3.15,1.7,1.7,0,0,0-2.52,0,2.94,2.94,0,0,0,0,3.14A1.55,1.55,0,0,0,65,170,1.5,1.5,0,0,0,66.21,169.45Z"/><path class="cls-4" d="M74,167.19v3.48h-.89v-3.43a1.68,1.68,0,0,0-.31-1.13,1.2,1.2,0,0,0-1-.36,1.63,1.63,0,0,0-1.23.48,1.72,1.72,0,0,0-.46,1.27v3.17h-.89v-4a12.1,12.1,0,0,0-.09-1.55H70l.08,1a1.86,1.86,0,0,1,.76-.83A2.25,2.25,0,0,1,72,165C73.35,165,74,165.73,74,167.19Z"/><path class="cls-4" d="M83.44,162.57v8.1h-.88v-1a1.82,1.82,0,0,1-.73.8,2.35,2.35,0,0,1-1.14.28,2.21,2.21,0,0,1-1.28-.37,2.39,2.39,0,0,1-.87-1,3.62,3.62,0,0,1-.31-1.52,3.38,3.38,0,0,1,.31-1.5,2.26,2.26,0,0,1,.86-1,2.32,2.32,0,0,1,1.29-.36,2.28,2.28,0,0,1,1.13.28,1.86,1.86,0,0,1,.73.79v-3.5Zm-1.32,6.88a3,3,0,0,0,0-3.14,1.52,1.52,0,0,0-1.26-.56,1.59,1.59,0,0,0-1.27.55,2.4,2.4,0,0,0-.45,1.55,2.47,2.47,0,0,0,.45,1.59,1.55,1.55,0,0,0,1.27.57A1.52,1.52,0,0,0,82.12,169.45Z"/><path class="cls-4" d="M89.79,167.88H85.74a2.38,2.38,0,0,0,.48,1.59,1.78,1.78,0,0,0,1.4.54,2.81,2.81,0,0,0,1.78-.65l.3.65a2.65,2.65,0,0,1-.93.54,3.6,3.6,0,0,1-1.17.2,2.69,2.69,0,0,1-2-.77,2.9,2.9,0,0,1-.74-2.09,3.25,3.25,0,0,1,.33-1.5,2.42,2.42,0,0,1,.93-1,2.53,2.53,0,0,1,1.35-.37,2.16,2.16,0,0,1,1.73.73,3,3,0,0,1,.62,2Zm-3.47-1.76a2,2,0,0,0-.55,1.17H89a1.9,1.9,0,0,0-.46-1.19,1.43,1.43,0,0,0-1.08-.4A1.56,1.56,0,0,0,86.32,166.12Z"/><path class="cls-4" d="M98.91,170.67H97.75L94.91,168v2.66H94v-8.1h.89v5.11l2.61-2.53h1.13l-2.77,2.65Z"/><path class="cls-4" d="M99.68,170.67v-8.1h.89v8.1Z"/><path class="cls-4" d="M106.93,167.88h-4.06a2.38,2.38,0,0,0,.49,1.59,1.77,1.77,0,0,0,1.39.54,2.84,2.84,0,0,0,1.79-.65l.29.65a2.48,2.48,0,0,1-.93.54,3.49,3.49,0,0,1-1.16.2,2.69,2.69,0,0,1-2-.77,2.9,2.9,0,0,1-.74-2.09,3.25,3.25,0,0,1,.33-1.5,2.42,2.42,0,0,1,.93-1,2.53,2.53,0,0,1,1.35-.37,2.13,2.13,0,0,1,1.72.73,2.9,2.9,0,0,1,.63,2Zm-3.47-1.76a2,2,0,0,0-.55,1.17h3.22a2,2,0,0,0-.46-1.19,1.43,1.43,0,0,0-1.08-.4A1.56,1.56,0,0,0,103.46,166.12Z"/><path class="cls-4" d="M112.92,165.14v5.53h-.87v-1a1.84,1.84,0,0,1-.74.77,2.13,2.13,0,0,1-1.07.27,1.94,1.94,0,0,1-1.48-.55,2.32,2.32,0,0,1-.51-1.63v-3.43h.89v3.41a1.68,1.68,0,0,0,.31,1.1,1.21,1.21,0,0,0,.94.35,1.54,1.54,0,0,0,1.18-.48,1.77,1.77,0,0,0,.45-1.26v-3.12Z"/></g><g class="cls-2"><path class="cls-4" d="M117.72,165.07l0,.81a2.1,2.1,0,0,0-.59-.08,1.4,1.4,0,0,0-1.19.5,1.91,1.91,0,0,0-.39,1.21v3.16h-.89v-4a12.1,12.1,0,0,0-.09-1.55h.85l.09,1a1.65,1.65,0,0,1,.67-.86,1.87,1.87,0,0,1,1-.3A2,2,0,0,1,117.72,165.07Z"/></g><g class="cls-2"><path class="cls-4" d="M123.14,167.88h-4.06a2.38,2.38,0,0,0,.49,1.59A1.76,1.76,0,0,0,121,170a2.79,2.79,0,0,0,1.78-.65l.3.65a2.48,2.48,0,0,1-.93.54,3.54,3.54,0,0,1-1.16.2,2.68,2.68,0,0,1-2-.77,2.86,2.86,0,0,1-.74-2.09,3.25,3.25,0,0,1,.33-1.5,2.47,2.47,0,0,1,.92-1,2.59,2.59,0,0,1,1.36-.37,2.14,2.14,0,0,1,1.72.73,2.9,2.9,0,0,1,.63,2Zm-3.47-1.76a2,2,0,0,0-.56,1.17h3.23a2,2,0,0,0-.46-1.19,1.43,1.43,0,0,0-1.08-.4A1.55,1.55,0,0,0,119.67,166.12Z"/><path class="cls-4" d="M129.24,167.19v3.48h-.89v-3.43a1.68,1.68,0,0,0-.31-1.13,1.18,1.18,0,0,0-1-.36,1.64,1.64,0,0,0-1.24.48,1.77,1.77,0,0,0-.46,1.27v3.17h-.89v-4a12.1,12.1,0,0,0-.09-1.55h.85l.09,1a1.8,1.8,0,0,1,.76-.83,2.22,2.22,0,0,1,1.15-.3C128.58,165,129.24,165.73,129.24,167.19Z"/><path class="cls-4" d="M130.77,169.54h1.14v1.13h-1.14Z"/></g><g class="cls-2"><path class="cls-4" d="M137,169.91h4.6v.76H136V170l4.48-6.4H136v-.76h5.53v.66Z"/></g><g class="cls-2"><path class="cls-4" d="M143.74,170.39a2.29,2.29,0,0,1-.92-1,3.75,3.75,0,0,1,0-3,2.35,2.35,0,0,1,.92-1,2.81,2.81,0,0,1,2.75,0,2.35,2.35,0,0,1,.92,1,3.75,3.75,0,0,1,0,3,2.29,2.29,0,0,1-.92,1,2.81,2.81,0,0,1-2.75,0Zm2.64-.92a2.53,2.53,0,0,0,.44-1.59,2.43,2.43,0,0,0-.45-1.57,1.7,1.7,0,0,0-2.52,0,2.43,2.43,0,0,0-.45,1.57,2.47,2.47,0,0,0,.45,1.59,1.54,1.54,0,0,0,1.27.54A1.52,1.52,0,0,0,146.38,169.47Z"/></g><g class="cls-2"><path class="cls-4" d="M152.2,165.07l0,.81a2.1,2.1,0,0,0-.59-.08,1.4,1.4,0,0,0-1.19.5,1.91,1.91,0,0,0-.39,1.21v3.16h-.89v-4a12.1,12.1,0,0,0-.09-1.55h.85l.08,1a1.72,1.72,0,0,1,.68-.86,1.87,1.87,0,0,1,1.05-.3A2,2,0,0,1,152.2,165.07Z"/></g><g class="cls-2"><path class="cls-4" d="M157.93,165.14v5.49a2.23,2.23,0,0,1-2.5,2.49,4,4,0,0,1-2.18-.57l.16-.73a4.13,4.13,0,0,0,1,.43,3.66,3.66,0,0,0,1,.14,1.62,1.62,0,0,0,1.21-.43,1.75,1.75,0,0,0,.41-1.26v-1.31a1.81,1.81,0,0,1-.75.82,2.15,2.15,0,0,1-1.16.29,2.44,2.44,0,0,1-1.29-.34,2.19,2.19,0,0,1-.87-1,3.52,3.52,0,0,1,0-2.89,2.19,2.19,0,0,1,.87-1,2.45,2.45,0,0,1,1.29-.35,2.23,2.23,0,0,1,1.15.29,1.87,1.87,0,0,1,.75.8v-1Zm-1.35,4.08a2.56,2.56,0,0,0,0-2.93,1.58,1.58,0,0,0-1.26-.54,1.6,1.6,0,0,0-1.28.54,2.52,2.52,0,0,0,0,2.93,1.6,1.6,0,0,0,1.28.54A1.58,1.58,0,0,0,156.58,169.22Z"/></g><g class="cls-2"><path class="cls-4" d="M23.35,183.23l.29-.66a2.92,2.92,0,0,0,.92.51,3.33,3.33,0,0,0,1,.15,1.74,1.74,0,0,0,.95-.21.75.75,0,0,0,.11-1.15,1.61,1.61,0,0,0-.73-.31l-.93-.22a2.09,2.09,0,0,1-1.08-.55,1.33,1.33,0,0,1-.38-.95,1.45,1.45,0,0,1,.59-1.18,2.45,2.45,0,0,1,1.54-.46,3.34,3.34,0,0,1,1.1.19,2.56,2.56,0,0,1,.87.54l-.3.65a2.59,2.59,0,0,0-1.67-.65,1.58,1.58,0,0,0-.92.23.72.72,0,0,0-.33.63.7.7,0,0,0,.21.54,1.46,1.46,0,0,0,.65.31l.94.23a2.34,2.34,0,0,1,1.14.54,1.3,1.3,0,0,1,.38,1,1.37,1.37,0,0,1-.59,1.15,2.64,2.64,0,0,1-1.58.43A3.21,3.21,0,0,1,23.35,183.23Z"/></g><g class="cls-2"><path class="cls-4" d="M30.28,179v3a1.18,1.18,0,0,0,.25.86,1,1,0,0,0,.71.25,2,2,0,0,0,.6-.1v.76a2.65,2.65,0,0,1-.77.11,1.67,1.67,0,0,1-1.24-.45,1.76,1.76,0,0,1-.45-1.31V179H28.31v-.7h1.07v-1.42l.9-.32v1.74h1.58v.7Z"/><path class="cls-4" d="M37.57,181.08H33.51a2.38,2.38,0,0,0,.49,1.59,1.76,1.76,0,0,0,1.39.54,2.79,2.79,0,0,0,1.78-.65l.3.65a2.48,2.48,0,0,1-.93.54,3.54,3.54,0,0,1-1.16.2,2.68,2.68,0,0,1-2-.77,2.86,2.86,0,0,1-.74-2.09,3.25,3.25,0,0,1,.33-1.5,2.47,2.47,0,0,1,.92-1,2.58,2.58,0,0,1,1.35-.37,2.18,2.18,0,0,1,1.73.73,2.9,2.9,0,0,1,.63,2Zm-3.47-1.76a2,2,0,0,0-.56,1.17h3.23a2,2,0,0,0-.46-1.19,1.43,1.43,0,0,0-1.08-.4A1.55,1.55,0,0,0,34.1,179.32Z"/><path class="cls-4" d="M43.55,181.08H39.49a2.38,2.38,0,0,0,.49,1.59,1.78,1.78,0,0,0,1.4.54,2.83,2.83,0,0,0,1.78-.65l.29.65a2.48,2.48,0,0,1-.93.54,3.49,3.49,0,0,1-1.16.2,2.69,2.69,0,0,1-2-.77,2.9,2.9,0,0,1-.74-2.09,3.25,3.25,0,0,1,.33-1.5,2.42,2.42,0,0,1,.93-1,2.53,2.53,0,0,1,1.35-.37,2.19,2.19,0,0,1,1.73.73,3,3,0,0,1,.62,2Zm-3.47-1.76a2,2,0,0,0-.55,1.17h3.22a1.9,1.9,0,0,0-.46-1.19,1.43,1.43,0,0,0-1.08-.4A1.56,1.56,0,0,0,40.08,179.32Z"/><path class="cls-4" d="M49.78,175.77v8.1H48.9v-1a1.82,1.82,0,0,1-.73.8A2.35,2.35,0,0,1,47,184a2.21,2.21,0,0,1-1.28-.37,2.46,2.46,0,0,1-.87-1,3.62,3.62,0,0,1-.3-1.52,3.52,3.52,0,0,1,.3-1.5,2.26,2.26,0,0,1,.86-1A2.34,2.34,0,0,1,47,178.2a2.18,2.18,0,0,1,1.13.29,1.72,1.72,0,0,1,.73.78v-3.5Zm-1.32,6.88a3,3,0,0,0,0-3.14,1.5,1.5,0,0,0-1.25-.56,1.6,1.6,0,0,0-1.28.55,2.4,2.4,0,0,0-.45,1.55,2.47,2.47,0,0,0,.45,1.59,1.55,1.55,0,0,0,1.28.57A1.48,1.48,0,0,0,48.46,182.65Z"/><path class="cls-4" d="M51.16,183.23l.3-.66a3,3,0,0,0,.91.51,3.39,3.39,0,0,0,1,.15,1.76,1.76,0,0,0,1-.21.69.69,0,0,0,.32-.62.67.67,0,0,0-.22-.53,1.52,1.52,0,0,0-.72-.31l-.94-.22a2.06,2.06,0,0,1-1.07-.55,1.33,1.33,0,0,1-.38-.95,1.46,1.46,0,0,1,.58-1.18,2.47,2.47,0,0,1,1.54-.46,3.3,3.3,0,0,1,1.1.19,2.38,2.38,0,0,1,.87.54l-.29.65a2.59,2.59,0,0,0-1.68-.65,1.57,1.57,0,0,0-.91.23.72.72,0,0,0-.33.63.7.7,0,0,0,.21.54,1.46,1.46,0,0,0,.65.31l.93.23a2.33,2.33,0,0,1,1.15.54,1.3,1.3,0,0,1,.37,1,1.36,1.36,0,0,1-.58,1.15,2.67,2.67,0,0,1-1.58.43A3.24,3.24,0,0,1,51.16,183.23Z"/></g><g class="cls-2"><path class="cls-4" d="M63.81,178.35h.89l-2.39,5.52h-.84l-2.36-5.52h.94l1.87,4.55Z"/></g><g class="cls-2"><path class="cls-4" d="M66.52,183.59a2.29,2.29,0,0,1-.92-1,3.75,3.75,0,0,1,0-3,2.35,2.35,0,0,1,.92-1,2.63,2.63,0,0,1,1.38-.36,2.57,2.57,0,0,1,1.37.36,2.35,2.35,0,0,1,.92,1,3.75,3.75,0,0,1,0,3,2.29,2.29,0,0,1-.92,1,2.57,2.57,0,0,1-1.37.36A2.63,2.63,0,0,1,66.52,183.59Zm2.64-.92a2.53,2.53,0,0,0,.44-1.59,2.43,2.43,0,0,0-.45-1.57,1.7,1.7,0,0,0-2.52,0,2.43,2.43,0,0,0-.45,1.57,2.47,2.47,0,0,0,.45,1.59,1.54,1.54,0,0,0,1.27.54A1.52,1.52,0,0,0,69.16,182.67Z"/><path class="cls-4" d="M72.81,183.59a2.35,2.35,0,0,1-.92-1,3.75,3.75,0,0,1,0-3,2.41,2.41,0,0,1,.92-1,2.63,2.63,0,0,1,1.38-.36,2.57,2.57,0,0,1,1.37.36,2.29,2.29,0,0,1,.92,1,3.64,3.64,0,0,1,0,3,2.23,2.23,0,0,1-.92,1,2.57,2.57,0,0,1-1.37.36A2.63,2.63,0,0,1,72.81,183.59Zm2.64-.92a2.47,2.47,0,0,0,.44-1.59,2.43,2.43,0,0,0-.45-1.57,1.53,1.53,0,0,0-1.25-.56,1.55,1.55,0,0,0-1.27.56,2.43,2.43,0,0,0-.45,1.57,2.47,2.47,0,0,0,.45,1.59,1.54,1.54,0,0,0,1.27.54A1.52,1.52,0,0,0,75.45,182.67Z"/><path class="cls-4" d="M81.27,178.27l0,.81a2,2,0,0,0-.58-.08,1.41,1.41,0,0,0-1.2.5,1.91,1.91,0,0,0-.39,1.21v3.16h-.89v-4a12.1,12.1,0,0,0-.09-1.55H79l.09,1a1.7,1.7,0,0,1,.67-.86,1.9,1.9,0,0,1,1.06-.3A2,2,0,0,1,81.27,178.27Z"/></g><g class="cls-2"><path class="cls-4" d="M89,178.35h.89l-2.39,5.52h-.84l-2.36-5.52h.94l1.87,4.55Z"/></g><g class="cls-2"><path class="cls-4" d="M91.73,183.59a2.29,2.29,0,0,1-.92-1,3.75,3.75,0,0,1,0-3,2.35,2.35,0,0,1,.92-1,2.81,2.81,0,0,1,2.75,0,2.35,2.35,0,0,1,.92,1,3.75,3.75,0,0,1,0,3,2.29,2.29,0,0,1-.92,1,2.81,2.81,0,0,1-2.75,0Zm2.64-.92a2.53,2.53,0,0,0,.44-1.59,2.43,2.43,0,0,0-.45-1.57,1.7,1.7,0,0,0-2.52,0,2.43,2.43,0,0,0-.45,1.57,2.47,2.47,0,0,0,.45,1.59,1.54,1.54,0,0,0,1.27.54A1.52,1.52,0,0,0,94.37,182.67Z"/><path class="cls-4" d="M97.11,183.87v-8.1H98v8.1Z"/><path class="cls-4" d="M104.6,175.77v8.1h-.88v-1a1.77,1.77,0,0,1-.73.8,2.35,2.35,0,0,1-1.14.28,2.24,2.24,0,0,1-1.28-.37,2.37,2.37,0,0,1-.86-1,3.47,3.47,0,0,1-.31-1.52,3.52,3.52,0,0,1,.3-1.5,2.26,2.26,0,0,1,.86-1,2.36,2.36,0,0,1,1.29-.36,2.18,2.18,0,0,1,1.13.29,1.67,1.67,0,0,1,.73.78v-3.5Zm-1.32,6.88a3,3,0,0,0,0-3.14A1.5,1.5,0,0,0,102,179a1.56,1.56,0,0,0-1.27.55,2.35,2.35,0,0,0-.46,1.55,2.41,2.41,0,0,0,.46,1.59,1.52,1.52,0,0,0,1.27.57A1.48,1.48,0,0,0,103.28,182.65Z"/><path class="cls-4" d="M107.24,183.59a2.29,2.29,0,0,1-.92-1,3.75,3.75,0,0,1,0-3,2.35,2.35,0,0,1,.92-1,2.81,2.81,0,0,1,2.75,0,2.35,2.35,0,0,1,.92,1,3.75,3.75,0,0,1,0,3,2.29,2.29,0,0,1-.92,1,2.81,2.81,0,0,1-2.75,0Zm2.64-.92a2.53,2.53,0,0,0,.44-1.59,2.43,2.43,0,0,0-.45-1.57,1.7,1.7,0,0,0-2.52,0,2.43,2.43,0,0,0-.45,1.57,2.47,2.47,0,0,0,.45,1.59,1.54,1.54,0,0,0,1.27.54A1.52,1.52,0,0,0,109.88,182.67Z"/><path class="cls-4" d="M117.25,181.08h-4.06a2.38,2.38,0,0,0,.49,1.59,1.76,1.76,0,0,0,1.39.54,2.79,2.79,0,0,0,1.78-.65l.3.65a2.48,2.48,0,0,1-.93.54,3.54,3.54,0,0,1-1.16.2,2.69,2.69,0,0,1-2-.77,2.9,2.9,0,0,1-.74-2.09,3.25,3.25,0,0,1,.33-1.5,2.47,2.47,0,0,1,.92-1,2.59,2.59,0,0,1,1.36-.37,2.16,2.16,0,0,1,1.72.73,2.9,2.9,0,0,1,.63,2Zm-3.47-1.76a2,2,0,0,0-.56,1.17h3.23a2,2,0,0,0-.46-1.19,1.43,1.43,0,0,0-1.08-.4A1.56,1.56,0,0,0,113.78,179.32Z"/><path class="cls-4" d="M123.36,180.39v3.48h-.9v-3.43a1.74,1.74,0,0,0-.3-1.13,1.22,1.22,0,0,0-1-.36,1.62,1.62,0,0,0-1.23.48,1.72,1.72,0,0,0-.46,1.27v3.17h-.9v-4a14.41,14.41,0,0,0-.08-1.55h.84l.09,1a1.8,1.8,0,0,1,.76-.83,2.23,2.23,0,0,1,1.16-.3C122.69,178.2,123.36,178.93,123.36,180.39Z"/><path class="cls-4" d="M129.91,175.77v8.1H129v-1a1.77,1.77,0,0,1-.73.8,2.35,2.35,0,0,1-1.14.28,2.24,2.24,0,0,1-1.28-.37,2.37,2.37,0,0,1-.86-1,3.47,3.47,0,0,1-.31-1.52,3.52,3.52,0,0,1,.3-1.5,2.26,2.26,0,0,1,.86-1,2.36,2.36,0,0,1,1.29-.36,2.18,2.18,0,0,1,1.13.29,1.67,1.67,0,0,1,.73.78v-3.5Zm-1.32,6.88a3,3,0,0,0,0-3.14,1.5,1.5,0,0,0-1.25-.56,1.56,1.56,0,0,0-1.27.55,2.35,2.35,0,0,0-.46,1.55,2.41,2.41,0,0,0,.46,1.59,1.52,1.52,0,0,0,1.27.57A1.48,1.48,0,0,0,128.59,182.65Z"/><path class="cls-4" d="M136.27,181.08h-4.06a2.38,2.38,0,0,0,.49,1.59,1.76,1.76,0,0,0,1.39.54,2.79,2.79,0,0,0,1.78-.65l.3.65a2.48,2.48,0,0,1-.93.54,3.54,3.54,0,0,1-1.16.2,2.68,2.68,0,0,1-2-.77,2.86,2.86,0,0,1-.74-2.09,3.25,3.25,0,0,1,.33-1.5,2.47,2.47,0,0,1,.92-1,2.59,2.59,0,0,1,1.36-.37,2.17,2.17,0,0,1,1.72.73,2.9,2.9,0,0,1,.63,2Zm-3.47-1.76a2,2,0,0,0-.56,1.17h3.23a2,2,0,0,0-.46-1.19,1.43,1.43,0,0,0-1.08-.4A1.55,1.55,0,0,0,132.8,179.32Z"/><path class="cls-4" d="M141.41,183.59a2.26,2.26,0,0,1-.92-1,3.25,3.25,0,0,1-.33-1.5,3.29,3.29,0,0,1,.33-1.51,2.44,2.44,0,0,1,.94-1,2.79,2.79,0,0,1,1.43-.37,3.08,3.08,0,0,1,1.08.2,2.36,2.36,0,0,1,.87.53l-.3.66a3.18,3.18,0,0,0-.81-.48,2,2,0,0,0-.8-.16,1.65,1.65,0,0,0-1.33.57,2.37,2.37,0,0,0-.48,1.58,2.28,2.28,0,0,0,.48,1.55,1.62,1.62,0,0,0,1.33.56,2.22,2.22,0,0,0,.8-.15,3.57,3.57,0,0,0,.81-.49l.3.66a2.44,2.44,0,0,1-.89.52,3.21,3.21,0,0,1-1.11.2A2.68,2.68,0,0,1,141.41,183.59Z"/><path class="cls-4" d="M146.85,183.59a2.35,2.35,0,0,1-.92-1,3.75,3.75,0,0,1,0-3,2.41,2.41,0,0,1,.92-1,2.63,2.63,0,0,1,1.38-.36,2.57,2.57,0,0,1,1.37.36,2.35,2.35,0,0,1,.92,1,3.75,3.75,0,0,1,0,3,2.29,2.29,0,0,1-.92,1,2.57,2.57,0,0,1-1.37.36A2.63,2.63,0,0,1,146.85,183.59Zm2.64-.92a2.53,2.53,0,0,0,.44-1.59,2.43,2.43,0,0,0-.45-1.57,1.7,1.7,0,0,0-2.52,0,2.43,2.43,0,0,0-.45,1.57,2.47,2.47,0,0,0,.45,1.59,1.54,1.54,0,0,0,1.27.54A1.52,1.52,0,0,0,149.49,182.67Z"/><path class="cls-4" d="M157,180.39v3.48h-.89v-3.43a1.68,1.68,0,0,0-.31-1.13,1.19,1.19,0,0,0-1-.36,1.64,1.64,0,0,0-1.24.48,1.77,1.77,0,0,0-.46,1.27v3.17h-.89v-4a12.1,12.1,0,0,0-.09-1.55H153l.09,1a1.8,1.8,0,0,1,.76-.83,2.19,2.19,0,0,1,1.15-.3C156.32,178.2,157,178.93,157,180.39Z"/><path class="cls-4" d="M159.85,179v3a1.18,1.18,0,0,0,.26.86,1,1,0,0,0,.71.25,2,2,0,0,0,.6-.1v.76a2.67,2.67,0,0,1-.78.11,1.65,1.65,0,0,1-1.23-.45,1.76,1.76,0,0,1-.45-1.31V179h-1.08v-.7H159v-1.42l.89-.32v1.74h1.59v.7Z"/></g><g class="cls-2"><path class="cls-4" d="M165.6,178.27l0,.81A2.1,2.1,0,0,0,165,179a1.4,1.4,0,0,0-1.19.5,1.91,1.91,0,0,0-.39,1.21v3.16h-.89v-4a12.1,12.1,0,0,0-.09-1.55h.85l.09,1a1.65,1.65,0,0,1,.67-.86,1.87,1.87,0,0,1,1.05-.3A2,2,0,0,1,165.6,178.27Z"/></g><g class="cls-2"><path class="cls-4" d="M171.26,178.34v5.53h-.88v-1a1.77,1.77,0,0,1-.73.8,2.35,2.35,0,0,1-1.14.28,2.32,2.32,0,0,1-1.29-.36,2.26,2.26,0,0,1-.86-1,3.52,3.52,0,0,1-.3-1.5,3.42,3.42,0,0,1,.31-1.51,2.34,2.34,0,0,1,.86-1,2.31,2.31,0,0,1,1.28-.37,2.18,2.18,0,0,1,1.13.29,1.85,1.85,0,0,1,.74.8v-.95Zm-1.32,4.31a3,3,0,0,0,0-3.15,1.7,1.7,0,0,0-2.52,0,2.94,2.94,0,0,0,0,3.14,1.55,1.55,0,0,0,1.28.55A1.48,1.48,0,0,0,169.94,182.65Z"/></g><g class="cls-2"><path class="cls-4" d="M172.65,183.23l.29-.66a3,3,0,0,0,.92.51,3.33,3.33,0,0,0,1,.15,1.74,1.74,0,0,0,1-.21.75.75,0,0,0,.11-1.15,1.61,1.61,0,0,0-.73-.31l-.93-.22a2.09,2.09,0,0,1-1.08-.55,1.33,1.33,0,0,1-.38-.95,1.45,1.45,0,0,1,.59-1.18,2.45,2.45,0,0,1,1.54-.46,3.34,3.34,0,0,1,1.1.19,2.56,2.56,0,0,1,.87.54l-.3.65a2.59,2.59,0,0,0-1.67-.65,1.58,1.58,0,0,0-.92.23.72.72,0,0,0-.33.63.7.7,0,0,0,.21.54,1.46,1.46,0,0,0,.65.31l.94.23a2.34,2.34,0,0,1,1.14.54,1.3,1.3,0,0,1,.38,1,1.37,1.37,0,0,1-.59,1.15,2.64,2.64,0,0,1-1.58.43A3.21,3.21,0,0,1,172.65,183.23Z"/></g><g class="cls-2"><path class="cls-4" d="M179.58,179v3a1.18,1.18,0,0,0,.25.86,1,1,0,0,0,.71.25,2,2,0,0,0,.6-.1v.76a2.65,2.65,0,0,1-.77.11,1.67,1.67,0,0,1-1.24-.45,1.76,1.76,0,0,1-.45-1.31V179h-1.07v-.7h1.07v-1.42l.9-.32v1.74h1.58v.7Z"/></g><g class="cls-2"><path class="cls-4" d="M24.88,192.24v3a1.18,1.18,0,0,0,.25.86,1,1,0,0,0,.71.25,2,2,0,0,0,.6-.1V197a2.65,2.65,0,0,1-.77.11,1.67,1.67,0,0,1-1.24-.45,1.76,1.76,0,0,1-.45-1.31v-3.15H22.91v-.7H24v-1.42l.9-.32v1.74h1.58v.7Z"/><path class="cls-4" d="M32.17,191.54v5.53H31.3v-1a1.78,1.78,0,0,1-.74.77,2.09,2.09,0,0,1-1.06.27A2,2,0,0,1,28,196.6a2.32,2.32,0,0,1-.5-1.63v-3.43h.89V195a1.68,1.68,0,0,0,.3,1.1,1.21,1.21,0,0,0,.94.35,1.56,1.56,0,0,0,1.19-.48,1.77,1.77,0,0,0,.45-1.26v-3.12Z"/><path class="cls-4" d="M33.54,196.43l.3-.66a3,3,0,0,0,.91.51,3.39,3.39,0,0,0,1,.15,1.76,1.76,0,0,0,1-.21.69.69,0,0,0,.32-.62.67.67,0,0,0-.22-.53,1.52,1.52,0,0,0-.72-.31l-.94-.22a2.06,2.06,0,0,1-1.07-.55,1.33,1.33,0,0,1-.38-1,1.46,1.46,0,0,1,.58-1.18,2.47,2.47,0,0,1,1.54-.46,3.3,3.3,0,0,1,1.1.19,2.38,2.38,0,0,1,.87.54l-.29.65a2.61,2.61,0,0,0-1.68-.65,1.57,1.57,0,0,0-.91.23.72.72,0,0,0-.33.63.73.73,0,0,0,.2.54,1.56,1.56,0,0,0,.66.31l.93.23a2.33,2.33,0,0,1,1.15.54,1.3,1.3,0,0,1,.37,1,1.36,1.36,0,0,1-.58,1.15,2.68,2.68,0,0,1-1.59.43A3.23,3.23,0,0,1,33.54,196.43Z"/><path class="cls-4" d="M39,196.43l.3-.66a2.87,2.87,0,0,0,.91.51,3.33,3.33,0,0,0,1,.15,1.8,1.8,0,0,0,1-.21.72.72,0,0,0,.32-.62.67.67,0,0,0-.22-.53,1.61,1.61,0,0,0-.73-.31l-.93-.22a2.06,2.06,0,0,1-1.07-.55,1.29,1.29,0,0,1-.38-1,1.44,1.44,0,0,1,.58-1.18,2.45,2.45,0,0,1,1.54-.46,3.34,3.34,0,0,1,1.1.19,2.56,2.56,0,0,1,.87.54l-.3.65a2.59,2.59,0,0,0-1.67-.65,1.6,1.6,0,0,0-.92.23.71.71,0,0,0-.32.63.69.69,0,0,0,.2.54,1.51,1.51,0,0,0,.65.31l.94.23a2.34,2.34,0,0,1,1.14.54,1.3,1.3,0,0,1,.38,1,1.37,1.37,0,0,1-.59,1.15,2.62,2.62,0,0,1-1.58.43A3.21,3.21,0,0,1,39,196.43Z"/><path class="cls-4" d="M49.43,194.28H45.37a2.38,2.38,0,0,0,.49,1.59,1.76,1.76,0,0,0,1.39.54,2.81,2.81,0,0,0,1.78-.65l.3.65a2.48,2.48,0,0,1-.93.54,3.58,3.58,0,0,1-1.16.2,2.7,2.7,0,0,1-2-.77,2.89,2.89,0,0,1-.73-2.09,3.25,3.25,0,0,1,.33-1.5,2.4,2.4,0,0,1,.92-1,2.58,2.58,0,0,1,1.35-.37,2.18,2.18,0,0,1,1.73.73,2.9,2.9,0,0,1,.63,2ZM46,192.52a2,2,0,0,0-.56,1.17h3.22a1.9,1.9,0,0,0-.45-1.19,1.43,1.43,0,0,0-1.09-.4A1.54,1.54,0,0,0,46,192.52Z"/><path class="cls-4" d="M55.53,193.59v3.48h-.89v-3.43a1.68,1.68,0,0,0-.31-1.13,1.18,1.18,0,0,0-1-.36,1.64,1.64,0,0,0-1.24.48,1.77,1.77,0,0,0-.46,1.27v3.17h-.89v-4a12.1,12.1,0,0,0-.09-1.55h.85l.09,1a1.8,1.8,0,0,1,.76-.83,2.19,2.19,0,0,1,1.15-.3C54.87,191.4,55.53,192.13,55.53,193.59Z"/><path class="cls-4" d="M64.84,193.59v3.48H64v-3.43a1.73,1.73,0,0,0-.31-1.13,1.22,1.22,0,0,0-1-.36,1.63,1.63,0,0,0-1.23.48A1.72,1.72,0,0,0,61,193.9v3.17h-.89V189H61v3.47a1.74,1.74,0,0,1,.75-.77,2.29,2.29,0,0,1,1.12-.27C64.17,191.4,64.84,192.13,64.84,193.59Z"/></g><g class="cls-2"><path class="cls-4" d="M71.15,194.28H67.09a2.38,2.38,0,0,0,.49,1.59,1.76,1.76,0,0,0,1.39.54,2.79,2.79,0,0,0,1.78-.65l.3.65a2.48,2.48,0,0,1-.93.54,3.54,3.54,0,0,1-1.16.2,2.68,2.68,0,0,1-2-.77,2.86,2.86,0,0,1-.74-2.09,3.25,3.25,0,0,1,.33-1.5,2.47,2.47,0,0,1,.92-1,2.58,2.58,0,0,1,1.35-.37,2.18,2.18,0,0,1,1.73.73,2.9,2.9,0,0,1,.63,2Zm-3.47-1.76a2,2,0,0,0-.56,1.17h3.23a2,2,0,0,0-.46-1.19,1.43,1.43,0,0,0-1.08-.4A1.55,1.55,0,0,0,67.68,192.52Z"/></g><g class="cls-2"><path class="cls-4" d="M73.66,192.24v3a1.18,1.18,0,0,0,.25.86,1,1,0,0,0,.71.25,2,2,0,0,0,.6-.1V197a2.65,2.65,0,0,1-.77.11,1.67,1.67,0,0,1-1.24-.45,1.76,1.76,0,0,1-.45-1.31v-3.15H71.69v-.7h1.07v-1.42l.9-.32v1.74h1.58v.7Z"/><path class="cls-4" d="M79.19,197.07V189h.89v8.1Z"/></g><g class="cls-2"><path class="cls-4" d="M86.44,194.28H82.38a2.38,2.38,0,0,0,.49,1.59,1.76,1.76,0,0,0,1.39.54,2.79,2.79,0,0,0,1.78-.65l.3.65a2.48,2.48,0,0,1-.93.54,3.54,3.54,0,0,1-1.16.2,2.68,2.68,0,0,1-2-.77,2.86,2.86,0,0,1-.74-2.09,3.25,3.25,0,0,1,.33-1.5,2.47,2.47,0,0,1,.92-1,2.58,2.58,0,0,1,1.35-.37,2.18,2.18,0,0,1,1.73.73,2.9,2.9,0,0,1,.63,2ZM83,192.52a2,2,0,0,0-.56,1.17h3.23a2,2,0,0,0-.46-1.19,1.43,1.43,0,0,0-1.08-.4A1.55,1.55,0,0,0,83,192.52Z"/></g><g class="cls-2"><path class="cls-4" d="M89,192.24v3a1.18,1.18,0,0,0,.25.86,1,1,0,0,0,.71.25,2,2,0,0,0,.6-.1V197a2.65,2.65,0,0,1-.77.11,1.67,1.67,0,0,1-1.24-.45,1.76,1.76,0,0,1-.45-1.31v-3.15H87v-.7h1.07v-1.42l.9-.32v1.74h1.58v.7Z"/></g><g class="cls-2"><path class="cls-4" d="M92.84,192.24v3a1.18,1.18,0,0,0,.25.86,1,1,0,0,0,.71.25,2,2,0,0,0,.6-.1V197a2.65,2.65,0,0,1-.77.11,1.67,1.67,0,0,1-1.24-.45,1.76,1.76,0,0,1-.45-1.31v-3.15H90.87v-.7h1.07v-1.42l.9-.32v1.74h1.58v.7Z"/><path class="cls-4" d="M100.13,194.28H96.07a2.38,2.38,0,0,0,.49,1.59,1.76,1.76,0,0,0,1.39.54,2.79,2.79,0,0,0,1.78-.65l.3.65a2.48,2.48,0,0,1-.93.54,3.54,3.54,0,0,1-1.16.2,2.68,2.68,0,0,1-2-.77,2.86,2.86,0,0,1-.74-2.09,3.25,3.25,0,0,1,.33-1.5,2.47,2.47,0,0,1,.92-1,2.58,2.58,0,0,1,1.35-.37,2.18,2.18,0,0,1,1.73.73,2.9,2.9,0,0,1,.63,2Zm-3.47-1.76a2,2,0,0,0-.56,1.17h3.23a2,2,0,0,0-.46-1.19,1.43,1.43,0,0,0-1.08-.4A1.55,1.55,0,0,0,96.66,192.52Z"/></g><g class="cls-2"><path class="cls-4" d="M104.56,191.47l0,.81a2.1,2.1,0,0,0-.59-.08,1.4,1.4,0,0,0-1.19.5,1.91,1.91,0,0,0-.39,1.21v3.16h-.89v-4a12.1,12.1,0,0,0-.09-1.55h.85l.09,1a1.65,1.65,0,0,1,.67-.86,1.87,1.87,0,0,1,1-.3A2,2,0,0,1,104.56,191.47Z"/></g><g class="cls-2"><path class="cls-4" d="M107.08,192.24v3a1.18,1.18,0,0,0,.25.86,1,1,0,0,0,.71.25,2,2,0,0,0,.6-.1V197a2.65,2.65,0,0,1-.77.11,1.67,1.67,0,0,1-1.24-.45,1.76,1.76,0,0,1-.45-1.31v-3.15h-1.07v-.7h1.07v-1.42l.9-.32v1.74h1.58v.7Z"/></g><g class="cls-2"><path class="cls-4" d="M114.67,191.54l-2.59,6a3.16,3.16,0,0,1-1,1.38,3.6,3.6,0,0,1-1.52.61l-.18-.7a3.22,3.22,0,0,0,1.18-.46,2.22,2.22,0,0,0,.67-.9l.22-.49-2.35-5.48H110l1.87,4.56,1.89-4.56Z"/><path class="cls-4" d="M119.7,191.77a2.43,2.43,0,0,1,.87,1,3.57,3.57,0,0,1,.3,1.51,3.52,3.52,0,0,1-.3,1.5,2.34,2.34,0,0,1-.87,1,2.32,2.32,0,0,1-1.29.36,2.18,2.18,0,0,1-1.13-.29,1.82,1.82,0,0,1-.74-.81v3.4h-.89v-6.36a12.1,12.1,0,0,0-.09-1.55h.85l.09,1.06a1.76,1.76,0,0,1,.73-.88,2.17,2.17,0,0,1,1.18-.32A2.37,2.37,0,0,1,119.7,191.77Zm-.2,4.09a2.42,2.42,0,0,0,.45-1.56,2.48,2.48,0,0,0-.45-1.58,1.51,1.51,0,0,0-1.25-.57,1.54,1.54,0,0,0-1.27.55,3,3,0,0,0,0,3.15,1.71,1.71,0,0,0,2.52,0Z"/><path class="cls-4" d="M126.88,194.28h-4.06a2.38,2.38,0,0,0,.49,1.59,1.76,1.76,0,0,0,1.39.54,2.79,2.79,0,0,0,1.78-.65l.3.65a2.48,2.48,0,0,1-.93.54,3.54,3.54,0,0,1-1.16.2,2.69,2.69,0,0,1-2-.77,2.86,2.86,0,0,1-.74-2.09,3.25,3.25,0,0,1,.33-1.5,2.47,2.47,0,0,1,.92-1,2.59,2.59,0,0,1,1.36-.37,2.17,2.17,0,0,1,1.72.73,2.9,2.9,0,0,1,.63,2Zm-3.47-1.76a2,2,0,0,0-.56,1.17h3.23a2,2,0,0,0-.46-1.19,1.43,1.43,0,0,0-1.08-.4A1.56,1.56,0,0,0,123.41,192.52Z"/><path class="cls-4" d="M135.73,194.28h-4a2.33,2.33,0,0,0,.49,1.59,1.74,1.74,0,0,0,1.39.54,2.81,2.81,0,0,0,1.78-.65l.3.65a2.65,2.65,0,0,1-.93.54,3.6,3.6,0,0,1-1.17.2,2.69,2.69,0,0,1-2-.77,2.9,2.9,0,0,1-.74-2.09,3.25,3.25,0,0,1,.33-1.5,2.42,2.42,0,0,1,.93-1,2.53,2.53,0,0,1,1.35-.37,2.19,2.19,0,0,1,1.73.73,2.9,2.9,0,0,1,.62,2Zm-3.47-1.76a2,2,0,0,0-.55,1.17h3.22a1.85,1.85,0,0,0-.46-1.19,1.43,1.43,0,0,0-1.08-.4A1.56,1.56,0,0,0,132.26,192.52Z"/><path class="cls-4" d="M141.84,193.59v3.48H141v-3.43a1.68,1.68,0,0,0-.31-1.13,1.22,1.22,0,0,0-1-.36,1.63,1.63,0,0,0-1.23.48,1.72,1.72,0,0,0-.46,1.27v3.17h-.89v-4a12.1,12.1,0,0,0-.09-1.55h.85l.08,1a1.86,1.86,0,0,1,.76-.83,2.25,2.25,0,0,1,1.16-.3C141.18,191.4,141.84,192.13,141.84,193.59Z"/><path class="cls-4" d="M151.27,189v8.1h-.88v-1a1.85,1.85,0,0,1-.74.8,2.28,2.28,0,0,1-1.13.28,2.25,2.25,0,0,1-1.29-.37,2.44,2.44,0,0,1-.86-1,3.62,3.62,0,0,1-.31-1.52,3.38,3.38,0,0,1,.31-1.5,2.2,2.2,0,0,1,.86-1,2.32,2.32,0,0,1,1.29-.36,2.18,2.18,0,0,1,1.13.29,1.78,1.78,0,0,1,.73.78V189ZM150,195.85a3,3,0,0,0,0-3.14,1.53,1.53,0,0,0-1.26-.56,1.59,1.59,0,0,0-1.27.55,2.41,2.41,0,0,0-.46,1.55,2.47,2.47,0,0,0,.46,1.59,1.55,1.55,0,0,0,1.27.57A1.51,1.51,0,0,0,150,195.85Z"/><path class="cls-4" d="M157.62,194.28h-4.05a2.38,2.38,0,0,0,.48,1.59,1.78,1.78,0,0,0,1.4.54,2.81,2.81,0,0,0,1.78-.65l.3.65a2.65,2.65,0,0,1-.93.54,3.6,3.6,0,0,1-1.17.2,2.69,2.69,0,0,1-2-.77,2.9,2.9,0,0,1-.74-2.09,3.25,3.25,0,0,1,.33-1.5,2.42,2.42,0,0,1,.93-1,2.53,2.53,0,0,1,1.35-.37,2.19,2.19,0,0,1,1.73.73,2.9,2.9,0,0,1,.62,2Zm-3.47-1.76a2,2,0,0,0-.55,1.17h3.22a1.9,1.9,0,0,0-.46-1.19,1.43,1.43,0,0,0-1.08-.4A1.56,1.56,0,0,0,154.15,192.52Z"/></g><g class="cls-2"><path class="cls-4" d="M28.56,204.74v5.53h-.88v-1a1.77,1.77,0,0,1-.73.8,2.35,2.35,0,0,1-1.14.28,2.32,2.32,0,0,1-1.29-.36,2.26,2.26,0,0,1-.86-1,3.52,3.52,0,0,1-.3-1.5,3.42,3.42,0,0,1,.31-1.51,2.34,2.34,0,0,1,.86-1,2.31,2.31,0,0,1,1.28-.36,2.18,2.18,0,0,1,1.13.28,1.85,1.85,0,0,1,.74.8v-.95Zm-1.32,4.31a3,3,0,0,0,0-3.15,1.7,1.7,0,0,0-2.52,0,2.94,2.94,0,0,0,0,3.14,1.55,1.55,0,0,0,1.28.55A1.48,1.48,0,0,0,27.24,209.05Z"/><path class="cls-4" d="M31.21,210a2.34,2.34,0,0,1-.93-1,3.38,3.38,0,0,1-.32-1.5,3.29,3.29,0,0,1,.33-1.51,2.38,2.38,0,0,1,.94-1,2.75,2.75,0,0,1,1.42-.36,3.09,3.09,0,0,1,1.09.19,2.41,2.41,0,0,1,.86.53l-.3.66a3.18,3.18,0,0,0-.81-.48,2,2,0,0,0-.79-.16,1.64,1.64,0,0,0-1.33.57,2.32,2.32,0,0,0-.49,1.58,2.28,2.28,0,0,0,.48,1.55,1.64,1.64,0,0,0,1.34.56,2.17,2.17,0,0,0,.79-.15,3.57,3.57,0,0,0,.81-.49l.3.66a2.36,2.36,0,0,1-.89.52,3.15,3.15,0,0,1-1.1.2A2.65,2.65,0,0,1,31.21,210Z"/><path class="cls-4" d="M40.48,206.79v3.48h-.89v-3.43a1.74,1.74,0,0,0-.3-1.13,1.22,1.22,0,0,0-1-.36,1.6,1.6,0,0,0-1.23.48,1.73,1.73,0,0,0-.47,1.27v3.17h-.89v-8.1h.89v3.47a1.82,1.82,0,0,1,.76-.77,2.25,2.25,0,0,1,1.11-.26C39.82,204.61,40.48,205.33,40.48,206.79Z"/><path class="cls-4" d="M43.36,205.44v3a1.18,1.18,0,0,0,.25.86,1,1,0,0,0,.71.25,2,2,0,0,0,.6-.1v.76a2.65,2.65,0,0,1-.77.11,1.67,1.67,0,0,1-1.24-.45,1.75,1.75,0,0,1-.45-1.31v-3.15H41.39v-.7h1.07v-1.42l.9-.32v1.74h1.58v.7Z"/><path class="cls-4" d="M50.65,207.48H46.59a2.38,2.38,0,0,0,.49,1.59,1.76,1.76,0,0,0,1.39.54,2.79,2.79,0,0,0,1.78-.65l.3.65a2.48,2.48,0,0,1-.93.54,3.54,3.54,0,0,1-1.16.2,2.71,2.71,0,0,1-2-.77,2.89,2.89,0,0,1-.73-2.09A3.25,3.25,0,0,1,46,206a2.47,2.47,0,0,1,.92-1,2.57,2.57,0,0,1,1.35-.36,2.17,2.17,0,0,1,1.73.72,2.9,2.9,0,0,1,.63,2Zm-3.47-1.76a2,2,0,0,0-.56,1.17h3.23a2,2,0,0,0-.46-1.19,1.43,1.43,0,0,0-1.08-.4A1.55,1.55,0,0,0,47.18,205.72Z"/></g><g class="cls-2"><path class="cls-4" d="M55.08,204.67l0,.82a1.78,1.78,0,0,0-.59-.09,1.4,1.4,0,0,0-1.19.5,1.91,1.91,0,0,0-.39,1.21v3.16H52v-4a12.1,12.1,0,0,0-.09-1.55h.85l.09,1a1.65,1.65,0,0,1,.67-.86,1.86,1.86,0,0,1,1-.29A2,2,0,0,1,55.08,204.67Z"/></g><g class="cls-2"><path class="cls-4" d="M60.81,204.74v5.49a2.49,2.49,0,0,1-.64,1.86,2.52,2.52,0,0,1-1.86.63,4,4,0,0,1-2.18-.57l.16-.72a4.5,4.5,0,0,0,1,.42,3.72,3.72,0,0,0,1,.14,1.58,1.58,0,0,0,1.21-.43,1.75,1.75,0,0,0,.41-1.26V209a1.81,1.81,0,0,1-.75.82,2.15,2.15,0,0,1-1.16.3,2.45,2.45,0,0,1-1.29-.35,2.19,2.19,0,0,1-.87-1,3.52,3.52,0,0,1,0-2.89,2.19,2.19,0,0,1,.87-1,2.44,2.44,0,0,1,1.29-.34,2.23,2.23,0,0,1,1.15.28,1.87,1.87,0,0,1,.75.8v-.95Zm-1.35,4.08a2.56,2.56,0,0,0,0-2.93,1.58,1.58,0,0,0-1.26-.54,1.6,1.6,0,0,0-1.28.54,2.52,2.52,0,0,0,0,2.93,1.6,1.6,0,0,0,1.28.54A1.58,1.58,0,0,0,59.46,208.82Z"/></g><g class="cls-2"><path class="cls-4" d="M65.6,204.67l0,.82a1.78,1.78,0,0,0-.59-.09,1.4,1.4,0,0,0-1.19.5,1.91,1.91,0,0,0-.39,1.21v3.16h-.89v-4a12.1,12.1,0,0,0-.09-1.55h.85l.09,1a1.65,1.65,0,0,1,.67-.86,1.86,1.86,0,0,1,1-.29A2,2,0,0,1,65.6,204.67Z"/></g><g class="cls-2"><path class="cls-4" d="M67.3,210a2.29,2.29,0,0,1-.92-1,3.39,3.39,0,0,1-.32-1.51,3.44,3.44,0,0,1,.32-1.52,2.35,2.35,0,0,1,.92-1,2.88,2.88,0,0,1,2.75,0,2.35,2.35,0,0,1,.92,1,3.31,3.31,0,0,1,.32,1.52A3.26,3.26,0,0,1,71,209a2.29,2.29,0,0,1-.92,1,2.81,2.81,0,0,1-2.75,0Zm2.64-.92a2.53,2.53,0,0,0,.44-1.59,2.43,2.43,0,0,0-.45-1.57,1.7,1.7,0,0,0-2.52,0,2.43,2.43,0,0,0-.45,1.57,2.47,2.47,0,0,0,.45,1.59,1.54,1.54,0,0,0,1.27.54A1.52,1.52,0,0,0,69.94,209.07Z"/><path class="cls-4" d="M77.43,206.79v3.48h-.89v-3.43a1.68,1.68,0,0,0-.31-1.13,1.2,1.2,0,0,0-1-.36,1.63,1.63,0,0,0-1.23.48,1.72,1.72,0,0,0-.46,1.27v3.17h-.89v-4a12.1,12.1,0,0,0-.09-1.55h.85l.09,1a1.8,1.8,0,0,1,.76-.83,2.19,2.19,0,0,1,1.15-.29C76.77,204.61,77.43,205.33,77.43,206.79Z"/><path class="cls-4" d="M84,202.17v8.1h-.88v-1a1.82,1.82,0,0,1-.73.8,2.35,2.35,0,0,1-1.14.28A2.21,2.21,0,0,1,80,210a2.46,2.46,0,0,1-.87-1,3.62,3.62,0,0,1-.31-1.52,3.52,3.52,0,0,1,.31-1.5,2.26,2.26,0,0,1,.86-1,2.31,2.31,0,0,1,1.29-.35,2.18,2.18,0,0,1,1.13.28,1.72,1.72,0,0,1,.73.78v-3.5Zm-1.32,6.88a3,3,0,0,0,0-3.14,1.52,1.52,0,0,0-1.26-.56,1.59,1.59,0,0,0-1.27.55,2.4,2.4,0,0,0-.45,1.55,2.47,2.47,0,0,0,.45,1.59,1.55,1.55,0,0,0,1.27.57A1.49,1.49,0,0,0,82.67,209.05Z"/><path class="cls-4" d="M85.56,209.14h1.13v1.13H85.56Z"/></g></g></svg>