<svg id="Laag_1" data-name="Laag 1" xmlns="http://www.w3.org/2000/svg" viewBox="0 0 225.41 247.63"><defs><style>.cls-1{fill:#ffc800;}.cls-2,.cls-4,.cls-6{font-size:26.94px;}.cls-12,.cls-2,.cls-4,.cls-6{fill:#fff;}.cls-12,.cls-2{font-family:Rubik-Bold, Rubik;font-weight:700;}.cls-3{letter-spacing:0em;}.cls-4{font-family:Rubik-Medium, Rubik;font-weight:500;}.cls-5{letter-spacing:-0.01em;}.cls-6{font-family:Rubik-Regular, Rubik;}.cls-7{letter-spacing:-0.01em;}.cls-8{letter-spacing:0em;}.cls-9{letter-spacing:-0.01em;}.cls-10{letter-spacing:0em;}.cls-11{letter-spacing:-0.02em;}.cls-12{font-size:14px;}.cls-13{letter-spacing:-0.01em;}.cls-14{letter-spacing:0em;}.cls-15{font-size:11px;fill:#261f5b;font-family:Muli-Regular, Muli;}.cls-16{letter-spacing:0em;}.cls-17{letter-spacing:0em;}.cls-18{letter-spacing:0.04em;}.cls-19{letter-spacing:0.01em;}.cls-20{letter-spacing:-0.01em;}.cls-21{letter-spacing:-0.01em;}.cls-22{letter-spacing:0em;}.cls-23{letter-spacing:-0.01em;}.cls-24{letter-spacing:-0.01em;}.cls-25{letter-spacing:0em;}.cls-26{letter-spacing:0em;}</style></defs><rect class="cls-1" width="225.41" height="247.63"/><text class="cls-2" transform="translate(14.44 39.24)">Rubi<tspan class="cls-3" x="60.96" y="0">k</tspan><tspan x="76.77" y="0" xml:space="preserve"> Bold</tspan></text><text class="cls-4" transform="translate(14.44 65.58)">Rubi<tspan class="cls-5" x="58.59" y="0">k</tspan><tspan x="73.27" y="0" xml:space="preserve"> Medium</tspan></text><text class="cls-6" transform="translate(14.44 91.22)">Rubi<tspan class="cls-7" x="56.24" y="0">k</tspan><tspan class="cls-8" x="69.79" y="0"> </tspan><tspan class="cls-9" x="76.42" y="0">R</tspan><tspan class="cls-10" x="93.87" y="0">egula</tspan><tspan class="cls-11" x="162.43" y="0">r</tspan></text><text class="cls-12" transform="translate(19.17 135.12)"><tspan class="cls-13">T</tspan><tspan x="8.75" y="0">itels en su</tspan><tspan class="cls-14" x="79.76" y="0">b</tspan><tspan x="88.6" y="0">titels</tspan></text><text class="cls-15" transform="translate(22.83 157.47)">Gebruik dit l<tspan class="cls-16" x="60.67" y="0">e</tspan><tspan class="cls-17" x="66.62" y="0">t</tspan><tspan x="70.5" y="0">te</tspan><tspan class="cls-18" x="80.33" y="0">r</tspan><tspan class="cls-19" x="84.74" y="0">t</tspan><tspan x="88.66" y="0">ype </tspan><tspan class="cls-20" x="109.96" y="0">v</tspan><tspan x="115.73" y="0">oor titels </tspan><tspan x="0" y="13.2">in één </tspan><tspan class="cls-20" x="33.2" y="13.2">v</tspan><tspan x="38.97" y="13.2">an de kleu</tspan><tspan class="cls-21" x="90.95" y="13.2">r</tspan><tspan x="94.82" y="13.2">en. </tspan><tspan class="cls-20" x="112.65" y="13.2">Z</tspan><tspan x="119.14" y="13.2">o</tspan><tspan class="cls-21" x="125.43" y="13.2">r</tspan><tspan x="129.31" y="13.2">g </tspan><tspan class="cls-22" x="0" y="26.4">s</tspan><tspan x="5.4" y="26.4">teeds </tspan><tspan class="cls-20" x="36.15" y="26.4">v</tspan><tspan x="41.92" y="26.4">oor </tspan><tspan class="cls-23" x="61.36" y="26.4">v</tspan><tspan x="67.13" y="26.4">oldoende cont</tspan><tspan class="cls-24" x="138.83" y="26.4">r</tspan><tspan x="142.7" y="26.4">a</tspan><tspan class="cls-22" x="149.3" y="26.4">s</tspan><tspan x="154.7" y="26.4">t </tspan><tspan x="0" y="39.6">tussen h</tspan><tspan class="cls-16" x="42.83" y="39.6">e</tspan><tspan x="48.78" y="39.6">t l</tspan><tspan class="cls-25" x="58.12" y="39.6">e</tspan><tspan class="cls-26" x="64.08" y="39.6">t</tspan><tspan x="67.96" y="39.6">te</tspan><tspan class="cls-18" x="77.79" y="39.6">r</tspan><tspan class="cls-19" x="82.2" y="39.6">t</tspan><tspan x="86.12" y="39.6">ype en de </tspan><tspan x="0" y="52.8">achte</tspan><tspan class="cls-24" x="28.31" y="52.8">r</tspan><tspan x="32.19" y="52.8">g</tspan><tspan class="cls-21" x="38.83" y="52.8">r</tspan><tspan x="42.7" y="52.8">ond. </tspan></text></svg>